<ttFont>
    <TTGlyph name="A" xMin="1" yMin="-197" xMax="1533" yMax="975">
      <contour>
        <pt x="938" y="120" on="1"/>
        <pt x="946" y="166" on="0"/>
        <pt x="980" y="222" on="1"/>
        <pt x="1021" y="209" on="0"/>
        <pt x="1057" y="189" on="1"/>
        <pt x="1025" y="172" on="0"/>
      </contour>
      <contour>
        <pt x="1162" y="43" on="1"/>
        <pt x="1162" y="26" on="0"/>
        <pt x="1155" y="2" on="1"/>
        <pt x="1100" y="-13" on="0"/>
        <pt x="1061" y="-13" on="1"/>
        <pt x="952" y="-13" on="0"/>
        <pt x="938" y="80" on="1"/>
        <pt x="973" y="101" on="0"/>
        <pt x="1084" y="172" on="1"/>
        <pt x="1162" y="116" on="0"/>
      </contour>
      <contour>
        <pt x="426" y="62" on="1"/>
        <pt x="426" y="126" on="0"/>
        <pt x="631" y="247" on="0"/>
        <pt x="781" y="249" on="1"/>
        <pt x="578" y="87" on="0"/>
        <pt x="442" y="20" on="1"/>
        <pt x="426" y="37" on="0"/>
      </contour>
      <contour>
        <pt x="823" y="261" on="1"/>
        <pt x="1013" y="422" on="1"/>
        <pt x="1015" y="423" on="0"/>
        <pt x="1162" y="548" on="0"/>
        <pt x="1240" y="609" on="0"/>
        <pt x="1378" y="698" on="0"/>
        <pt x="1430" y="717" on="1"/>
        <pt x="1439" y="720" on="0"/>
        <pt x="1442" y="720" on="1"/>
        <pt x="1445" y="720" on="1"/>
        <pt x="1446" y="720" on="0"/>
        <pt x="1445" y="719" on="1"/>
        <pt x="1430" y="707" on="0"/>
        <pt x="1279" y="593" on="0"/>
        <pt x="1198" y="525" on="0"/>
        <pt x="1136" y="468" on="1"/>
        <pt x="1016" y="360" on="0"/>
        <pt x="958" y="247" on="1"/>
        <pt x="895" y="260" on="0"/>
      </contour>
      <contour>
        <pt x="1188" y="56" on="1"/>
        <pt x="1188" y="135" on="0"/>
        <pt x="1110" y="188" on="1"/>
        <pt x="1207" y="245" on="0"/>
        <pt x="1266" y="245" on="1"/>
        <pt x="1377" y="245" on="0"/>
        <pt x="1377" y="182" on="1"/>
        <pt x="1377" y="138" on="0"/>
        <pt x="1260" y="40" on="0"/>
        <pt x="1181" y="11" on="1"/>
        <pt x="1188" y="32" on="0"/>
      </contour>
      <contour>
        <pt x="808" y="249" on="1"/>
        <pt x="888" y="246" on="0"/>
        <pt x="949" y="230" on="1"/>
        <pt x="921" y="167" on="0"/>
        <pt x="918" y="108" on="1"/>
        <pt x="815" y="46" on="0"/>
        <pt x="660" y="-19" on="0"/>
        <pt x="496" y="-19" on="0"/>
        <pt x="455" y="9" on="1"/>
        <pt x="606" y="81" on="0"/>
      </contour>
      <contour>
        <pt x="640" y="521" on="1"/>
        <pt x="641" y="504" on="1"/>
        <pt x="655" y="504" on="1"/>
        <pt x="745" y="504" on="0"/>
        <pt x="912" y="555" on="0"/>
        <pt x="1022" y="631" on="0"/>
        <pt x="1087" y="716" on="0"/>
        <pt x="1087" y="784" on="0"/>
        <pt x="1030" y="823" on="0"/>
        <pt x="974" y="823" on="1"/>
        <pt x="889" y="823" on="0"/>
        <pt x="731" y="723" on="0"/>
        <pt x="640" y="583" on="0"/>
      </contour>
      <contour>
        <pt x="803" y="975" on="1"/>
        <pt x="806" y="963" on="1"/>
        <pt x="650" y="941" on="0"/>
        <pt x="441" y="748" on="0"/>
        <pt x="441" y="650" on="1"/>
        <pt x="441" y="592" on="0"/>
        <pt x="525" y="515" on="0"/>
        <pt x="609" y="506" on="1"/>
        <pt x="607" y="524" on="0"/>
        <pt x="607" y="534" on="1"/>
        <pt x="607" y="584" on="0"/>
        <pt x="663" y="691" on="0"/>
        <pt x="759" y="782" on="0"/>
        <pt x="903" y="841" on="0"/>
        <pt x="1044" y="841" on="0"/>
        <pt x="1105" y="796" on="0"/>
        <pt x="1105" y="718" on="0"/>
        <pt x="1039" y="627" on="0"/>
        <pt x="925" y="545" on="0"/>
        <pt x="748" y="491" on="0"/>
        <pt x="649" y="491" on="1"/>
        <pt x="643" y="491" on="1"/>
        <pt x="665" y="406" on="0"/>
        <pt x="790" y="406" on="1"/>
        <pt x="854" y="406" on="0"/>
        <pt x="1032" y="482" on="0"/>
        <pt x="1126" y="560" on="1"/>
        <pt x="1132" y="552" on="1"/>
        <pt x="1102" y="526" on="0"/>
        <pt x="1010" y="463" on="0"/>
        <pt x="850" y="395" on="0"/>
        <pt x="785" y="395" on="1"/>
        <pt x="641" y="395" on="0"/>
        <pt x="613" y="492" on="1"/>
        <pt x="520" y="499" on="0"/>
        <pt x="425" y="583" on="0"/>
        <pt x="425" y="646" on="1"/>
        <pt x="425" y="747" on="0"/>
        <pt x="638" y="947" on="0"/>
      </contour>
      <contour>
        <pt x="233" y="127" on="1"/>
        <pt x="233" y="116" on="1"/>
        <pt x="304" y="123" on="0"/>
        <pt x="415" y="216" on="0"/>
        <pt x="415" y="262" on="1"/>
        <pt x="415" y="292" on="0"/>
        <pt x="358" y="328" on="0"/>
        <pt x="300" y="328" on="1"/>
        <pt x="169" y="328" on="0"/>
        <pt x="1" y="174" on="0"/>
        <pt x="1" y="84" on="1"/>
        <pt x="1" y="22" on="0"/>
        <pt x="93" y="-58" on="0"/>
        <pt x="182" y="-58" on="1"/>
        <pt x="304" y="-58" on="0"/>
        <pt x="443" y="4" on="1"/>
        <pt x="485" y="-30" on="0"/>
        <pt x="571" y="-30" on="1"/>
        <pt x="745" y="-30" on="0"/>
        <pt x="919" y="69" on="1"/>
        <pt x="934" y="-25" on="0"/>
        <pt x="1054" y="-25" on="1"/>
        <pt x="1095" y="-25" on="0"/>
        <pt x="1150" y="-10" on="1"/>
        <pt x="1105" y="-117" on="0"/>
        <pt x="904" y="-187" on="1"/>
        <pt x="904" y="-197" on="1"/>
        <pt x="1010" y="-169" on="0"/>
        <pt x="1151" y="-65" on="0"/>
        <pt x="1176" y="-3" on="1"/>
        <pt x="1264" y="26" on="0"/>
        <pt x="1392" y="133" on="0"/>
        <pt x="1392" y="186" on="1"/>
        <pt x="1392" y="219" on="0"/>
        <pt x="1336" y="258" on="0"/>
        <pt x="1279" y="258" on="1"/>
        <pt x="1193" y="258" on="0"/>
        <pt x="1085" y="204" on="1"/>
        <pt x="1047" y="224" on="0"/>
        <pt x="991" y="240" on="1"/>
        <pt x="1073" y="368" on="0"/>
        <pt x="1403" y="674" on="0"/>
        <pt x="1528" y="745" on="1"/>
        <pt x="1533" y="749" on="0"/>
        <pt x="1533" y="754" on="1"/>
        <pt x="1533" y="764" on="0"/>
        <pt x="1522" y="764" on="1"/>
        <pt x="1520" y="764" on="0"/>
        <pt x="1508" y="762" on="1"/>
        <pt x="1355" y="731" on="0"/>
        <pt x="1037" y="461" on="1"/>
        <pt x="857" y="310" on="0"/>
        <pt x="796" y="261" on="1"/>
        <pt x="617" y="260" on="0"/>
        <pt x="410" y="139" on="0"/>
        <pt x="410" y="68" on="1"/>
        <pt x="410" y="38" on="0"/>
        <pt x="431" y="15" on="1"/>
        <pt x="307" y="-43" on="0"/>
        <pt x="118" y="-43" on="0"/>
        <pt x="34" y="31" on="0"/>
        <pt x="34" y="89" on="1"/>
        <pt x="34" y="172" on="0"/>
        <pt x="183" y="316" on="0"/>
        <pt x="295" y="316" on="1"/>
        <pt x="343" y="316" on="0"/>
        <pt x="390" y="281" on="0"/>
        <pt x="390" y="254" on="1"/>
        <pt x="390" y="213" on="0"/>
        <pt x="299" y="134" on="0"/>
      </contour>
    </TTGlyph>
    <TTGlyph name="AE" xMin="1" yMin="-207" xMax="1731" yMax="975">
      <contour>
        <pt x="1241" y="451" on="1"/>
        <pt x="1198" y="446" on="0"/>
        <pt x="1162" y="446" on="1"/>
        <pt x="1198" y="484" on="0"/>
        <pt x="1247" y="529" on="1"/>
        <pt x="1239" y="500" on="0"/>
        <pt x="1239" y="467" on="0"/>
      </contour>
      <contour>
        <pt x="1304" y="378" on="1"/>
        <pt x="1358" y="387" on="0"/>
        <pt x="1466" y="387" on="0"/>
        <pt x="1466" y="373" on="1"/>
        <pt x="1466" y="366" on="0"/>
        <pt x="1437" y="354" on="0"/>
        <pt x="1414" y="354" on="1"/>
        <pt x="1342" y="354" on="0"/>
      </contour>
      <contour>
        <pt x="965" y="86" on="1"/>
        <pt x="965" y="96" on="1"/>
        <pt x="965" y="162" on="0"/>
        <pt x="1017" y="226" on="1"/>
        <pt x="1081" y="212" on="0"/>
        <pt x="1132" y="184" on="1"/>
        <pt x="1103" y="168" on="0"/>
        <pt x="990" y="100" on="0"/>
      </contour>
      <contour>
        <pt x="1245" y="436" on="1"/>
        <pt x="1255" y="405" on="0"/>
        <pt x="1276" y="385" on="1"/>
        <pt x="1107" y="352" on="0"/>
        <pt x="1003" y="257" on="1"/>
        <pt x="1055" y="334" on="0"/>
        <pt x="1146" y="430" on="1"/>
        <pt x="1196" y="430" on="0"/>
      </contour>
      <contour>
        <pt x="769" y="239" on="1"/>
        <pt x="610" y="114" on="0"/>
        <pt x="493" y="48" on="1"/>
        <pt x="490" y="59" on="0"/>
        <pt x="490" y="70" on="1"/>
        <pt x="490" y="128" on="0"/>
        <pt x="634" y="228" on="0"/>
      </contour>
      <contour>
        <pt x="1215" y="-14" on="1"/>
        <pt x="1166" y="-27" on="0"/>
        <pt x="1118" y="-27" on="1"/>
        <pt x="997" y="-27" on="0"/>
        <pt x="970" y="58" on="1"/>
        <pt x="1028" y="90" on="0"/>
        <pt x="1140" y="162" on="0"/>
        <pt x="1155" y="171" on="1"/>
        <pt x="1231" y="120" on="0"/>
        <pt x="1231" y="49" on="1"/>
        <pt x="1231" y="17" on="0"/>
      </contour>
      <contour>
        <pt x="860" y="255" on="1"/>
        <pt x="814" y="254" on="1"/>
        <pt x="921" y="342" on="0"/>
        <pt x="1015" y="423" on="0"/>
        <pt x="1162" y="548" on="0"/>
        <pt x="1240" y="609" on="0"/>
        <pt x="1378" y="698" on="0"/>
        <pt x="1430" y="717" on="1"/>
        <pt x="1439" y="720" on="0"/>
        <pt x="1442" y="720" on="1"/>
        <pt x="1445" y="720" on="1"/>
        <pt x="1446" y="720" on="0"/>
        <pt x="1445" y="719" on="1"/>
        <pt x="1430" y="707" on="0"/>
        <pt x="1280" y="593" on="0"/>
        <pt x="1199" y="525" on="0"/>
        <pt x="1136" y="469" on="1"/>
        <pt x="1016" y="361" on="0"/>
        <pt x="959" y="249" on="1"/>
        <pt x="912" y="255" on="0"/>
      </contour>
      <contour>
        <pt x="1169" y="180" on="1"/>
        <pt x="1272" y="242" on="0"/>
        <pt x="1323" y="242" on="1"/>
        <pt x="1418" y="242" on="0"/>
        <pt x="1418" y="176" on="1"/>
        <pt x="1418" y="127" on="0"/>
        <pt x="1316" y="18" on="0"/>
        <pt x="1234" y="-8" on="1"/>
        <pt x="1246" y="20" on="0"/>
        <pt x="1246" y="49" on="1"/>
        <pt x="1246" y="125" on="0"/>
      </contour>
      <contour>
        <pt x="1609" y="728" on="1"/>
        <pt x="1705" y="728" on="0"/>
        <pt x="1705" y="685" on="1"/>
        <pt x="1705" y="651" on="0"/>
        <pt x="1587" y="556" on="0"/>
        <pt x="1379" y="470" on="0"/>
        <pt x="1267" y="454" on="1"/>
        <pt x="1270" y="509" on="0"/>
        <pt x="1373" y="637" on="0"/>
        <pt x="1533" y="728" on="0"/>
      </contour>
      <contour>
        <pt x="919" y="60" on="1"/>
        <pt x="757" y="-29" on="0"/>
        <pt x="533" y="-29" on="0"/>
        <pt x="500" y="32" on="1"/>
        <pt x="625" y="98" on="0"/>
        <pt x="800" y="242" on="1"/>
        <pt x="822" y="243" on="0"/>
        <pt x="892" y="243" on="0"/>
        <pt x="952" y="236" on="1"/>
        <pt x="928" y="184" on="0"/>
        <pt x="920" y="131" on="1"/>
        <pt x="915" y="108" on="0"/>
        <pt x="915" y="73" on="0"/>
      </contour>
      <contour>
        <pt x="641" y="504" on="1"/>
        <pt x="655" y="504" on="1"/>
        <pt x="745" y="504" on="0"/>
        <pt x="912" y="555" on="0"/>
        <pt x="1022" y="631" on="0"/>
        <pt x="1087" y="716" on="0"/>
        <pt x="1087" y="784" on="0"/>
        <pt x="1030" y="823" on="0"/>
        <pt x="910" y="823" on="0"/>
        <pt x="784" y="763" on="0"/>
        <pt x="695" y="673" on="0"/>
        <pt x="640" y="566" on="0"/>
        <pt x="640" y="520" on="1"/>
        <pt x="640" y="509" on="0"/>
      </contour>
      <contour>
        <pt x="803" y="975" on="1"/>
        <pt x="806" y="963" on="1"/>
        <pt x="650" y="941" on="0"/>
        <pt x="440" y="748" on="0"/>
        <pt x="440" y="650" on="1"/>
        <pt x="440" y="593" on="0"/>
        <pt x="525" y="515" on="0"/>
        <pt x="609" y="506" on="1"/>
        <pt x="607" y="515" on="0"/>
        <pt x="607" y="533" on="1"/>
        <pt x="607" y="583" on="0"/>
        <pt x="663" y="690" on="0"/>
        <pt x="759" y="782" on="0"/>
        <pt x="903" y="841" on="0"/>
        <pt x="1044" y="841" on="0"/>
        <pt x="1105" y="796" on="0"/>
        <pt x="1105" y="718" on="0"/>
        <pt x="1039" y="627" on="0"/>
        <pt x="925" y="545" on="0"/>
        <pt x="748" y="491" on="0"/>
        <pt x="649" y="491" on="1"/>
        <pt x="644" y="491" on="1"/>
        <pt x="664" y="406" on="0"/>
        <pt x="790" y="406" on="1"/>
        <pt x="854" y="406" on="0"/>
        <pt x="1032" y="482" on="0"/>
        <pt x="1126" y="560" on="1"/>
        <pt x="1132" y="552" on="1"/>
        <pt x="1102" y="526" on="0"/>
        <pt x="1010" y="463" on="0"/>
        <pt x="850" y="395" on="0"/>
        <pt x="785" y="395" on="1"/>
        <pt x="641" y="395" on="0"/>
        <pt x="612" y="492" on="1"/>
        <pt x="519" y="499" on="0"/>
        <pt x="425" y="583" on="0"/>
        <pt x="425" y="646" on="1"/>
        <pt x="425" y="747" on="0"/>
        <pt x="638" y="947" on="0"/>
      </contour>
      <contour>
        <pt x="1618" y="743" on="1"/>
        <pt x="1560" y="743" on="0"/>
        <pt x="1507" y="732" on="1"/>
        <pt x="1514" y="737" on="0"/>
        <pt x="1528" y="745" on="1"/>
        <pt x="1533" y="749" on="0"/>
        <pt x="1533" y="754" on="1"/>
        <pt x="1533" y="764" on="0"/>
        <pt x="1522" y="764" on="1"/>
        <pt x="1520" y="764" on="0"/>
        <pt x="1508" y="762" on="1"/>
        <pt x="1355" y="731" on="0"/>
        <pt x="1037" y="461" on="1"/>
        <pt x="869" y="318" on="0"/>
        <pt x="785" y="252" on="1"/>
        <pt x="629" y="240" on="0"/>
        <pt x="464" y="131" on="0"/>
        <pt x="464" y="67" on="1"/>
        <pt x="464" y="50" on="0"/>
        <pt x="470" y="35" on="1"/>
        <pt x="323" y="-43" on="0"/>
        <pt x="201" y="-43" on="1"/>
        <pt x="118" y="-43" on="0"/>
        <pt x="34" y="31" on="0"/>
        <pt x="34" y="89" on="1"/>
        <pt x="34" y="172" on="0"/>
        <pt x="183" y="316" on="0"/>
        <pt x="295" y="316" on="1"/>
        <pt x="343" y="316" on="0"/>
        <pt x="390" y="281" on="0"/>
        <pt x="390" y="254" on="1"/>
        <pt x="390" y="213" on="0"/>
        <pt x="299" y="134" on="0"/>
        <pt x="233" y="127" on="1"/>
        <pt x="233" y="116" on="1"/>
        <pt x="304" y="123" on="0"/>
        <pt x="415" y="216" on="0"/>
        <pt x="415" y="262" on="1"/>
        <pt x="415" y="292" on="0"/>
        <pt x="358" y="328" on="0"/>
        <pt x="300" y="328" on="1"/>
        <pt x="169" y="328" on="0"/>
        <pt x="1" y="174" on="0"/>
        <pt x="1" y="84" on="1"/>
        <pt x="1" y="22" on="0"/>
        <pt x="93" y="-58" on="0"/>
        <pt x="182" y="-58" on="1"/>
        <pt x="320" y="-58" on="0"/>
        <pt x="478" y="21" on="1"/>
        <pt x="517" y="-40" on="0"/>
        <pt x="624" y="-40" on="1"/>
        <pt x="771" y="-40" on="0"/>
        <pt x="928" y="36" on="1"/>
        <pt x="969" y="-41" on="0"/>
        <pt x="1107" y="-41" on="1"/>
        <pt x="1154" y="-41" on="0"/>
        <pt x="1206" y="-31" on="1"/>
        <pt x="1172" y="-83" on="0"/>
        <pt x="1022" y="-169" on="0"/>
        <pt x="912" y="-194" on="1"/>
        <pt x="913" y="-207" on="1"/>
        <pt x="1033" y="-182" on="0"/>
        <pt x="1193" y="-86" on="0"/>
        <pt x="1225" y="-26" on="1"/>
        <pt x="1327" y="-1" on="0"/>
        <pt x="1457" y="118" on="0"/>
        <pt x="1457" y="174" on="1"/>
        <pt x="1457" y="210" on="0"/>
        <pt x="1395" y="254" on="0"/>
        <pt x="1262" y="254" on="0"/>
        <pt x="1148" y="193" on="1"/>
        <pt x="1097" y="223" on="0"/>
        <pt x="1027" y="238" on="1"/>
        <pt x="1118" y="342" on="0"/>
        <pt x="1287" y="375" on="1"/>
        <pt x="1332" y="341" on="0"/>
        <pt x="1406" y="341" on="1"/>
        <pt x="1439" y="341" on="0"/>
        <pt x="1491" y="365" on="0"/>
        <pt x="1491" y="378" on="1"/>
        <pt x="1491" y="399" on="0"/>
        <pt x="1358" y="399" on="0"/>
        <pt x="1292" y="388" on="1"/>
        <pt x="1269" y="408" on="0"/>
        <pt x="1267" y="440" on="1"/>
        <pt x="1385" y="458" on="0"/>
        <pt x="1606" y="551" on="0"/>
        <pt x="1731" y="655" on="0"/>
        <pt x="1731" y="693" on="1"/>
        <pt x="1731" y="743" on="0"/>
      </contour>
    </TTGlyph>
    <TTGlyph name="Aacute" xMin="1" yMin="-197" xMax="1663" yMax="975">
      <contour>
        <pt x="1509" y="802" on="1"/>
        <pt x="1647" y="859" on="1"/>
        <pt x="1663" y="864" on="0"/>
        <pt x="1663" y="887" on="0"/>
        <pt x="1649" y="887" on="0"/>
        <pt x="1530" y="827" on="0"/>
        <pt x="1505" y="812" on="1"/>
      </contour>
      <contour>
        <pt x="938" y="120" on="1"/>
        <pt x="946" y="166" on="0"/>
        <pt x="980" y="222" on="1"/>
        <pt x="1021" y="209" on="0"/>
        <pt x="1057" y="189" on="1"/>
        <pt x="1025" y="172" on="0"/>
      </contour>
      <contour>
        <pt x="1162" y="43" on="1"/>
        <pt x="1162" y="26" on="0"/>
        <pt x="1155" y="2" on="1"/>
        <pt x="1100" y="-13" on="0"/>
        <pt x="1061" y="-13" on="1"/>
        <pt x="952" y="-13" on="0"/>
        <pt x="938" y="80" on="1"/>
        <pt x="973" y="101" on="0"/>
        <pt x="1084" y="172" on="1"/>
        <pt x="1162" y="116" on="0"/>
      </contour>
      <contour>
        <pt x="426" y="62" on="1"/>
        <pt x="426" y="126" on="0"/>
        <pt x="631" y="247" on="0"/>
        <pt x="781" y="249" on="1"/>
        <pt x="578" y="87" on="0"/>
        <pt x="442" y="20" on="1"/>
        <pt x="426" y="37" on="0"/>
      </contour>
      <contour>
        <pt x="823" y="261" on="1"/>
        <pt x="1013" y="422" on="1"/>
        <pt x="1015" y="423" on="0"/>
        <pt x="1162" y="548" on="0"/>
        <pt x="1240" y="609" on="0"/>
        <pt x="1378" y="698" on="0"/>
        <pt x="1430" y="717" on="1"/>
        <pt x="1439" y="720" on="0"/>
        <pt x="1442" y="720" on="1"/>
        <pt x="1442" y="720" on="0"/>
        <pt x="1445" y="720" on="1"/>
        <pt x="1446" y="720" on="0"/>
        <pt x="1445" y="719" on="1"/>
        <pt x="1430" y="707" on="0"/>
        <pt x="1279" y="593" on="0"/>
        <pt x="1198" y="525" on="0"/>
        <pt x="1136" y="468" on="1"/>
        <pt x="1016" y="360" on="0"/>
        <pt x="958" y="247" on="1"/>
        <pt x="895" y="260" on="0"/>
      </contour>
      <contour>
        <pt x="1188" y="56" on="1"/>
        <pt x="1188" y="135" on="0"/>
        <pt x="1110" y="188" on="1"/>
        <pt x="1207" y="245" on="0"/>
        <pt x="1266" y="245" on="1"/>
        <pt x="1377" y="245" on="0"/>
        <pt x="1377" y="182" on="1"/>
        <pt x="1377" y="138" on="0"/>
        <pt x="1260" y="40" on="0"/>
        <pt x="1181" y="11" on="1"/>
        <pt x="1188" y="32" on="0"/>
      </contour>
      <contour>
        <pt x="808" y="249" on="1"/>
        <pt x="888" y="246" on="0"/>
        <pt x="949" y="230" on="1"/>
        <pt x="921" y="167" on="0"/>
        <pt x="918" y="108" on="1"/>
        <pt x="815" y="46" on="0"/>
        <pt x="660" y="-19" on="0"/>
        <pt x="496" y="-19" on="0"/>
        <pt x="455" y="9" on="1"/>
        <pt x="606" y="81" on="0"/>
      </contour>
      <contour>
        <pt x="640" y="521" on="1"/>
        <pt x="641" y="504" on="1"/>
        <pt x="655" y="504" on="1"/>
        <pt x="745" y="504" on="0"/>
        <pt x="912" y="555" on="0"/>
        <pt x="1022" y="631" on="0"/>
        <pt x="1087" y="716" on="0"/>
        <pt x="1087" y="784" on="0"/>
        <pt x="1030" y="823" on="0"/>
        <pt x="974" y="823" on="1"/>
        <pt x="889" y="823" on="0"/>
        <pt x="731" y="723" on="0"/>
        <pt x="640" y="583" on="0"/>
      </contour>
      <contour>
        <pt x="803" y="975" on="1"/>
        <pt x="806" y="963" on="1"/>
        <pt x="650" y="941" on="0"/>
        <pt x="441" y="748" on="0"/>
        <pt x="441" y="650" on="1"/>
        <pt x="441" y="592" on="0"/>
        <pt x="525" y="515" on="0"/>
        <pt x="609" y="506" on="1"/>
        <pt x="607" y="524" on="0"/>
        <pt x="607" y="534" on="1"/>
        <pt x="607" y="584" on="0"/>
        <pt x="663" y="691" on="0"/>
        <pt x="759" y="782" on="0"/>
        <pt x="903" y="841" on="0"/>
        <pt x="1044" y="841" on="0"/>
        <pt x="1105" y="796" on="0"/>
        <pt x="1105" y="718" on="0"/>
        <pt x="1039" y="627" on="0"/>
        <pt x="925" y="545" on="0"/>
        <pt x="748" y="491" on="0"/>
        <pt x="649" y="491" on="1"/>
        <pt x="643" y="491" on="1"/>
        <pt x="665" y="406" on="0"/>
        <pt x="790" y="406" on="1"/>
        <pt x="854" y="406" on="0"/>
        <pt x="1032" y="482" on="0"/>
        <pt x="1126" y="560" on="1"/>
        <pt x="1132" y="552" on="1"/>
        <pt x="1102" y="526" on="0"/>
        <pt x="1010" y="463" on="0"/>
        <pt x="850" y="395" on="0"/>
        <pt x="785" y="395" on="1"/>
        <pt x="641" y="395" on="0"/>
        <pt x="613" y="492" on="1"/>
        <pt x="520" y="499" on="0"/>
        <pt x="425" y="583" on="0"/>
        <pt x="425" y="646" on="1"/>
        <pt x="425" y="747" on="0"/>
        <pt x="638" y="947" on="0"/>
      </contour>
      <contour>
        <pt x="233" y="127" on="1"/>
        <pt x="233" y="116" on="1"/>
        <pt x="304" y="123" on="0"/>
        <pt x="415" y="216" on="0"/>
        <pt x="415" y="262" on="1"/>
        <pt x="415" y="292" on="0"/>
        <pt x="358" y="328" on="0"/>
        <pt x="300" y="328" on="1"/>
        <pt x="169" y="328" on="0"/>
        <pt x="1" y="174" on="0"/>
        <pt x="1" y="84" on="1"/>
        <pt x="1" y="22" on="0"/>
        <pt x="93" y="-58" on="0"/>
        <pt x="182" y="-58" on="1"/>
        <pt x="304" y="-58" on="0"/>
        <pt x="443" y="4" on="1"/>
        <pt x="485" y="-30" on="0"/>
        <pt x="571" y="-30" on="1"/>
        <pt x="745" y="-30" on="0"/>
        <pt x="919" y="69" on="1"/>
        <pt x="934" y="-25" on="0"/>
        <pt x="1054" y="-25" on="1"/>
        <pt x="1095" y="-25" on="0"/>
        <pt x="1150" y="-10" on="1"/>
        <pt x="1105" y="-117" on="0"/>
        <pt x="904" y="-187" on="1"/>
        <pt x="904" y="-197" on="1"/>
        <pt x="1010" y="-169" on="0"/>
        <pt x="1151" y="-65" on="0"/>
        <pt x="1176" y="-3" on="1"/>
        <pt x="1264" y="26" on="0"/>
        <pt x="1392" y="133" on="0"/>
        <pt x="1392" y="186" on="1"/>
        <pt x="1392" y="219" on="0"/>
        <pt x="1336" y="258" on="0"/>
        <pt x="1279" y="258" on="1"/>
        <pt x="1193" y="258" on="0"/>
        <pt x="1085" y="204" on="1"/>
        <pt x="1047" y="224" on="0"/>
        <pt x="991" y="240" on="1"/>
        <pt x="1073" y="368" on="0"/>
        <pt x="1403" y="674" on="0"/>
        <pt x="1528" y="745" on="1"/>
        <pt x="1533" y="749" on="0"/>
        <pt x="1533" y="754" on="1"/>
        <pt x="1533" y="764" on="0"/>
        <pt x="1522" y="764" on="1"/>
        <pt x="1520" y="764" on="0"/>
        <pt x="1508" y="762" on="1"/>
        <pt x="1355" y="731" on="0"/>
        <pt x="1037" y="461" on="1"/>
        <pt x="857" y="310" on="0"/>
        <pt x="796" y="261" on="1"/>
        <pt x="617" y="260" on="0"/>
        <pt x="410" y="139" on="0"/>
        <pt x="410" y="68" on="1"/>
        <pt x="410" y="38" on="0"/>
        <pt x="431" y="15" on="1"/>
        <pt x="307" y="-43" on="0"/>
        <pt x="118" y="-43" on="0"/>
        <pt x="34" y="31" on="0"/>
        <pt x="34" y="89" on="1"/>
        <pt x="34" y="172" on="0"/>
        <pt x="183" y="316" on="0"/>
        <pt x="295" y="316" on="1"/>
        <pt x="343" y="316" on="0"/>
        <pt x="390" y="281" on="0"/>
        <pt x="390" y="254" on="1"/>
        <pt x="390" y="213" on="0"/>
        <pt x="299" y="134" on="0"/>
      </contour>
    </TTGlyph>
    <TTGlyph name="Acircumflex" xMin="1" yMin="-197" xMax="1619" yMax="975">
      <contour>
        <pt x="1608" y="791" on="1"/>
        <pt x="1619" y="797" on="1"/>
        <pt x="1578" y="881" on="1"/>
        <pt x="1576" y="886" on="0"/>
        <pt x="1566" y="886" on="1"/>
        <pt x="1562" y="886" on="1"/>
        <pt x="1413" y="815" on="1"/>
        <pt x="1425" y="806" on="1"/>
        <pt x="1559" y="860" on="1"/>
      </contour>
      <contour>
        <pt x="938" y="120" on="1"/>
        <pt x="946" y="166" on="0"/>
        <pt x="980" y="222" on="1"/>
        <pt x="1021" y="209" on="0"/>
        <pt x="1057" y="189" on="1"/>
        <pt x="1025" y="172" on="0"/>
      </contour>
      <contour>
        <pt x="1162" y="43" on="1"/>
        <pt x="1162" y="26" on="0"/>
        <pt x="1155" y="2" on="1"/>
        <pt x="1100" y="-13" on="0"/>
        <pt x="1061" y="-13" on="1"/>
        <pt x="952" y="-13" on="0"/>
        <pt x="938" y="80" on="1"/>
        <pt x="973" y="101" on="0"/>
        <pt x="1084" y="172" on="1"/>
        <pt x="1162" y="116" on="0"/>
      </contour>
      <contour>
        <pt x="426" y="62" on="1"/>
        <pt x="426" y="126" on="0"/>
        <pt x="631" y="247" on="0"/>
        <pt x="781" y="249" on="1"/>
        <pt x="578" y="87" on="0"/>
        <pt x="442" y="20" on="1"/>
        <pt x="426" y="37" on="0"/>
      </contour>
      <contour>
        <pt x="823" y="261" on="1"/>
        <pt x="1013" y="422" on="1"/>
        <pt x="1015" y="423" on="0"/>
        <pt x="1162" y="548" on="0"/>
        <pt x="1240" y="609" on="0"/>
        <pt x="1378" y="698" on="0"/>
        <pt x="1430" y="717" on="1"/>
        <pt x="1439" y="720" on="0"/>
        <pt x="1442" y="720" on="1"/>
        <pt x="1442" y="720" on="0"/>
        <pt x="1445" y="720" on="1"/>
        <pt x="1446" y="720" on="0"/>
        <pt x="1445" y="719" on="1"/>
        <pt x="1430" y="707" on="0"/>
        <pt x="1279" y="593" on="0"/>
        <pt x="1198" y="525" on="0"/>
        <pt x="1136" y="468" on="1"/>
        <pt x="1016" y="360" on="0"/>
        <pt x="958" y="247" on="1"/>
        <pt x="895" y="260" on="0"/>
      </contour>
      <contour>
        <pt x="1188" y="56" on="1"/>
        <pt x="1188" y="135" on="0"/>
        <pt x="1110" y="188" on="1"/>
        <pt x="1207" y="245" on="0"/>
        <pt x="1266" y="245" on="1"/>
        <pt x="1377" y="245" on="0"/>
        <pt x="1377" y="182" on="1"/>
        <pt x="1377" y="138" on="0"/>
        <pt x="1260" y="40" on="0"/>
        <pt x="1181" y="11" on="1"/>
        <pt x="1188" y="32" on="0"/>
      </contour>
      <contour>
        <pt x="808" y="249" on="1"/>
        <pt x="888" y="246" on="0"/>
        <pt x="949" y="230" on="1"/>
        <pt x="921" y="167" on="0"/>
        <pt x="918" y="108" on="1"/>
        <pt x="815" y="46" on="0"/>
        <pt x="660" y="-19" on="0"/>
        <pt x="496" y="-19" on="0"/>
        <pt x="455" y="9" on="1"/>
        <pt x="606" y="81" on="0"/>
      </contour>
      <contour>
        <pt x="640" y="521" on="1"/>
        <pt x="641" y="504" on="1"/>
        <pt x="655" y="504" on="1"/>
        <pt x="745" y="504" on="0"/>
        <pt x="912" y="555" on="0"/>
        <pt x="1022" y="631" on="0"/>
        <pt x="1087" y="716" on="0"/>
        <pt x="1087" y="784" on="0"/>
        <pt x="1030" y="823" on="0"/>
        <pt x="974" y="823" on="1"/>
        <pt x="889" y="823" on="0"/>
        <pt x="731" y="723" on="0"/>
        <pt x="640" y="583" on="0"/>
      </contour>
      <contour>
        <pt x="803" y="975" on="1"/>
        <pt x="806" y="963" on="1"/>
        <pt x="650" y="941" on="0"/>
        <pt x="441" y="748" on="0"/>
        <pt x="441" y="650" on="1"/>
        <pt x="441" y="592" on="0"/>
        <pt x="525" y="515" on="0"/>
        <pt x="609" y="506" on="1"/>
        <pt x="607" y="524" on="0"/>
        <pt x="607" y="534" on="1"/>
        <pt x="607" y="584" on="0"/>
        <pt x="663" y="691" on="0"/>
        <pt x="759" y="782" on="0"/>
        <pt x="903" y="841" on="0"/>
        <pt x="1044" y="841" on="0"/>
        <pt x="1105" y="796" on="0"/>
        <pt x="1105" y="718" on="0"/>
        <pt x="1039" y="627" on="0"/>
        <pt x="925" y="545" on="0"/>
        <pt x="748" y="491" on="0"/>
        <pt x="649" y="491" on="1"/>
        <pt x="643" y="491" on="1"/>
        <pt x="665" y="406" on="0"/>
        <pt x="790" y="406" on="1"/>
        <pt x="854" y="406" on="0"/>
        <pt x="1032" y="482" on="0"/>
        <pt x="1126" y="560" on="1"/>
        <pt x="1132" y="552" on="1"/>
        <pt x="1102" y="526" on="0"/>
        <pt x="1010" y="463" on="0"/>
        <pt x="850" y="395" on="0"/>
        <pt x="785" y="395" on="1"/>
        <pt x="641" y="395" on="0"/>
        <pt x="613" y="492" on="1"/>
        <pt x="520" y="499" on="0"/>
        <pt x="425" y="583" on="0"/>
        <pt x="425" y="646" on="1"/>
        <pt x="425" y="747" on="0"/>
        <pt x="638" y="947" on="0"/>
      </contour>
      <contour>
        <pt x="233" y="127" on="1"/>
        <pt x="233" y="116" on="1"/>
        <pt x="304" y="123" on="0"/>
        <pt x="415" y="216" on="0"/>
        <pt x="415" y="262" on="1"/>
        <pt x="415" y="292" on="0"/>
        <pt x="358" y="328" on="0"/>
        <pt x="300" y="328" on="1"/>
        <pt x="169" y="328" on="0"/>
        <pt x="1" y="174" on="0"/>
        <pt x="1" y="84" on="1"/>
        <pt x="1" y="22" on="0"/>
        <pt x="93" y="-58" on="0"/>
        <pt x="182" y="-58" on="1"/>
        <pt x="304" y="-58" on="0"/>
        <pt x="443" y="4" on="1"/>
        <pt x="485" y="-30" on="0"/>
        <pt x="571" y="-30" on="1"/>
        <pt x="745" y="-30" on="0"/>
        <pt x="919" y="69" on="1"/>
        <pt x="934" y="-25" on="0"/>
        <pt x="1054" y="-25" on="1"/>
        <pt x="1095" y="-25" on="0"/>
        <pt x="1150" y="-10" on="1"/>
        <pt x="1105" y="-117" on="0"/>
        <pt x="904" y="-187" on="1"/>
        <pt x="904" y="-197" on="1"/>
        <pt x="1010" y="-169" on="0"/>
        <pt x="1151" y="-65" on="0"/>
        <pt x="1176" y="-3" on="1"/>
        <pt x="1264" y="26" on="0"/>
        <pt x="1392" y="133" on="0"/>
        <pt x="1392" y="186" on="1"/>
        <pt x="1392" y="219" on="0"/>
        <pt x="1336" y="258" on="0"/>
        <pt x="1279" y="258" on="1"/>
        <pt x="1193" y="258" on="0"/>
        <pt x="1085" y="204" on="1"/>
        <pt x="1047" y="224" on="0"/>
        <pt x="991" y="240" on="1"/>
        <pt x="1073" y="368" on="0"/>
        <pt x="1403" y="674" on="0"/>
        <pt x="1528" y="745" on="1"/>
        <pt x="1533" y="749" on="0"/>
        <pt x="1533" y="754" on="1"/>
        <pt x="1533" y="764" on="0"/>
        <pt x="1522" y="764" on="1"/>
        <pt x="1520" y="764" on="0"/>
        <pt x="1508" y="762" on="1"/>
        <pt x="1355" y="731" on="0"/>
        <pt x="1037" y="461" on="1"/>
        <pt x="857" y="310" on="0"/>
        <pt x="796" y="261" on="1"/>
        <pt x="617" y="260" on="0"/>
        <pt x="410" y="139" on="0"/>
        <pt x="410" y="68" on="1"/>
        <pt x="410" y="38" on="0"/>
        <pt x="431" y="15" on="1"/>
        <pt x="307" y="-43" on="0"/>
        <pt x="118" y="-43" on="0"/>
        <pt x="34" y="31" on="0"/>
        <pt x="34" y="89" on="1"/>
        <pt x="34" y="172" on="0"/>
        <pt x="183" y="316" on="0"/>
        <pt x="295" y="316" on="1"/>
        <pt x="343" y="316" on="0"/>
        <pt x="390" y="281" on="0"/>
        <pt x="390" y="254" on="1"/>
        <pt x="390" y="213" on="0"/>
        <pt x="299" y="134" on="0"/>
      </contour>
    </TTGlyph>
    <TTGlyph name="Adieresis" xMin="1" yMin="-197" xMax="1597" yMax="975">
      <contour>
        <pt x="1570" y="877" on="0"/>
        <pt x="1538" y="848" on="0"/>
        <pt x="1538" y="826" on="0"/>
        <pt x="1565" y="826" on="0"/>
        <pt x="1597" y="852" on="0"/>
        <pt x="1597" y="866" on="1"/>
        <pt x="1597" y="877" on="0"/>
      </contour>
      <contour>
        <pt x="1482" y="877" on="0"/>
        <pt x="1450" y="848" on="0"/>
        <pt x="1450" y="826" on="0"/>
        <pt x="1477" y="826" on="0"/>
        <pt x="1509" y="852" on="0"/>
        <pt x="1509" y="866" on="1"/>
        <pt x="1509" y="877" on="0"/>
      </contour>
      <contour>
        <pt x="938" y="120" on="1"/>
        <pt x="946" y="166" on="0"/>
        <pt x="980" y="222" on="1"/>
        <pt x="1021" y="209" on="0"/>
        <pt x="1057" y="189" on="1"/>
        <pt x="1025" y="172" on="0"/>
      </contour>
      <contour>
        <pt x="1162" y="43" on="1"/>
        <pt x="1162" y="26" on="0"/>
        <pt x="1155" y="2" on="1"/>
        <pt x="1100" y="-13" on="0"/>
        <pt x="1061" y="-13" on="1"/>
        <pt x="952" y="-13" on="0"/>
        <pt x="938" y="80" on="1"/>
        <pt x="973" y="101" on="0"/>
        <pt x="1084" y="172" on="1"/>
        <pt x="1162" y="116" on="0"/>
      </contour>
      <contour>
        <pt x="426" y="62" on="1"/>
        <pt x="426" y="126" on="0"/>
        <pt x="631" y="247" on="0"/>
        <pt x="781" y="249" on="1"/>
        <pt x="578" y="87" on="0"/>
        <pt x="442" y="20" on="1"/>
        <pt x="426" y="37" on="0"/>
      </contour>
      <contour>
        <pt x="823" y="261" on="1"/>
        <pt x="1013" y="422" on="1"/>
        <pt x="1015" y="423" on="0"/>
        <pt x="1162" y="548" on="0"/>
        <pt x="1240" y="609" on="0"/>
        <pt x="1378" y="698" on="0"/>
        <pt x="1430" y="717" on="1"/>
        <pt x="1439" y="720" on="0"/>
        <pt x="1442" y="720" on="1"/>
        <pt x="1445" y="720" on="1"/>
        <pt x="1446" y="720" on="0"/>
        <pt x="1445" y="719" on="1"/>
        <pt x="1430" y="707" on="0"/>
        <pt x="1279" y="593" on="0"/>
        <pt x="1198" y="525" on="0"/>
        <pt x="1136" y="468" on="1"/>
        <pt x="1016" y="360" on="0"/>
        <pt x="958" y="247" on="1"/>
        <pt x="895" y="260" on="0"/>
      </contour>
      <contour>
        <pt x="1188" y="56" on="1"/>
        <pt x="1188" y="135" on="0"/>
        <pt x="1110" y="188" on="1"/>
        <pt x="1207" y="245" on="0"/>
        <pt x="1266" y="245" on="1"/>
        <pt x="1377" y="245" on="0"/>
        <pt x="1377" y="182" on="1"/>
        <pt x="1377" y="138" on="0"/>
        <pt x="1260" y="40" on="0"/>
        <pt x="1181" y="11" on="1"/>
        <pt x="1188" y="32" on="0"/>
      </contour>
      <contour>
        <pt x="808" y="249" on="1"/>
        <pt x="888" y="246" on="0"/>
        <pt x="949" y="230" on="1"/>
        <pt x="921" y="167" on="0"/>
        <pt x="918" y="108" on="1"/>
        <pt x="815" y="46" on="0"/>
        <pt x="660" y="-19" on="0"/>
        <pt x="496" y="-19" on="0"/>
        <pt x="455" y="9" on="1"/>
        <pt x="606" y="81" on="0"/>
      </contour>
      <contour>
        <pt x="640" y="521" on="1"/>
        <pt x="641" y="504" on="1"/>
        <pt x="655" y="504" on="1"/>
        <pt x="745" y="504" on="0"/>
        <pt x="912" y="555" on="0"/>
        <pt x="1022" y="631" on="0"/>
        <pt x="1087" y="716" on="0"/>
        <pt x="1087" y="784" on="0"/>
        <pt x="1030" y="823" on="0"/>
        <pt x="974" y="823" on="1"/>
        <pt x="889" y="823" on="0"/>
        <pt x="731" y="723" on="0"/>
        <pt x="640" y="583" on="0"/>
      </contour>
      <contour>
        <pt x="803" y="975" on="1"/>
        <pt x="806" y="963" on="1"/>
        <pt x="650" y="941" on="0"/>
        <pt x="441" y="748" on="0"/>
        <pt x="441" y="650" on="1"/>
        <pt x="441" y="592" on="0"/>
        <pt x="525" y="515" on="0"/>
        <pt x="609" y="506" on="1"/>
        <pt x="607" y="524" on="0"/>
        <pt x="607" y="534" on="1"/>
        <pt x="607" y="584" on="0"/>
        <pt x="663" y="691" on="0"/>
        <pt x="759" y="782" on="0"/>
        <pt x="903" y="841" on="0"/>
        <pt x="1044" y="841" on="0"/>
        <pt x="1105" y="796" on="0"/>
        <pt x="1105" y="718" on="0"/>
        <pt x="1039" y="627" on="0"/>
        <pt x="925" y="545" on="0"/>
        <pt x="748" y="491" on="0"/>
        <pt x="649" y="491" on="1"/>
        <pt x="643" y="491" on="1"/>
        <pt x="665" y="406" on="0"/>
        <pt x="790" y="406" on="1"/>
        <pt x="854" y="406" on="0"/>
        <pt x="1032" y="482" on="0"/>
        <pt x="1126" y="560" on="1"/>
        <pt x="1132" y="552" on="1"/>
        <pt x="1102" y="526" on="0"/>
        <pt x="1010" y="463" on="0"/>
        <pt x="850" y="395" on="0"/>
        <pt x="785" y="395" on="1"/>
        <pt x="641" y="395" on="0"/>
        <pt x="613" y="492" on="1"/>
        <pt x="520" y="499" on="0"/>
        <pt x="425" y="583" on="0"/>
        <pt x="425" y="646" on="1"/>
        <pt x="425" y="747" on="0"/>
        <pt x="638" y="947" on="0"/>
      </contour>
      <contour>
        <pt x="233" y="127" on="1"/>
        <pt x="233" y="116" on="1"/>
        <pt x="304" y="123" on="0"/>
        <pt x="415" y="216" on="0"/>
        <pt x="415" y="262" on="1"/>
        <pt x="415" y="292" on="0"/>
        <pt x="358" y="328" on="0"/>
        <pt x="300" y="328" on="1"/>
        <pt x="169" y="328" on="0"/>
        <pt x="1" y="174" on="0"/>
        <pt x="1" y="84" on="1"/>
        <pt x="1" y="22" on="0"/>
        <pt x="93" y="-58" on="0"/>
        <pt x="182" y="-58" on="1"/>
        <pt x="304" y="-58" on="0"/>
        <pt x="443" y="4" on="1"/>
        <pt x="485" y="-30" on="0"/>
        <pt x="571" y="-30" on="1"/>
        <pt x="745" y="-30" on="0"/>
        <pt x="919" y="69" on="1"/>
        <pt x="934" y="-25" on="0"/>
        <pt x="1054" y="-25" on="1"/>
        <pt x="1095" y="-25" on="0"/>
        <pt x="1150" y="-10" on="1"/>
        <pt x="1105" y="-117" on="0"/>
        <pt x="904" y="-187" on="1"/>
        <pt x="904" y="-197" on="1"/>
        <pt x="1010" y="-169" on="0"/>
        <pt x="1151" y="-65" on="0"/>
        <pt x="1176" y="-3" on="1"/>
        <pt x="1264" y="26" on="0"/>
        <pt x="1392" y="133" on="0"/>
        <pt x="1392" y="186" on="1"/>
        <pt x="1392" y="219" on="0"/>
        <pt x="1336" y="258" on="0"/>
        <pt x="1279" y="258" on="1"/>
        <pt x="1193" y="258" on="0"/>
        <pt x="1085" y="204" on="1"/>
        <pt x="1047" y="224" on="0"/>
        <pt x="991" y="240" on="1"/>
        <pt x="1073" y="368" on="0"/>
        <pt x="1403" y="674" on="0"/>
        <pt x="1528" y="745" on="1"/>
        <pt x="1533" y="749" on="0"/>
        <pt x="1533" y="754" on="1"/>
        <pt x="1533" y="764" on="0"/>
        <pt x="1522" y="764" on="1"/>
        <pt x="1520" y="764" on="0"/>
        <pt x="1508" y="762" on="1"/>
        <pt x="1355" y="731" on="0"/>
        <pt x="1037" y="461" on="1"/>
        <pt x="857" y="310" on="0"/>
        <pt x="796" y="261" on="1"/>
        <pt x="617" y="260" on="0"/>
        <pt x="410" y="139" on="0"/>
        <pt x="410" y="68" on="1"/>
        <pt x="410" y="38" on="0"/>
        <pt x="431" y="15" on="1"/>
        <pt x="307" y="-43" on="0"/>
        <pt x="118" y="-43" on="0"/>
        <pt x="34" y="31" on="0"/>
        <pt x="34" y="89" on="1"/>
        <pt x="34" y="172" on="0"/>
        <pt x="183" y="316" on="0"/>
        <pt x="295" y="316" on="1"/>
        <pt x="343" y="316" on="0"/>
        <pt x="390" y="281" on="0"/>
        <pt x="390" y="254" on="1"/>
        <pt x="390" y="213" on="0"/>
        <pt x="299" y="134" on="0"/>
      </contour>
    </TTGlyph>
    <TTGlyph name="Agrave" xMin="1" yMin="-197" xMax="1582" yMax="975">
      <contour>
        <pt x="1578" y="802" on="1"/>
        <pt x="1440" y="859" on="1"/>
        <pt x="1424" y="864" on="0"/>
        <pt x="1424" y="887" on="0"/>
        <pt x="1438" y="887" on="0"/>
        <pt x="1557" y="827" on="0"/>
        <pt x="1582" y="812" on="1"/>
      </contour>
      <contour>
        <pt x="938" y="120" on="1"/>
        <pt x="946" y="166" on="0"/>
        <pt x="980" y="222" on="1"/>
        <pt x="1021" y="209" on="0"/>
        <pt x="1057" y="189" on="1"/>
        <pt x="1025" y="172" on="0"/>
      </contour>
      <contour>
        <pt x="1162" y="43" on="1"/>
        <pt x="1162" y="26" on="0"/>
        <pt x="1155" y="2" on="1"/>
        <pt x="1100" y="-13" on="0"/>
        <pt x="1061" y="-13" on="1"/>
        <pt x="952" y="-13" on="0"/>
        <pt x="938" y="80" on="1"/>
        <pt x="973" y="101" on="0"/>
        <pt x="1084" y="172" on="1"/>
        <pt x="1162" y="116" on="0"/>
      </contour>
      <contour>
        <pt x="426" y="62" on="1"/>
        <pt x="426" y="126" on="0"/>
        <pt x="631" y="247" on="0"/>
        <pt x="781" y="249" on="1"/>
        <pt x="578" y="87" on="0"/>
        <pt x="442" y="20" on="1"/>
        <pt x="426" y="37" on="0"/>
      </contour>
      <contour>
        <pt x="823" y="261" on="1"/>
        <pt x="1013" y="422" on="1"/>
        <pt x="1015" y="423" on="0"/>
        <pt x="1162" y="548" on="0"/>
        <pt x="1240" y="609" on="0"/>
        <pt x="1378" y="698" on="0"/>
        <pt x="1430" y="717" on="1"/>
        <pt x="1439" y="720" on="0"/>
        <pt x="1442" y="720" on="1"/>
        <pt x="1442" y="720" on="0"/>
        <pt x="1445" y="720" on="1"/>
        <pt x="1446" y="720" on="0"/>
        <pt x="1445" y="719" on="1"/>
        <pt x="1430" y="707" on="0"/>
        <pt x="1279" y="593" on="0"/>
        <pt x="1198" y="525" on="0"/>
        <pt x="1136" y="468" on="1"/>
        <pt x="1016" y="360" on="0"/>
        <pt x="958" y="247" on="1"/>
        <pt x="895" y="260" on="0"/>
      </contour>
      <contour>
        <pt x="1188" y="56" on="1"/>
        <pt x="1188" y="135" on="0"/>
        <pt x="1110" y="188" on="1"/>
        <pt x="1207" y="245" on="0"/>
        <pt x="1266" y="245" on="1"/>
        <pt x="1377" y="245" on="0"/>
        <pt x="1377" y="182" on="1"/>
        <pt x="1377" y="138" on="0"/>
        <pt x="1260" y="40" on="0"/>
        <pt x="1181" y="11" on="1"/>
        <pt x="1188" y="32" on="0"/>
      </contour>
      <contour>
        <pt x="808" y="249" on="1"/>
        <pt x="888" y="246" on="0"/>
        <pt x="949" y="230" on="1"/>
        <pt x="921" y="167" on="0"/>
        <pt x="918" y="108" on="1"/>
        <pt x="815" y="46" on="0"/>
        <pt x="660" y="-19" on="0"/>
        <pt x="496" y="-19" on="0"/>
        <pt x="455" y="9" on="1"/>
        <pt x="606" y="81" on="0"/>
      </contour>
      <contour>
        <pt x="640" y="521" on="1"/>
        <pt x="641" y="504" on="1"/>
        <pt x="655" y="504" on="1"/>
        <pt x="745" y="504" on="0"/>
        <pt x="912" y="555" on="0"/>
        <pt x="1022" y="631" on="0"/>
        <pt x="1087" y="716" on="0"/>
        <pt x="1087" y="784" on="0"/>
        <pt x="1030" y="823" on="0"/>
        <pt x="974" y="823" on="1"/>
        <pt x="889" y="823" on="0"/>
        <pt x="731" y="723" on="0"/>
        <pt x="640" y="583" on="0"/>
      </contour>
      <contour>
        <pt x="803" y="975" on="1"/>
        <pt x="806" y="963" on="1"/>
        <pt x="650" y="941" on="0"/>
        <pt x="441" y="748" on="0"/>
        <pt x="441" y="650" on="1"/>
        <pt x="441" y="592" on="0"/>
        <pt x="525" y="515" on="0"/>
        <pt x="609" y="506" on="1"/>
        <pt x="607" y="524" on="0"/>
        <pt x="607" y="534" on="1"/>
        <pt x="607" y="584" on="0"/>
        <pt x="663" y="691" on="0"/>
        <pt x="759" y="782" on="0"/>
        <pt x="903" y="841" on="0"/>
        <pt x="1044" y="841" on="0"/>
        <pt x="1105" y="796" on="0"/>
        <pt x="1105" y="718" on="0"/>
        <pt x="1039" y="627" on="0"/>
        <pt x="925" y="545" on="0"/>
        <pt x="748" y="491" on="0"/>
        <pt x="649" y="491" on="1"/>
        <pt x="643" y="491" on="1"/>
        <pt x="665" y="406" on="0"/>
        <pt x="790" y="406" on="1"/>
        <pt x="854" y="406" on="0"/>
        <pt x="1032" y="482" on="0"/>
        <pt x="1126" y="560" on="1"/>
        <pt x="1132" y="552" on="1"/>
        <pt x="1102" y="526" on="0"/>
        <pt x="1010" y="463" on="0"/>
        <pt x="850" y="395" on="0"/>
        <pt x="785" y="395" on="1"/>
        <pt x="641" y="395" on="0"/>
        <pt x="613" y="492" on="1"/>
        <pt x="520" y="499" on="0"/>
        <pt x="425" y="583" on="0"/>
        <pt x="425" y="646" on="1"/>
        <pt x="425" y="747" on="0"/>
        <pt x="638" y="947" on="0"/>
      </contour>
      <contour>
        <pt x="233" y="127" on="1"/>
        <pt x="233" y="116" on="1"/>
        <pt x="304" y="123" on="0"/>
        <pt x="415" y="216" on="0"/>
        <pt x="415" y="262" on="1"/>
        <pt x="415" y="292" on="0"/>
        <pt x="358" y="328" on="0"/>
        <pt x="300" y="328" on="1"/>
        <pt x="169" y="328" on="0"/>
        <pt x="1" y="174" on="0"/>
        <pt x="1" y="84" on="1"/>
        <pt x="1" y="22" on="0"/>
        <pt x="93" y="-58" on="0"/>
        <pt x="182" y="-58" on="1"/>
        <pt x="304" y="-58" on="0"/>
        <pt x="443" y="4" on="1"/>
        <pt x="485" y="-30" on="0"/>
        <pt x="571" y="-30" on="1"/>
        <pt x="745" y="-30" on="0"/>
        <pt x="919" y="69" on="1"/>
        <pt x="934" y="-25" on="0"/>
        <pt x="1054" y="-25" on="1"/>
        <pt x="1095" y="-25" on="0"/>
        <pt x="1150" y="-10" on="1"/>
        <pt x="1105" y="-117" on="0"/>
        <pt x="904" y="-187" on="1"/>
        <pt x="904" y="-197" on="1"/>
        <pt x="1010" y="-169" on="0"/>
        <pt x="1151" y="-65" on="0"/>
        <pt x="1176" y="-3" on="1"/>
        <pt x="1264" y="26" on="0"/>
        <pt x="1392" y="133" on="0"/>
        <pt x="1392" y="186" on="1"/>
        <pt x="1392" y="219" on="0"/>
        <pt x="1336" y="258" on="0"/>
        <pt x="1279" y="258" on="1"/>
        <pt x="1193" y="258" on="0"/>
        <pt x="1085" y="204" on="1"/>
        <pt x="1047" y="224" on="0"/>
        <pt x="991" y="240" on="1"/>
        <pt x="1073" y="368" on="0"/>
        <pt x="1403" y="674" on="0"/>
        <pt x="1528" y="745" on="1"/>
        <pt x="1533" y="749" on="0"/>
        <pt x="1533" y="754" on="1"/>
        <pt x="1533" y="764" on="0"/>
        <pt x="1522" y="764" on="1"/>
        <pt x="1520" y="764" on="0"/>
        <pt x="1508" y="762" on="1"/>
        <pt x="1355" y="731" on="0"/>
        <pt x="1037" y="461" on="1"/>
        <pt x="857" y="310" on="0"/>
        <pt x="796" y="261" on="1"/>
        <pt x="617" y="260" on="0"/>
        <pt x="410" y="139" on="0"/>
        <pt x="410" y="68" on="1"/>
        <pt x="410" y="38" on="0"/>
        <pt x="431" y="15" on="1"/>
        <pt x="307" y="-43" on="0"/>
        <pt x="118" y="-43" on="0"/>
        <pt x="34" y="31" on="0"/>
        <pt x="34" y="89" on="1"/>
        <pt x="34" y="172" on="0"/>
        <pt x="183" y="316" on="0"/>
        <pt x="295" y="316" on="1"/>
        <pt x="343" y="316" on="0"/>
        <pt x="390" y="281" on="0"/>
        <pt x="390" y="254" on="1"/>
        <pt x="390" y="213" on="0"/>
        <pt x="299" y="134" on="0"/>
      </contour>
    </TTGlyph>
    <TTGlyph name="Aring" xMin="1" yMin="-197" xMax="1580" yMax="975">
      <contour>
        <pt x="1504" y="835" on="0"/>
        <pt x="1528" y="861" on="0"/>
        <pt x="1565" y="861" on="0"/>
        <pt x="1565" y="844" on="1"/>
        <pt x="1565" y="830" on="0"/>
        <pt x="1541" y="804" on="0"/>
        <pt x="1504" y="804" on="0"/>
        <pt x="1504" y="821" on="1"/>
      </contour>
      <contour>
        <pt x="1580" y="847" on="1"/>
        <pt x="1580" y="874" on="0"/>
        <pt x="1522" y="874" on="0"/>
        <pt x="1487" y="838" on="0"/>
        <pt x="1487" y="818" on="1"/>
        <pt x="1487" y="791" on="0"/>
        <pt x="1545" y="791" on="0"/>
        <pt x="1580" y="827" on="0"/>
      </contour>
      <contour>
        <pt x="938" y="120" on="1"/>
        <pt x="946" y="166" on="0"/>
        <pt x="980" y="222" on="1"/>
        <pt x="1021" y="209" on="0"/>
        <pt x="1057" y="189" on="1"/>
        <pt x="1025" y="172" on="0"/>
      </contour>
      <contour>
        <pt x="1162" y="43" on="1"/>
        <pt x="1162" y="26" on="0"/>
        <pt x="1155" y="2" on="1"/>
        <pt x="1100" y="-13" on="0"/>
        <pt x="1061" y="-13" on="1"/>
        <pt x="952" y="-13" on="0"/>
        <pt x="938" y="80" on="1"/>
        <pt x="973" y="101" on="0"/>
        <pt x="1084" y="172" on="1"/>
        <pt x="1162" y="116" on="0"/>
      </contour>
      <contour>
        <pt x="426" y="62" on="1"/>
        <pt x="426" y="126" on="0"/>
        <pt x="631" y="247" on="0"/>
        <pt x="781" y="249" on="1"/>
        <pt x="578" y="87" on="0"/>
        <pt x="442" y="20" on="1"/>
        <pt x="426" y="37" on="0"/>
      </contour>
      <contour>
        <pt x="823" y="261" on="1"/>
        <pt x="1013" y="422" on="1"/>
        <pt x="1015" y="423" on="0"/>
        <pt x="1162" y="548" on="0"/>
        <pt x="1240" y="609" on="0"/>
        <pt x="1378" y="698" on="0"/>
        <pt x="1430" y="717" on="1"/>
        <pt x="1439" y="720" on="0"/>
        <pt x="1442" y="720" on="1"/>
        <pt x="1445" y="720" on="1"/>
        <pt x="1446" y="720" on="0"/>
        <pt x="1445" y="719" on="1"/>
        <pt x="1430" y="707" on="0"/>
        <pt x="1279" y="593" on="0"/>
        <pt x="1198" y="525" on="0"/>
        <pt x="1136" y="468" on="1"/>
        <pt x="1016" y="360" on="0"/>
        <pt x="958" y="247" on="1"/>
        <pt x="895" y="260" on="0"/>
      </contour>
      <contour>
        <pt x="1188" y="56" on="1"/>
        <pt x="1188" y="135" on="0"/>
        <pt x="1110" y="188" on="1"/>
        <pt x="1207" y="245" on="0"/>
        <pt x="1266" y="245" on="1"/>
        <pt x="1377" y="245" on="0"/>
        <pt x="1377" y="182" on="1"/>
        <pt x="1377" y="138" on="0"/>
        <pt x="1260" y="40" on="0"/>
        <pt x="1181" y="11" on="1"/>
        <pt x="1188" y="32" on="0"/>
      </contour>
      <contour>
        <pt x="808" y="249" on="1"/>
        <pt x="888" y="246" on="0"/>
        <pt x="949" y="230" on="1"/>
        <pt x="921" y="167" on="0"/>
        <pt x="918" y="108" on="1"/>
        <pt x="815" y="46" on="0"/>
        <pt x="660" y="-19" on="0"/>
        <pt x="496" y="-19" on="0"/>
        <pt x="455" y="9" on="1"/>
        <pt x="606" y="81" on="0"/>
      </contour>
      <contour>
        <pt x="640" y="521" on="1"/>
        <pt x="641" y="504" on="1"/>
        <pt x="655" y="504" on="1"/>
        <pt x="745" y="504" on="0"/>
        <pt x="912" y="555" on="0"/>
        <pt x="1022" y="631" on="0"/>
        <pt x="1087" y="716" on="0"/>
        <pt x="1087" y="784" on="0"/>
        <pt x="1030" y="823" on="0"/>
        <pt x="974" y="823" on="1"/>
        <pt x="889" y="823" on="0"/>
        <pt x="731" y="723" on="0"/>
        <pt x="640" y="583" on="0"/>
      </contour>
      <contour>
        <pt x="803" y="975" on="1"/>
        <pt x="806" y="963" on="1"/>
        <pt x="650" y="941" on="0"/>
        <pt x="441" y="748" on="0"/>
        <pt x="441" y="650" on="1"/>
        <pt x="441" y="592" on="0"/>
        <pt x="525" y="515" on="0"/>
        <pt x="609" y="506" on="1"/>
        <pt x="607" y="524" on="0"/>
        <pt x="607" y="534" on="1"/>
        <pt x="607" y="584" on="0"/>
        <pt x="663" y="691" on="0"/>
        <pt x="759" y="782" on="0"/>
        <pt x="903" y="841" on="0"/>
        <pt x="1044" y="841" on="0"/>
        <pt x="1105" y="796" on="0"/>
        <pt x="1105" y="718" on="0"/>
        <pt x="1039" y="627" on="0"/>
        <pt x="925" y="545" on="0"/>
        <pt x="748" y="491" on="0"/>
        <pt x="649" y="491" on="1"/>
        <pt x="643" y="491" on="1"/>
        <pt x="665" y="406" on="0"/>
        <pt x="790" y="406" on="1"/>
        <pt x="854" y="406" on="0"/>
        <pt x="1032" y="482" on="0"/>
        <pt x="1126" y="560" on="1"/>
        <pt x="1132" y="552" on="1"/>
        <pt x="1102" y="526" on="0"/>
        <pt x="1010" y="463" on="0"/>
        <pt x="850" y="395" on="0"/>
        <pt x="785" y="395" on="1"/>
        <pt x="641" y="395" on="0"/>
        <pt x="613" y="492" on="1"/>
        <pt x="520" y="499" on="0"/>
        <pt x="425" y="583" on="0"/>
        <pt x="425" y="646" on="1"/>
        <pt x="425" y="747" on="0"/>
        <pt x="638" y="947" on="0"/>
      </contour>
      <contour>
        <pt x="233" y="127" on="1"/>
        <pt x="233" y="116" on="1"/>
        <pt x="304" y="123" on="0"/>
        <pt x="415" y="216" on="0"/>
        <pt x="415" y="262" on="1"/>
        <pt x="415" y="292" on="0"/>
        <pt x="358" y="328" on="0"/>
        <pt x="300" y="328" on="1"/>
        <pt x="169" y="328" on="0"/>
        <pt x="1" y="174" on="0"/>
        <pt x="1" y="84" on="1"/>
        <pt x="1" y="22" on="0"/>
        <pt x="93" y="-58" on="0"/>
        <pt x="182" y="-58" on="1"/>
        <pt x="304" y="-58" on="0"/>
        <pt x="443" y="4" on="1"/>
        <pt x="485" y="-30" on="0"/>
        <pt x="571" y="-30" on="1"/>
        <pt x="745" y="-30" on="0"/>
        <pt x="919" y="69" on="1"/>
        <pt x="934" y="-25" on="0"/>
        <pt x="1054" y="-25" on="1"/>
        <pt x="1095" y="-25" on="0"/>
        <pt x="1150" y="-10" on="1"/>
        <pt x="1105" y="-117" on="0"/>
        <pt x="904" y="-187" on="1"/>
        <pt x="904" y="-197" on="1"/>
        <pt x="1010" y="-169" on="0"/>
        <pt x="1151" y="-65" on="0"/>
        <pt x="1176" y="-3" on="1"/>
        <pt x="1264" y="26" on="0"/>
        <pt x="1392" y="133" on="0"/>
        <pt x="1392" y="186" on="1"/>
        <pt x="1392" y="219" on="0"/>
        <pt x="1336" y="258" on="0"/>
        <pt x="1279" y="258" on="1"/>
        <pt x="1193" y="258" on="0"/>
        <pt x="1085" y="204" on="1"/>
        <pt x="1047" y="224" on="0"/>
        <pt x="991" y="240" on="1"/>
        <pt x="1073" y="368" on="0"/>
        <pt x="1403" y="674" on="0"/>
        <pt x="1528" y="745" on="1"/>
        <pt x="1533" y="749" on="0"/>
        <pt x="1533" y="754" on="1"/>
        <pt x="1533" y="764" on="0"/>
        <pt x="1522" y="764" on="1"/>
        <pt x="1520" y="764" on="0"/>
        <pt x="1508" y="762" on="1"/>
        <pt x="1355" y="731" on="0"/>
        <pt x="1037" y="461" on="1"/>
        <pt x="857" y="310" on="0"/>
        <pt x="796" y="261" on="1"/>
        <pt x="617" y="260" on="0"/>
        <pt x="410" y="139" on="0"/>
        <pt x="410" y="68" on="1"/>
        <pt x="410" y="38" on="0"/>
        <pt x="431" y="15" on="1"/>
        <pt x="307" y="-43" on="0"/>
        <pt x="118" y="-43" on="0"/>
        <pt x="34" y="31" on="0"/>
        <pt x="34" y="89" on="1"/>
        <pt x="34" y="172" on="0"/>
        <pt x="183" y="316" on="0"/>
        <pt x="295" y="316" on="1"/>
        <pt x="343" y="316" on="0"/>
        <pt x="390" y="281" on="0"/>
        <pt x="390" y="254" on="1"/>
        <pt x="390" y="213" on="0"/>
        <pt x="299" y="134" on="0"/>
      </contour>
    </TTGlyph>
    <TTGlyph name="Atilde" xMin="1" yMin="-197" xMax="1623" yMax="975">
      <contour>
        <pt x="1623" y="847" on="1"/>
        <pt x="1614" y="853" on="1"/>
        <pt x="1598" y="833" on="0"/>
        <pt x="1567" y="833" on="0"/>
        <pt x="1499" y="865" on="0"/>
        <pt x="1474" y="865" on="1"/>
        <pt x="1427" y="865" on="0"/>
        <pt x="1394" y="823" on="1"/>
        <pt x="1399" y="818" on="1"/>
        <pt x="1431" y="846" on="0"/>
        <pt x="1472" y="846" on="0"/>
        <pt x="1538" y="809" on="0"/>
        <pt x="1559" y="809" on="1"/>
        <pt x="1601" y="809" on="0"/>
      </contour>
      <contour>
        <pt x="938" y="120" on="1"/>
        <pt x="946" y="166" on="0"/>
        <pt x="980" y="222" on="1"/>
        <pt x="1021" y="209" on="0"/>
        <pt x="1057" y="189" on="1"/>
        <pt x="1025" y="172" on="0"/>
      </contour>
      <contour>
        <pt x="1162" y="43" on="1"/>
        <pt x="1162" y="26" on="0"/>
        <pt x="1155" y="2" on="1"/>
        <pt x="1100" y="-13" on="0"/>
        <pt x="1061" y="-13" on="1"/>
        <pt x="952" y="-13" on="0"/>
        <pt x="938" y="80" on="1"/>
        <pt x="973" y="101" on="0"/>
        <pt x="1084" y="172" on="1"/>
        <pt x="1162" y="116" on="0"/>
      </contour>
      <contour>
        <pt x="426" y="62" on="1"/>
        <pt x="426" y="126" on="0"/>
        <pt x="631" y="247" on="0"/>
        <pt x="781" y="249" on="1"/>
        <pt x="578" y="87" on="0"/>
        <pt x="442" y="20" on="1"/>
        <pt x="426" y="37" on="0"/>
      </contour>
      <contour>
        <pt x="823" y="261" on="1"/>
        <pt x="1013" y="422" on="1"/>
        <pt x="1015" y="423" on="0"/>
        <pt x="1162" y="548" on="0"/>
        <pt x="1240" y="609" on="0"/>
        <pt x="1378" y="698" on="0"/>
        <pt x="1430" y="717" on="1"/>
        <pt x="1439" y="720" on="0"/>
        <pt x="1442" y="720" on="1"/>
        <pt x="1445" y="720" on="1"/>
        <pt x="1446" y="720" on="0"/>
        <pt x="1445" y="719" on="1"/>
        <pt x="1430" y="707" on="0"/>
        <pt x="1279" y="593" on="0"/>
        <pt x="1198" y="525" on="0"/>
        <pt x="1136" y="468" on="1"/>
        <pt x="1016" y="360" on="0"/>
        <pt x="958" y="247" on="1"/>
        <pt x="895" y="260" on="0"/>
      </contour>
      <contour>
        <pt x="1188" y="56" on="1"/>
        <pt x="1188" y="135" on="0"/>
        <pt x="1110" y="188" on="1"/>
        <pt x="1207" y="245" on="0"/>
        <pt x="1266" y="245" on="1"/>
        <pt x="1377" y="245" on="0"/>
        <pt x="1377" y="182" on="1"/>
        <pt x="1377" y="138" on="0"/>
        <pt x="1260" y="40" on="0"/>
        <pt x="1181" y="11" on="1"/>
        <pt x="1188" y="32" on="0"/>
      </contour>
      <contour>
        <pt x="808" y="249" on="1"/>
        <pt x="888" y="246" on="0"/>
        <pt x="949" y="230" on="1"/>
        <pt x="921" y="167" on="0"/>
        <pt x="918" y="108" on="1"/>
        <pt x="815" y="46" on="0"/>
        <pt x="660" y="-19" on="0"/>
        <pt x="496" y="-19" on="0"/>
        <pt x="455" y="9" on="1"/>
        <pt x="606" y="81" on="0"/>
      </contour>
      <contour>
        <pt x="640" y="521" on="1"/>
        <pt x="641" y="504" on="1"/>
        <pt x="655" y="504" on="1"/>
        <pt x="745" y="504" on="0"/>
        <pt x="912" y="555" on="0"/>
        <pt x="1022" y="631" on="0"/>
        <pt x="1087" y="716" on="0"/>
        <pt x="1087" y="784" on="0"/>
        <pt x="1030" y="823" on="0"/>
        <pt x="974" y="823" on="1"/>
        <pt x="889" y="823" on="0"/>
        <pt x="731" y="723" on="0"/>
        <pt x="640" y="583" on="0"/>
      </contour>
      <contour>
        <pt x="803" y="975" on="1"/>
        <pt x="806" y="963" on="1"/>
        <pt x="650" y="941" on="0"/>
        <pt x="441" y="748" on="0"/>
        <pt x="441" y="650" on="1"/>
        <pt x="441" y="592" on="0"/>
        <pt x="525" y="515" on="0"/>
        <pt x="609" y="506" on="1"/>
        <pt x="607" y="524" on="0"/>
        <pt x="607" y="534" on="1"/>
        <pt x="607" y="584" on="0"/>
        <pt x="663" y="691" on="0"/>
        <pt x="759" y="782" on="0"/>
        <pt x="903" y="841" on="0"/>
        <pt x="1044" y="841" on="0"/>
        <pt x="1105" y="796" on="0"/>
        <pt x="1105" y="718" on="0"/>
        <pt x="1039" y="627" on="0"/>
        <pt x="925" y="545" on="0"/>
        <pt x="748" y="491" on="0"/>
        <pt x="649" y="491" on="1"/>
        <pt x="643" y="491" on="1"/>
        <pt x="665" y="406" on="0"/>
        <pt x="790" y="406" on="1"/>
        <pt x="854" y="406" on="0"/>
        <pt x="1032" y="482" on="0"/>
        <pt x="1126" y="560" on="1"/>
        <pt x="1132" y="552" on="1"/>
        <pt x="1102" y="526" on="0"/>
        <pt x="1010" y="463" on="0"/>
        <pt x="850" y="395" on="0"/>
        <pt x="785" y="395" on="1"/>
        <pt x="641" y="395" on="0"/>
        <pt x="613" y="492" on="1"/>
        <pt x="520" y="499" on="0"/>
        <pt x="425" y="583" on="0"/>
        <pt x="425" y="646" on="1"/>
        <pt x="425" y="747" on="0"/>
        <pt x="638" y="947" on="0"/>
      </contour>
      <contour>
        <pt x="233" y="127" on="1"/>
        <pt x="233" y="116" on="1"/>
        <pt x="304" y="123" on="0"/>
        <pt x="415" y="216" on="0"/>
        <pt x="415" y="262" on="1"/>
        <pt x="415" y="292" on="0"/>
        <pt x="358" y="328" on="0"/>
        <pt x="300" y="328" on="1"/>
        <pt x="169" y="328" on="0"/>
        <pt x="1" y="174" on="0"/>
        <pt x="1" y="84" on="1"/>
        <pt x="1" y="22" on="0"/>
        <pt x="93" y="-58" on="0"/>
        <pt x="182" y="-58" on="1"/>
        <pt x="304" y="-58" on="0"/>
        <pt x="443" y="4" on="1"/>
        <pt x="485" y="-30" on="0"/>
        <pt x="571" y="-30" on="1"/>
        <pt x="745" y="-30" on="0"/>
        <pt x="919" y="69" on="1"/>
        <pt x="934" y="-25" on="0"/>
        <pt x="1054" y="-25" on="1"/>
        <pt x="1095" y="-25" on="0"/>
        <pt x="1150" y="-10" on="1"/>
        <pt x="1105" y="-117" on="0"/>
        <pt x="904" y="-187" on="1"/>
        <pt x="904" y="-197" on="1"/>
        <pt x="1010" y="-169" on="0"/>
        <pt x="1151" y="-65" on="0"/>
        <pt x="1176" y="-3" on="1"/>
        <pt x="1264" y="26" on="0"/>
        <pt x="1392" y="133" on="0"/>
        <pt x="1392" y="186" on="1"/>
        <pt x="1392" y="219" on="0"/>
        <pt x="1336" y="258" on="0"/>
        <pt x="1279" y="258" on="1"/>
        <pt x="1193" y="258" on="0"/>
        <pt x="1085" y="204" on="1"/>
        <pt x="1047" y="224" on="0"/>
        <pt x="991" y="240" on="1"/>
        <pt x="1073" y="368" on="0"/>
        <pt x="1403" y="674" on="0"/>
        <pt x="1528" y="745" on="1"/>
        <pt x="1533" y="749" on="0"/>
        <pt x="1533" y="754" on="1"/>
        <pt x="1533" y="764" on="0"/>
        <pt x="1522" y="764" on="1"/>
        <pt x="1520" y="764" on="0"/>
        <pt x="1508" y="762" on="1"/>
        <pt x="1355" y="731" on="0"/>
        <pt x="1037" y="461" on="1"/>
        <pt x="857" y="310" on="0"/>
        <pt x="796" y="261" on="1"/>
        <pt x="617" y="260" on="0"/>
        <pt x="410" y="139" on="0"/>
        <pt x="410" y="68" on="1"/>
        <pt x="410" y="38" on="0"/>
        <pt x="431" y="15" on="1"/>
        <pt x="307" y="-43" on="0"/>
        <pt x="118" y="-43" on="0"/>
        <pt x="34" y="31" on="0"/>
        <pt x="34" y="89" on="1"/>
        <pt x="34" y="172" on="0"/>
        <pt x="183" y="316" on="0"/>
        <pt x="295" y="316" on="1"/>
        <pt x="343" y="316" on="0"/>
        <pt x="390" y="281" on="0"/>
        <pt x="390" y="254" on="1"/>
        <pt x="390" y="213" on="0"/>
        <pt x="299" y="134" on="0"/>
      </contour>
    </TTGlyph>
    <TTGlyph name="B" xMin="-8" yMin="-217" xMax="1726" yMax="893">
      <contour>
        <pt x="1052" y="422" on="1"/>
        <pt x="1041" y="410" on="0"/>
        <pt x="1017" y="386" on="1"/>
        <pt x="1057" y="386" on="0"/>
        <pt x="1107" y="395" on="1"/>
        <pt x="1084" y="413" on="0"/>
      </contour>
      <contour>
        <pt x="978" y="432" on="1"/>
        <pt x="918" y="432" on="0"/>
        <pt x="918" y="398" on="0"/>
        <pt x="967" y="389" on="1"/>
        <pt x="995" y="419" on="0"/>
        <pt x="1006" y="431" on="1"/>
        <pt x="997" y="432" on="0"/>
      </contour>
      <contour>
        <pt x="1120" y="159" on="1"/>
        <pt x="1090" y="160" on="1"/>
        <pt x="1003" y="160" on="0"/>
        <pt x="832" y="56" on="0"/>
        <pt x="832" y="17" on="1"/>
        <pt x="832" y="-10" on="0"/>
        <pt x="883" y="-10" on="1"/>
        <pt x="954" y="-10" on="0"/>
        <pt x="1083" y="87" on="0"/>
      </contour>
      <contour>
        <pt x="259" y="218" on="1"/>
        <pt x="341" y="233" on="0"/>
        <pt x="490" y="233" on="0"/>
        <pt x="552" y="220" on="1"/>
        <pt x="573" y="260" on="0"/>
        <pt x="573" y="290" on="1"/>
        <pt x="573" y="353" on="0"/>
        <pt x="490" y="353" on="1"/>
        <pt x="419" y="353" on="0"/>
        <pt x="296" y="276" on="0"/>
      </contour>
      <contour>
        <pt x="307" y="-9" on="1"/>
        <pt x="344" y="-23" on="0"/>
        <pt x="459" y="-23" on="0"/>
        <pt x="552" y="20" on="1"/>
        <pt x="647" y="64" on="0"/>
        <pt x="704" y="121" on="1"/>
        <pt x="659" y="173" on="0"/>
        <pt x="575" y="199" on="1"/>
        <pt x="540" y="136" on="0"/>
        <pt x="398" y="22" on="0"/>
      </contour>
      <contour>
        <pt x="14" y="41" on="1"/>
        <pt x="14" y="11" on="0"/>
        <pt x="79" y="-26" on="0"/>
        <pt x="203" y="-26" on="0"/>
        <pt x="265" y="-6" on="1"/>
        <pt x="207" y="30" on="0"/>
        <pt x="207" y="103" on="1"/>
        <pt x="207" y="152" on="0"/>
        <pt x="234" y="202" on="1"/>
        <pt x="134" y="177" on="0"/>
        <pt x="14" y="84" on="0"/>
      </contour>
      <contour>
        <pt x="1127" y="400" on="1"/>
        <pt x="1230" y="426" on="0"/>
        <pt x="1360" y="553" on="0"/>
        <pt x="1360" y="621" on="1"/>
        <pt x="1360" y="658" on="0"/>
        <pt x="1337" y="690" on="1"/>
        <pt x="1253" y="631" on="0"/>
        <pt x="1167" y="543" on="1"/>
        <pt x="1148" y="524" on="0"/>
        <pt x="1061" y="432" on="1"/>
        <pt x="1099" y="422" on="0"/>
      </contour>
      <contour>
        <pt x="545" y="208" on="1"/>
        <pt x="480" y="223" on="0"/>
        <pt x="331" y="223" on="0"/>
        <pt x="251" y="206" on="1"/>
        <pt x="222" y="156" on="0"/>
        <pt x="222" y="106" on="1"/>
        <pt x="222" y="34" on="0"/>
        <pt x="285" y="0" on="1"/>
        <pt x="369" y="31" on="0"/>
        <pt x="509" y="147" on="0"/>
      </contour>
      <contour>
        <pt x="694" y="611" on="0"/>
        <pt x="642" y="518" on="0"/>
        <pt x="642" y="446" on="0"/>
        <pt x="681" y="406" on="0"/>
        <pt x="717" y="406" on="1"/>
        <pt x="793" y="406" on="0"/>
        <pt x="945" y="514" on="0"/>
        <pt x="1039" y="669" on="0"/>
        <pt x="1039" y="738" on="1"/>
        <pt x="1039" y="757" on="0"/>
        <pt x="1035" y="772" on="1"/>
        <pt x="944" y="765" on="0"/>
        <pt x="789" y="700" on="0"/>
      </contour>
      <contour>
        <pt x="1098" y="173" on="1"/>
        <pt x="1127" y="172" on="1"/>
        <pt x="1155" y="231" on="0"/>
        <pt x="1155" y="347" on="0"/>
        <pt x="1119" y="384" on="1"/>
        <pt x="1062" y="374" on="0"/>
        <pt x="1006" y="374" on="1"/>
        <pt x="864" y="226" on="0"/>
        <pt x="831" y="188" on="1"/>
        <pt x="801" y="158" on="0"/>
        <pt x="744" y="114" on="1"/>
        <pt x="784" y="65" on="0"/>
        <pt x="784" y="11" on="1"/>
        <pt x="784" y="-66" on="0"/>
        <pt x="621" y="-193" on="0"/>
        <pt x="462" y="-217" on="1"/>
        <pt x="462" y="-206" on="1"/>
        <pt x="601" y="-184" on="0"/>
        <pt x="749" y="-61" on="0"/>
        <pt x="749" y="14" on="1"/>
        <pt x="749" y="58" on="0"/>
        <pt x="722" y="99" on="1"/>
        <pt x="529" y="-36" on="0"/>
        <pt x="389" y="-36" on="1"/>
        <pt x="325" y="-36" on="0"/>
        <pt x="283" y="-16" on="1"/>
        <pt x="210" y="-37" on="0"/>
        <pt x="68" y="-37" on="0"/>
        <pt x="-8" y="8" on="0"/>
        <pt x="-8" y="43" on="1"/>
        <pt x="-8" y="91" on="0"/>
        <pt x="124" y="190" on="0"/>
        <pt x="241" y="215" on="1"/>
        <pt x="280" y="280" on="0"/>
        <pt x="419" y="367" on="0"/>
        <pt x="502" y="367" on="1"/>
        <pt x="553" y="367" on="0"/>
        <pt x="603" y="324" on="0"/>
        <pt x="603" y="252" on="0"/>
        <pt x="582" y="212" on="1"/>
        <pt x="667" y="187" on="0"/>
        <pt x="721" y="138" on="1"/>
        <pt x="770" y="186" on="0"/>
        <pt x="954" y="377" on="1"/>
        <pt x="900" y="386" on="0"/>
        <pt x="900" y="410" on="1"/>
        <pt x="900" y="423" on="0"/>
        <pt x="946" y="442" on="0"/>
        <pt x="998" y="442" on="0"/>
        <pt x="1016" y="440" on="1"/>
        <pt x="1051" y="477" on="1"/>
        <pt x="1187" y="625" on="0"/>
        <pt x="1322" y="707" on="1"/>
        <pt x="1252" y="774" on="0"/>
        <pt x="1084" y="774" on="1"/>
        <pt x="1078" y="774" on="0"/>
        <pt x="1066" y="773" on="0"/>
        <pt x="1063" y="773" on="1"/>
        <pt x="1068" y="753" on="0"/>
        <pt x="1068" y="734" on="1"/>
        <pt x="1068" y="660" on="0"/>
        <pt x="971" y="503" on="0"/>
        <pt x="799" y="393" on="0"/>
        <pt x="705" y="393" on="1"/>
        <pt x="659" y="393" on="0"/>
        <pt x="610" y="439" on="0"/>
        <pt x="610" y="519" on="0"/>
        <pt x="667" y="615" on="0"/>
        <pt x="768" y="706" on="0"/>
        <pt x="935" y="773" on="0"/>
        <pt x="1033" y="781" on="1"/>
        <pt x="1004" y="878" on="0"/>
        <pt x="852" y="878" on="1"/>
        <pt x="802" y="878" on="0"/>
        <pt x="688" y="845" on="0"/>
        <pt x="643" y="821" on="1"/>
        <pt x="552" y="772" on="0"/>
        <pt x="501" y="732" on="1"/>
        <pt x="480" y="716" on="1"/>
        <pt x="470" y="725" on="1"/>
        <pt x="494" y="746" on="0"/>
        <pt x="593" y="812" on="0"/>
        <pt x="681" y="857" on="0"/>
        <pt x="804" y="893" on="0"/>
        <pt x="860" y="893" on="1"/>
        <pt x="1027" y="893" on="0"/>
        <pt x="1061" y="783" on="1"/>
        <pt x="1078" y="784" on="0"/>
        <pt x="1092" y="784" on="1"/>
        <pt x="1254" y="784" on="0"/>
        <pt x="1337" y="716" on="1"/>
        <pt x="1461" y="788" on="0"/>
        <pt x="1564" y="788" on="1"/>
        <pt x="1642" y="788" on="0"/>
        <pt x="1726" y="727" on="0"/>
        <pt x="1726" y="627" on="0"/>
        <pt x="1615" y="529" on="0"/>
        <pt x="1517" y="512" on="1"/>
        <pt x="1507" y="520" on="1"/>
        <pt x="1598" y="537" on="0"/>
        <pt x="1697" y="625" on="0"/>
        <pt x="1697" y="717" on="0"/>
        <pt x="1622" y="775" on="0"/>
        <pt x="1554" y="775" on="1"/>
        <pt x="1465" y="775" on="0"/>
        <pt x="1353" y="701" on="1"/>
        <pt x="1392" y="659" on="0"/>
        <pt x="1392" y="606" on="1"/>
        <pt x="1392" y="537" on="0"/>
        <pt x="1259" y="414" on="0"/>
        <pt x="1140" y="388" on="1"/>
        <pt x="1189" y="339" on="0"/>
        <pt x="1189" y="263" on="1"/>
        <pt x="1189" y="216" on="0"/>
        <pt x="1169" y="168" on="1"/>
        <pt x="1245" y="156" on="0"/>
        <pt x="1322" y="88" on="0"/>
        <pt x="1322" y="41" on="1"/>
        <pt x="1322" y="-28" on="0"/>
        <pt x="1169" y="-155" on="0"/>
        <pt x="1043" y="-174" on="1"/>
        <pt x="1039" y="-162" on="1"/>
        <pt x="1147" y="-152" on="0"/>
        <pt x="1295" y="-27" on="0"/>
        <pt x="1295" y="41" on="1"/>
        <pt x="1295" y="82" on="0"/>
        <pt x="1230" y="143" on="0"/>
        <pt x="1164" y="154" on="1"/>
        <pt x="1129" y="77" on="0"/>
        <pt x="976" y="-23" on="0"/>
        <pt x="872" y="-23" on="1"/>
        <pt x="820" y="-23" on="0"/>
        <pt x="820" y="12" on="1"/>
        <pt x="820" y="60" on="0"/>
        <pt x="988" y="173" on="0"/>
      </contour>
    </TTGlyph>
    <TTGlyph name="C" xMin="0" yMin="-207" xMax="1218" yMax="975">
      <contour>
        <pt x="510" y="234" on="1"/>
        <pt x="493" y="181" on="0"/>
        <pt x="493" y="116" on="0"/>
        <pt x="498" y="94" on="1"/>
        <pt x="612" y="163" on="0"/>
        <pt x="658" y="188" on="1"/>
        <pt x="595" y="223" on="0"/>
      </contour>
      <contour>
        <pt x="677" y="176" on="1"/>
        <pt x="507" y="67" on="1"/>
        <pt x="548" y="-21" on="0"/>
        <pt x="694" y="-21" on="1"/>
        <pt x="723" y="-21" on="0"/>
        <pt x="760" y="-14" on="1"/>
        <pt x="767" y="10" on="0"/>
        <pt x="767" y="29" on="1"/>
        <pt x="767" y="117" on="0"/>
      </contour>
      <contour>
        <pt x="967" y="177" on="1"/>
        <pt x="967" y="210" on="0"/>
        <pt x="921" y="250" on="0"/>
        <pt x="876" y="250" on="1"/>
        <pt x="802" y="250" on="0"/>
        <pt x="695" y="187" on="1"/>
        <pt x="802" y="119" on="0"/>
        <pt x="802" y="20" on="1"/>
        <pt x="802" y="7" on="0"/>
        <pt x="799" y="-4" on="1"/>
        <pt x="875" y="21" on="0"/>
        <pt x="967" y="127" on="0"/>
      </contour>
      <contour>
        <pt x="388" y="553" on="1"/>
        <pt x="491" y="553" on="0"/>
        <pt x="680" y="625" on="0"/>
        <pt x="785" y="722" on="0"/>
        <pt x="785" y="763" on="1"/>
        <pt x="785" y="823" on="0"/>
        <pt x="548" y="823" on="0"/>
        <pt x="362" y="661" on="0"/>
        <pt x="339" y="555" on="1"/>
        <pt x="369" y="553" on="0"/>
      </contour>
      <contour>
        <pt x="407" y="241" on="1"/>
        <pt x="226" y="241" on="0"/>
        <pt x="30" y="129" on="0"/>
        <pt x="30" y="60" on="1"/>
        <pt x="30" y="19" on="0"/>
        <pt x="105" y="-35" on="0"/>
        <pt x="172" y="-35" on="1"/>
        <pt x="279" y="-35" on="0"/>
        <pt x="460" y="72" on="1"/>
        <pt x="445" y="105" on="0"/>
        <pt x="445" y="194" on="0"/>
        <pt x="457" y="239" on="1"/>
        <pt x="425" y="241" on="0"/>
      </contour>
      <contour>
        <pt x="577" y="313" on="1"/>
        <pt x="687" y="313" on="0"/>
        <pt x="919" y="393" on="0"/>
        <pt x="1086" y="506" on="0"/>
        <pt x="1193" y="628" on="0"/>
        <pt x="1193" y="671" on="1"/>
        <pt x="1193" y="728" on="0"/>
        <pt x="999" y="728" on="0"/>
        <pt x="774" y="603" on="0"/>
        <pt x="597" y="416" on="0"/>
        <pt x="544" y="314" on="1"/>
        <pt x="555" y="313" on="0"/>
      </contour>
      <contour>
        <pt x="431" y="975" on="1"/>
        <pt x="434" y="960" on="1"/>
        <pt x="322" y="941" on="0"/>
        <pt x="168" y="783" on="0"/>
        <pt x="168" y="700" on="1"/>
        <pt x="168" y="647" on="0"/>
        <pt x="243" y="570" on="0"/>
        <pt x="320" y="558" on="1"/>
        <pt x="346" y="671" on="0"/>
        <pt x="545" y="843" on="0"/>
        <pt x="677" y="843" on="1"/>
        <pt x="739" y="843" on="0"/>
        <pt x="802" y="802" on="0"/>
        <pt x="802" y="768" on="1"/>
        <pt x="802" y="693" on="0"/>
        <pt x="557" y="542" on="0"/>
        <pt x="380" y="542" on="1"/>
        <pt x="350" y="542" on="0"/>
        <pt x="336" y="543" on="1"/>
        <pt x="333" y="522" on="0"/>
        <pt x="333" y="502" on="1"/>
        <pt x="333" y="436" on="0"/>
        <pt x="410" y="339" on="0"/>
        <pt x="489" y="322" on="1"/>
        <pt x="526" y="400" on="0"/>
        <pt x="652" y="548" on="0"/>
        <pt x="812" y="669" on="0"/>
        <pt x="1011" y="743" on="0"/>
        <pt x="1218" y="743" on="0"/>
        <pt x="1218" y="676" on="1"/>
        <pt x="1218" y="629" on="0"/>
        <pt x="1107" y="500" on="0"/>
        <pt x="932" y="380" on="0"/>
        <pt x="686" y="297" on="0"/>
        <pt x="566" y="297" on="1"/>
        <pt x="546" y="297" on="0"/>
        <pt x="536" y="298" on="1"/>
        <pt x="524" y="272" on="0"/>
        <pt x="515" y="247" on="1"/>
        <pt x="610" y="234" on="0"/>
        <pt x="676" y="197" on="1"/>
        <pt x="805" y="264" on="0"/>
        <pt x="893" y="264" on="1"/>
        <pt x="942" y="264" on="0"/>
        <pt x="993" y="219" on="0"/>
        <pt x="993" y="182" on="1"/>
        <pt x="993" y="126" on="0"/>
        <pt x="886" y="7" on="0"/>
        <pt x="796" y="-19" on="1"/>
        <pt x="773" y="-94" on="0"/>
        <pt x="591" y="-207" on="0"/>
        <pt x="467" y="-207" on="1"/>
        <pt x="416" y="-207" on="0"/>
        <pt x="359" y="-195" on="1"/>
        <pt x="369" y="-186" on="1"/>
        <pt x="407" y="-193" on="0"/>
        <pt x="449" y="-193" on="1"/>
        <pt x="558" y="-193" on="0"/>
        <pt x="726" y="-98" on="0"/>
        <pt x="755" y="-28" on="1"/>
        <pt x="713" y="-35" on="0"/>
        <pt x="680" y="-35" on="1"/>
        <pt x="529" y="-35" on="0"/>
        <pt x="474" y="48" on="1"/>
        <pt x="306" y="-48" on="0"/>
        <pt x="166" y="-48" on="1"/>
        <pt x="90" y="-48" on="0"/>
        <pt x="0" y="17" on="0"/>
        <pt x="0" y="64" on="1"/>
        <pt x="0" y="138" on="0"/>
        <pt x="213" y="254" on="0"/>
        <pt x="415" y="254" on="1"/>
        <pt x="431" y="254" on="0"/>
        <pt x="461" y="252" on="1"/>
        <pt x="472" y="284" on="0"/>
        <pt x="481" y="305" on="1"/>
        <pt x="396" y="323" on="0"/>
        <pt x="313" y="427" on="0"/>
        <pt x="313" y="498" on="1"/>
        <pt x="313" y="524" on="0"/>
        <pt x="317" y="545" on="1"/>
        <pt x="225" y="556" on="0"/>
        <pt x="134" y="639" on="0"/>
        <pt x="134" y="697" on="1"/>
        <pt x="134" y="783" on="0"/>
        <pt x="303" y="950" on="0"/>
      </contour>
    </TTGlyph>
    <TTGlyph name="Ccedilla" xMin="0" yMin="-186" xMax="1218" yMax="975">
      <contour>
        <pt x="388" y="553" on="1"/>
        <pt x="491" y="553" on="0"/>
        <pt x="680" y="625" on="0"/>
        <pt x="785" y="722" on="0"/>
        <pt x="785" y="763" on="1"/>
        <pt x="785" y="823" on="0"/>
        <pt x="548" y="823" on="0"/>
        <pt x="362" y="661" on="0"/>
        <pt x="339" y="555" on="1"/>
        <pt x="369" y="553" on="0"/>
      </contour>
      <contour>
        <pt x="694" y="-21" on="1"/>
        <pt x="811" y="-21" on="0"/>
        <pt x="967" y="109" on="0"/>
        <pt x="967" y="177" on="1"/>
        <pt x="967" y="210" on="0"/>
        <pt x="921" y="250" on="0"/>
        <pt x="836" y="250" on="0"/>
        <pt x="737" y="212" on="0"/>
        <pt x="670" y="173" on="0"/>
        <pt x="536" y="85" on="0"/>
        <pt x="507" y="67" on="1"/>
        <pt x="548" y="-21" on="0"/>
      </contour>
      <contour>
        <pt x="577" y="313" on="1"/>
        <pt x="687" y="313" on="0"/>
        <pt x="919" y="393" on="0"/>
        <pt x="1086" y="506" on="0"/>
        <pt x="1193" y="628" on="0"/>
        <pt x="1193" y="671" on="1"/>
        <pt x="1193" y="728" on="0"/>
        <pt x="999" y="728" on="0"/>
        <pt x="774" y="603" on="0"/>
        <pt x="597" y="416" on="0"/>
        <pt x="544" y="314" on="1"/>
        <pt x="555" y="313" on="0"/>
      </contour>
      <contour>
        <pt x="415" y="254" on="1"/>
        <pt x="407" y="241" on="1"/>
        <pt x="226" y="241" on="0"/>
        <pt x="30" y="129" on="0"/>
        <pt x="30" y="60" on="1"/>
        <pt x="30" y="19" on="0"/>
        <pt x="105" y="-35" on="0"/>
        <pt x="172" y="-35" on="1"/>
        <pt x="279" y="-35" on="0"/>
        <pt x="460" y="72" on="1"/>
        <pt x="445" y="105" on="0"/>
        <pt x="445" y="224" on="0"/>
        <pt x="481" y="305" on="1"/>
        <pt x="396" y="323" on="0"/>
        <pt x="313" y="427" on="0"/>
        <pt x="313" y="498" on="1"/>
        <pt x="313" y="524" on="0"/>
        <pt x="317" y="545" on="1"/>
        <pt x="225" y="556" on="0"/>
        <pt x="134" y="639" on="0"/>
        <pt x="134" y="697" on="1"/>
        <pt x="134" y="783" on="0"/>
        <pt x="303" y="950" on="0"/>
        <pt x="431" y="975" on="1"/>
        <pt x="434" y="960" on="1"/>
        <pt x="322" y="941" on="0"/>
        <pt x="168" y="783" on="0"/>
        <pt x="168" y="700" on="1"/>
        <pt x="168" y="647" on="0"/>
        <pt x="243" y="570" on="0"/>
        <pt x="320" y="558" on="1"/>
        <pt x="346" y="671" on="0"/>
        <pt x="545" y="843" on="0"/>
        <pt x="677" y="843" on="1"/>
        <pt x="739" y="843" on="0"/>
        <pt x="802" y="802" on="0"/>
        <pt x="802" y="768" on="1"/>
        <pt x="802" y="693" on="0"/>
        <pt x="557" y="542" on="0"/>
        <pt x="380" y="542" on="1"/>
        <pt x="350" y="542" on="0"/>
        <pt x="336" y="543" on="1"/>
        <pt x="333" y="522" on="0"/>
        <pt x="333" y="502" on="1"/>
        <pt x="333" y="436" on="0"/>
        <pt x="410" y="339" on="0"/>
        <pt x="489" y="322" on="1"/>
        <pt x="526" y="400" on="0"/>
        <pt x="652" y="548" on="0"/>
        <pt x="812" y="669" on="0"/>
        <pt x="1011" y="743" on="0"/>
        <pt x="1218" y="743" on="0"/>
        <pt x="1218" y="676" on="1"/>
        <pt x="1218" y="629" on="0"/>
        <pt x="1107" y="500" on="0"/>
        <pt x="932" y="380" on="0"/>
        <pt x="686" y="297" on="0"/>
        <pt x="566" y="297" on="1"/>
        <pt x="546" y="297" on="0"/>
        <pt x="536" y="298" on="1"/>
        <pt x="493" y="206" on="0"/>
        <pt x="493" y="137" on="1"/>
        <pt x="493" y="116" on="0"/>
        <pt x="498" y="94" on="1"/>
        <pt x="510" y="101" on="0"/>
        <pt x="599" y="154" on="0"/>
        <pt x="616" y="163" on="1"/>
        <pt x="670" y="193" on="1"/>
        <pt x="713" y="216" on="0"/>
        <pt x="815" y="255" on="0"/>
        <pt x="868" y="264" on="0"/>
        <pt x="893" y="264" on="1"/>
        <pt x="942" y="264" on="0"/>
        <pt x="993" y="219" on="0"/>
        <pt x="993" y="148" on="0"/>
        <pt x="950" y="73" on="0"/>
        <pt x="873" y="7" on="0"/>
        <pt x="751" y="-35" on="0"/>
        <pt x="640" y="-35" on="0"/>
        <pt x="605" y="-29" on="1"/>
        <pt x="575" y="-66" on="1"/>
        <pt x="592" y="-62" on="0"/>
        <pt x="613" y="-62" on="1"/>
        <pt x="702" y="-62" on="0"/>
        <pt x="702" y="-104" on="1"/>
        <pt x="702" y="-133" on="0"/>
        <pt x="618" y="-186" on="0"/>
        <pt x="518" y="-186" on="0"/>
        <pt x="474" y="-164" on="1"/>
        <pt x="483" y="-155" on="1"/>
        <pt x="524" y="-172" on="0"/>
        <pt x="601" y="-172" on="0"/>
        <pt x="654" y="-136" on="0"/>
        <pt x="654" y="-100" on="0"/>
        <pt x="621" y="-79" on="0"/>
        <pt x="577" y="-79" on="0"/>
        <pt x="561" y="-83" on="1"/>
        <pt x="557" y="-73" on="1"/>
        <pt x="587" y="-25" on="1"/>
        <pt x="510" y="-5" on="0"/>
        <pt x="474" y="48" on="1"/>
        <pt x="306" y="-48" on="0"/>
        <pt x="166" y="-48" on="1"/>
        <pt x="90" y="-48" on="0"/>
        <pt x="0" y="17" on="0"/>
        <pt x="0" y="64" on="1"/>
        <pt x="0" y="138" on="0"/>
        <pt x="213" y="254" on="0"/>
      </contour>
    </TTGlyph>
    <TTGlyph name="D" xMin="-4" yMin="-87" xMax="1593" yMax="889">
      <contour>
        <pt x="23" y="49" on="0"/>
        <pt x="23" y="-7" on="0"/>
        <pt x="126" y="-60" on="0"/>
        <pt x="287" y="-60" on="0"/>
        <pt x="382" y="-14" on="1"/>
        <pt x="357" y="-8" on="0"/>
        <pt x="289" y="12" on="1"/>
        <pt x="158" y="49" on="0"/>
      </contour>
      <contour>
        <pt x="491" y="453" on="1"/>
        <pt x="491" y="395" on="0"/>
        <pt x="581" y="395" on="1"/>
        <pt x="627" y="395" on="0"/>
        <pt x="743" y="447" on="0"/>
        <pt x="847" y="531" on="0"/>
        <pt x="918" y="657" on="0"/>
        <pt x="918" y="723" on="1"/>
        <pt x="918" y="744" on="0"/>
        <pt x="913" y="764" on="1"/>
        <pt x="835" y="752" on="0"/>
        <pt x="676" y="678" on="0"/>
        <pt x="563" y="586" on="0"/>
        <pt x="491" y="488" on="0"/>
      </contour>
      <contour>
        <pt x="458" y="-9" on="1"/>
        <pt x="520" y="-21" on="0"/>
        <pt x="564" y="-21" on="1"/>
        <pt x="654" y="-21" on="0"/>
        <pt x="835" y="33" on="0"/>
        <pt x="985" y="124" on="0"/>
        <pt x="1116" y="244" on="0"/>
        <pt x="1161" y="308" on="1"/>
        <pt x="1258" y="448" on="0"/>
        <pt x="1258" y="564" on="1"/>
        <pt x="1258" y="626" on="0"/>
        <pt x="1228" y="673" on="1"/>
        <pt x="1117" y="588" on="0"/>
        <pt x="870" y="326" on="1"/>
        <pt x="785" y="237" on="0"/>
        <pt x="558" y="45" on="0"/>
      </contour>
      <contour>
        <pt x="748" y="873" on="1"/>
        <pt x="645" y="873" on="0"/>
        <pt x="385" y="763" on="0"/>
        <pt x="319" y="697" on="1"/>
        <pt x="306" y="705" on="1"/>
        <pt x="397" y="783" on="0"/>
        <pt x="653" y="889" on="0"/>
        <pt x="757" y="889" on="1"/>
        <pt x="899" y="889" on="0"/>
        <pt x="929" y="786" on="1"/>
        <pt x="961" y="789" on="0"/>
        <pt x="993" y="789" on="1"/>
        <pt x="1149" y="789" on="0"/>
        <pt x="1228" y="702" on="1"/>
        <pt x="1353" y="779" on="0"/>
        <pt x="1458" y="779" on="1"/>
        <pt x="1521" y="779" on="0"/>
        <pt x="1593" y="723" on="0"/>
        <pt x="1593" y="640" on="0"/>
        <pt x="1528" y="560" on="0"/>
        <pt x="1465" y="531" on="1"/>
        <pt x="1463" y="542" on="1"/>
        <pt x="1513" y="562" on="0"/>
        <pt x="1574" y="640" on="0"/>
        <pt x="1574" y="717" on="0"/>
        <pt x="1509" y="766" on="0"/>
        <pt x="1444" y="766" on="1"/>
        <pt x="1354" y="766" on="0"/>
        <pt x="1243" y="684" on="1"/>
        <pt x="1287" y="622" on="0"/>
        <pt x="1287" y="462" on="0"/>
        <pt x="1224" y="304" on="0"/>
        <pt x="1096" y="154" on="0"/>
        <pt x="922" y="35" on="0"/>
        <pt x="679" y="-38" on="0"/>
        <pt x="544" y="-38" on="1"/>
        <pt x="489" y="-38" on="0"/>
        <pt x="427" y="-25" on="1"/>
        <pt x="298" y="-87" on="0"/>
        <pt x="175" y="-87" on="1"/>
        <pt x="101" y="-87" on="0"/>
        <pt x="-4" y="-22" on="0"/>
        <pt x="-4" y="13" on="1"/>
        <pt x="-4" y="36" on="0"/>
        <pt x="47" y="64" on="0"/>
        <pt x="145" y="64" on="0"/>
        <pt x="241" y="46" on="0"/>
        <pt x="392" y="5" on="0"/>
        <pt x="412" y="0" on="1"/>
        <pt x="504" y="50" on="0"/>
        <pt x="727" y="244" on="0"/>
        <pt x="904" y="430" on="0"/>
        <pt x="1126" y="636" on="0"/>
        <pt x="1212" y="692" on="1"/>
        <pt x="1142" y="770" on="0"/>
        <pt x="982" y="770" on="1"/>
        <pt x="957" y="770" on="0"/>
        <pt x="933" y="767" on="1"/>
        <pt x="936" y="752" on="0"/>
        <pt x="936" y="734" on="1"/>
        <pt x="936" y="661" on="0"/>
        <pt x="860" y="523" on="0"/>
        <pt x="748" y="429" on="0"/>
        <pt x="623" y="373" on="0"/>
        <pt x="527" y="373" on="0"/>
        <pt x="479" y="420" on="0"/>
        <pt x="479" y="503" on="0"/>
        <pt x="536" y="604" on="0"/>
        <pt x="639" y="700" on="0"/>
        <pt x="808" y="773" on="0"/>
        <pt x="908" y="784" on="1"/>
        <pt x="876" y="873" on="0"/>
      </contour>
    </TTGlyph>
    <TTGlyph name="E" xMin="0" yMin="-207" xMax="1271" yMax="1044">
      <contour>
        <pt x="950" y="354" on="1"/>
        <pt x="973" y="354" on="0"/>
        <pt x="1002" y="366" on="0"/>
        <pt x="1002" y="373" on="1"/>
        <pt x="1002" y="387" on="0"/>
        <pt x="894" y="387" on="0"/>
        <pt x="840" y="378" on="1"/>
        <pt x="878" y="354" on="0"/>
      </contour>
      <contour>
        <pt x="501" y="96" on="1"/>
        <pt x="501" y="86" on="1"/>
        <pt x="513" y="93" on="0"/>
        <pt x="637" y="167" on="0"/>
        <pt x="669" y="185" on="1"/>
        <pt x="621" y="211" on="0"/>
        <pt x="553" y="226" on="1"/>
        <pt x="501" y="162" on="0"/>
      </contour>
      <contour>
        <pt x="654" y="-27" on="1"/>
        <pt x="703" y="-27" on="0"/>
        <pt x="752" y="-14" on="1"/>
        <pt x="767" y="16" on="0"/>
        <pt x="767" y="48" on="1"/>
        <pt x="767" y="119" on="0"/>
        <pt x="691" y="171" on="1"/>
        <pt x="676" y="162" on="0"/>
        <pt x="638" y="138" on="1"/>
        <pt x="564" y="90" on="0"/>
        <pt x="506" y="58" on="1"/>
        <pt x="533" y="-27" on="0"/>
      </contour>
      <contour>
        <pt x="954" y="176" on="1"/>
        <pt x="954" y="206" on="0"/>
        <pt x="910" y="242" on="0"/>
        <pt x="808" y="242" on="0"/>
        <pt x="705" y="180" on="1"/>
        <pt x="782" y="125" on="0"/>
        <pt x="782" y="49" on="1"/>
        <pt x="782" y="19" on="0"/>
        <pt x="770" y="-8" on="1"/>
        <pt x="851" y="18" on="0"/>
        <pt x="954" y="127" on="0"/>
      </contour>
      <contour>
        <pt x="1245" y="682" on="1"/>
        <pt x="1245" y="728" on="0"/>
        <pt x="1145" y="728" on="1"/>
        <pt x="1068" y="728" on="0"/>
        <pt x="906" y="635" on="0"/>
        <pt x="804" y="504" on="0"/>
        <pt x="803" y="449" on="1"/>
        <pt x="914" y="460" on="0"/>
        <pt x="1125" y="546" on="0"/>
        <pt x="1245" y="645" on="0"/>
      </contour>
      <contour>
        <pt x="529" y="622" on="1"/>
        <pt x="609" y="622" on="0"/>
        <pt x="767" y="668" on="0"/>
        <pt x="878" y="734" on="0"/>
        <pt x="948" y="809" on="0"/>
        <pt x="948" y="839" on="1"/>
        <pt x="948" y="893" on="0"/>
        <pt x="841" y="893" on="1"/>
        <pt x="706" y="893" on="0"/>
        <pt x="505" y="722" on="0"/>
        <pt x="495" y="623" on="1"/>
        <pt x="506" y="622" on="0"/>
      </contour>
      <contour>
        <pt x="378" y="243" on="1"/>
        <pt x="209" y="243" on="0"/>
        <pt x="26" y="137" on="0"/>
        <pt x="26" y="71" on="1"/>
        <pt x="26" y="29" on="0"/>
        <pt x="106" y="-29" on="0"/>
        <pt x="175" y="-29" on="1"/>
        <pt x="293" y="-29" on="0"/>
        <pt x="455" y="60" on="1"/>
        <pt x="451" y="73" on="0"/>
        <pt x="451" y="91" on="1"/>
        <pt x="451" y="161" on="0"/>
        <pt x="515" y="233" on="1"/>
        <pt x="447" y="243" on="0"/>
      </contour>
      <contour>
        <pt x="563" y="238" on="1"/>
        <pt x="632" y="224" on="0"/>
        <pt x="684" y="193" on="1"/>
        <pt x="798" y="254" on="0"/>
        <pt x="931" y="254" on="0"/>
        <pt x="993" y="210" on="0"/>
        <pt x="993" y="174" on="1"/>
        <pt x="993" y="118" on="0"/>
        <pt x="863" y="-1" on="0"/>
        <pt x="761" y="-26" on="1"/>
        <pt x="729" y="-86" on="0"/>
        <pt x="569" y="-182" on="0"/>
        <pt x="449" y="-207" on="1"/>
        <pt x="448" y="-194" on="1"/>
        <pt x="559" y="-169" on="0"/>
        <pt x="708" y="-84" on="0"/>
        <pt x="742" y="-31" on="1"/>
        <pt x="690" y="-41" on="0"/>
        <pt x="643" y="-41" on="1"/>
        <pt x="505" y="-41" on="0"/>
        <pt x="464" y="36" on="1"/>
        <pt x="307" y="-40" on="0"/>
        <pt x="160" y="-40" on="1"/>
        <pt x="86" y="-40" on="0"/>
        <pt x="0" y="22" on="0"/>
        <pt x="0" y="68" on="1"/>
        <pt x="0" y="140" on="0"/>
        <pt x="204" y="255" on="0"/>
        <pt x="396" y="255" on="1"/>
        <pt x="471" y="255" on="0"/>
        <pt x="527" y="245" on="1"/>
        <pt x="629" y="349" on="0"/>
        <pt x="812" y="385" on="1"/>
        <pt x="792" y="404" on="0"/>
        <pt x="782" y="432" on="1"/>
        <pt x="762" y="430" on="0"/>
        <pt x="723" y="430" on="1"/>
        <pt x="598" y="430" on="0"/>
        <pt x="475" y="527" on="0"/>
        <pt x="475" y="603" on="1"/>
        <pt x="475" y="612" on="1"/>
        <pt x="374" y="621" on="0"/>
        <pt x="275" y="705" on="0"/>
        <pt x="275" y="766" on="1"/>
        <pt x="275" y="852" on="0"/>
        <pt x="444" y="1019" on="0"/>
        <pt x="572" y="1044" on="1"/>
        <pt x="575" y="1029" on="1"/>
        <pt x="463" y="1010" on="0"/>
        <pt x="309" y="852" on="0"/>
        <pt x="309" y="769" on="1"/>
        <pt x="309" y="713" on="0"/>
        <pt x="392" y="634" on="0"/>
        <pt x="476" y="625" on="1"/>
        <pt x="488" y="733" on="0"/>
        <pt x="702" y="913" on="0"/>
        <pt x="847" y="913" on="1"/>
        <pt x="965" y="913" on="0"/>
        <pt x="965" y="845" on="1"/>
        <pt x="965" y="811" on="0"/>
        <pt x="898" y="731" on="0"/>
        <pt x="785" y="659" on="0"/>
        <pt x="614" y="611" on="0"/>
        <pt x="521" y="611" on="1"/>
        <pt x="494" y="611" on="1"/>
        <pt x="494" y="606" on="1"/>
        <pt x="494" y="536" on="0"/>
        <pt x="613" y="446" on="0"/>
        <pt x="734" y="446" on="1"/>
        <pt x="763" y="446" on="0"/>
        <pt x="778" y="447" on="1"/>
        <pt x="775" y="462" on="0"/>
        <pt x="775" y="478" on="1"/>
        <pt x="775" y="523" on="0"/>
        <pt x="825" y="615" on="0"/>
        <pt x="917" y="693" on="0"/>
        <pt x="1065" y="743" on="0"/>
        <pt x="1154" y="743" on="1"/>
        <pt x="1271" y="743" on="0"/>
        <pt x="1271" y="689" on="1"/>
        <pt x="1271" y="648" on="0"/>
        <pt x="1143" y="540" on="0"/>
        <pt x="920" y="448" on="0"/>
        <pt x="803" y="435" on="1"/>
        <pt x="808" y="407" on="0"/>
        <pt x="828" y="388" on="1"/>
        <pt x="894" y="399" on="0"/>
        <pt x="1027" y="399" on="0"/>
        <pt x="1027" y="378" on="1"/>
        <pt x="1027" y="365" on="0"/>
        <pt x="975" y="341" on="0"/>
        <pt x="942" y="341" on="1"/>
        <pt x="866" y="341" on="0"/>
        <pt x="823" y="375" on="1"/>
        <pt x="656" y="343" on="0"/>
      </contour>
    </TTGlyph>
    <TTGlyph name="Eacute" xMin="0" yMin="-207" xMax="1329" yMax="1044">
      <contour>
        <pt x="1175" y="776" on="1"/>
        <pt x="1313" y="833" on="1"/>
        <pt x="1329" y="838" on="0"/>
        <pt x="1329" y="861" on="0"/>
        <pt x="1315" y="861" on="0"/>
        <pt x="1196" y="801" on="0"/>
        <pt x="1171" y="786" on="1"/>
      </contour>
      <contour>
        <pt x="950" y="354" on="1"/>
        <pt x="973" y="354" on="0"/>
        <pt x="1002" y="366" on="0"/>
        <pt x="1002" y="373" on="1"/>
        <pt x="1002" y="387" on="0"/>
        <pt x="894" y="387" on="0"/>
        <pt x="840" y="378" on="1"/>
        <pt x="878" y="354" on="0"/>
      </contour>
      <contour>
        <pt x="501" y="96" on="1"/>
        <pt x="501" y="86" on="1"/>
        <pt x="513" y="93" on="0"/>
        <pt x="637" y="167" on="0"/>
        <pt x="669" y="185" on="1"/>
        <pt x="621" y="211" on="0"/>
        <pt x="553" y="226" on="1"/>
        <pt x="501" y="162" on="0"/>
      </contour>
      <contour>
        <pt x="654" y="-27" on="1"/>
        <pt x="703" y="-27" on="0"/>
        <pt x="752" y="-14" on="1"/>
        <pt x="767" y="16" on="0"/>
        <pt x="767" y="48" on="1"/>
        <pt x="767" y="119" on="0"/>
        <pt x="691" y="171" on="1"/>
        <pt x="676" y="162" on="0"/>
        <pt x="638" y="138" on="1"/>
        <pt x="564" y="90" on="0"/>
        <pt x="506" y="58" on="1"/>
        <pt x="533" y="-27" on="0"/>
      </contour>
      <contour>
        <pt x="954" y="176" on="1"/>
        <pt x="954" y="206" on="0"/>
        <pt x="910" y="242" on="0"/>
        <pt x="808" y="242" on="0"/>
        <pt x="705" y="180" on="1"/>
        <pt x="782" y="125" on="0"/>
        <pt x="782" y="49" on="1"/>
        <pt x="782" y="19" on="0"/>
        <pt x="770" y="-8" on="1"/>
        <pt x="851" y="18" on="0"/>
        <pt x="954" y="127" on="0"/>
      </contour>
      <contour>
        <pt x="1245" y="682" on="1"/>
        <pt x="1245" y="728" on="0"/>
        <pt x="1145" y="728" on="1"/>
        <pt x="1068" y="728" on="0"/>
        <pt x="906" y="635" on="0"/>
        <pt x="804" y="504" on="0"/>
        <pt x="803" y="449" on="1"/>
        <pt x="914" y="460" on="0"/>
        <pt x="1125" y="546" on="0"/>
        <pt x="1245" y="645" on="0"/>
      </contour>
      <contour>
        <pt x="529" y="622" on="1"/>
        <pt x="609" y="622" on="0"/>
        <pt x="767" y="668" on="0"/>
        <pt x="878" y="734" on="0"/>
        <pt x="948" y="809" on="0"/>
        <pt x="948" y="839" on="1"/>
        <pt x="948" y="893" on="0"/>
        <pt x="841" y="893" on="1"/>
        <pt x="706" y="893" on="0"/>
        <pt x="505" y="722" on="0"/>
        <pt x="495" y="623" on="1"/>
        <pt x="506" y="622" on="0"/>
      </contour>
      <contour>
        <pt x="378" y="243" on="1"/>
        <pt x="209" y="243" on="0"/>
        <pt x="26" y="137" on="0"/>
        <pt x="26" y="71" on="1"/>
        <pt x="26" y="29" on="0"/>
        <pt x="106" y="-29" on="0"/>
        <pt x="175" y="-29" on="1"/>
        <pt x="293" y="-29" on="0"/>
        <pt x="455" y="60" on="1"/>
        <pt x="451" y="73" on="0"/>
        <pt x="451" y="91" on="1"/>
        <pt x="451" y="161" on="0"/>
        <pt x="515" y="233" on="1"/>
        <pt x="447" y="243" on="0"/>
      </contour>
      <contour>
        <pt x="563" y="238" on="1"/>
        <pt x="632" y="224" on="0"/>
        <pt x="684" y="193" on="1"/>
        <pt x="798" y="254" on="0"/>
        <pt x="931" y="254" on="0"/>
        <pt x="993" y="210" on="0"/>
        <pt x="993" y="174" on="1"/>
        <pt x="993" y="118" on="0"/>
        <pt x="863" y="-1" on="0"/>
        <pt x="761" y="-26" on="1"/>
        <pt x="729" y="-86" on="0"/>
        <pt x="569" y="-182" on="0"/>
        <pt x="449" y="-207" on="1"/>
        <pt x="448" y="-194" on="1"/>
        <pt x="559" y="-169" on="0"/>
        <pt x="708" y="-84" on="0"/>
        <pt x="742" y="-31" on="1"/>
        <pt x="690" y="-41" on="0"/>
        <pt x="643" y="-41" on="1"/>
        <pt x="505" y="-41" on="0"/>
        <pt x="464" y="36" on="1"/>
        <pt x="307" y="-40" on="0"/>
        <pt x="160" y="-40" on="1"/>
        <pt x="86" y="-40" on="0"/>
        <pt x="0" y="22" on="0"/>
        <pt x="0" y="68" on="1"/>
        <pt x="0" y="140" on="0"/>
        <pt x="204" y="255" on="0"/>
        <pt x="396" y="255" on="1"/>
        <pt x="471" y="255" on="0"/>
        <pt x="527" y="245" on="1"/>
        <pt x="629" y="349" on="0"/>
        <pt x="812" y="385" on="1"/>
        <pt x="792" y="404" on="0"/>
        <pt x="782" y="432" on="1"/>
        <pt x="762" y="430" on="0"/>
        <pt x="723" y="430" on="1"/>
        <pt x="598" y="430" on="0"/>
        <pt x="475" y="527" on="0"/>
        <pt x="475" y="603" on="1"/>
        <pt x="475" y="612" on="1"/>
        <pt x="374" y="621" on="0"/>
        <pt x="275" y="705" on="0"/>
        <pt x="275" y="766" on="1"/>
        <pt x="275" y="852" on="0"/>
        <pt x="444" y="1019" on="0"/>
        <pt x="572" y="1044" on="1"/>
        <pt x="575" y="1029" on="1"/>
        <pt x="463" y="1010" on="0"/>
        <pt x="309" y="852" on="0"/>
        <pt x="309" y="769" on="1"/>
        <pt x="309" y="713" on="0"/>
        <pt x="392" y="634" on="0"/>
        <pt x="476" y="625" on="1"/>
        <pt x="488" y="733" on="0"/>
        <pt x="702" y="913" on="0"/>
        <pt x="847" y="913" on="1"/>
        <pt x="965" y="913" on="0"/>
        <pt x="965" y="845" on="1"/>
        <pt x="965" y="811" on="0"/>
        <pt x="898" y="731" on="0"/>
        <pt x="785" y="659" on="0"/>
        <pt x="614" y="611" on="0"/>
        <pt x="521" y="611" on="1"/>
        <pt x="494" y="611" on="1"/>
        <pt x="494" y="606" on="1"/>
        <pt x="494" y="536" on="0"/>
        <pt x="613" y="446" on="0"/>
        <pt x="734" y="446" on="1"/>
        <pt x="763" y="446" on="0"/>
        <pt x="778" y="447" on="1"/>
        <pt x="775" y="462" on="0"/>
        <pt x="775" y="478" on="1"/>
        <pt x="775" y="523" on="0"/>
        <pt x="825" y="615" on="0"/>
        <pt x="917" y="693" on="0"/>
        <pt x="1065" y="743" on="0"/>
        <pt x="1154" y="743" on="1"/>
        <pt x="1271" y="743" on="0"/>
        <pt x="1271" y="689" on="1"/>
        <pt x="1271" y="648" on="0"/>
        <pt x="1143" y="540" on="0"/>
        <pt x="920" y="448" on="0"/>
        <pt x="803" y="435" on="1"/>
        <pt x="808" y="407" on="0"/>
        <pt x="828" y="388" on="1"/>
        <pt x="894" y="399" on="0"/>
        <pt x="1027" y="399" on="0"/>
        <pt x="1027" y="378" on="1"/>
        <pt x="1027" y="365" on="0"/>
        <pt x="975" y="341" on="0"/>
        <pt x="942" y="341" on="1"/>
        <pt x="866" y="341" on="0"/>
        <pt x="823" y="375" on="1"/>
        <pt x="656" y="343" on="0"/>
      </contour>
    </TTGlyph>
    <TTGlyph name="Ecircumflex" xMin="0" yMin="-207" xMax="1300" yMax="1044">
      <contour>
        <pt x="1289" y="769" on="1"/>
        <pt x="1300" y="775" on="1"/>
        <pt x="1259" y="859" on="1"/>
        <pt x="1256" y="864" on="0"/>
        <pt x="1246" y="864" on="1"/>
        <pt x="1243" y="864" on="1"/>
        <pt x="1094" y="793" on="1"/>
        <pt x="1106" y="784" on="1"/>
        <pt x="1240" y="838" on="1"/>
      </contour>
      <contour>
        <pt x="950" y="354" on="1"/>
        <pt x="973" y="354" on="0"/>
        <pt x="1002" y="366" on="0"/>
        <pt x="1002" y="373" on="1"/>
        <pt x="1002" y="387" on="0"/>
        <pt x="894" y="387" on="0"/>
        <pt x="840" y="378" on="1"/>
        <pt x="878" y="354" on="0"/>
      </contour>
      <contour>
        <pt x="501" y="96" on="1"/>
        <pt x="501" y="86" on="1"/>
        <pt x="513" y="93" on="0"/>
        <pt x="637" y="167" on="0"/>
        <pt x="669" y="185" on="1"/>
        <pt x="621" y="211" on="0"/>
        <pt x="553" y="226" on="1"/>
        <pt x="501" y="162" on="0"/>
      </contour>
      <contour>
        <pt x="654" y="-27" on="1"/>
        <pt x="703" y="-27" on="0"/>
        <pt x="752" y="-14" on="1"/>
        <pt x="767" y="16" on="0"/>
        <pt x="767" y="48" on="1"/>
        <pt x="767" y="119" on="0"/>
        <pt x="691" y="171" on="1"/>
        <pt x="676" y="162" on="0"/>
        <pt x="638" y="138" on="1"/>
        <pt x="564" y="90" on="0"/>
        <pt x="506" y="58" on="1"/>
        <pt x="533" y="-27" on="0"/>
      </contour>
      <contour>
        <pt x="954" y="176" on="1"/>
        <pt x="954" y="206" on="0"/>
        <pt x="910" y="242" on="0"/>
        <pt x="808" y="242" on="0"/>
        <pt x="705" y="180" on="1"/>
        <pt x="782" y="125" on="0"/>
        <pt x="782" y="49" on="1"/>
        <pt x="782" y="19" on="0"/>
        <pt x="770" y="-8" on="1"/>
        <pt x="851" y="18" on="0"/>
        <pt x="954" y="127" on="0"/>
      </contour>
      <contour>
        <pt x="1245" y="682" on="1"/>
        <pt x="1245" y="728" on="0"/>
        <pt x="1145" y="728" on="1"/>
        <pt x="1068" y="728" on="0"/>
        <pt x="906" y="635" on="0"/>
        <pt x="804" y="504" on="0"/>
        <pt x="803" y="449" on="1"/>
        <pt x="914" y="460" on="0"/>
        <pt x="1125" y="546" on="0"/>
        <pt x="1245" y="645" on="0"/>
      </contour>
      <contour>
        <pt x="529" y="622" on="1"/>
        <pt x="609" y="622" on="0"/>
        <pt x="767" y="668" on="0"/>
        <pt x="878" y="734" on="0"/>
        <pt x="948" y="809" on="0"/>
        <pt x="948" y="839" on="1"/>
        <pt x="948" y="893" on="0"/>
        <pt x="841" y="893" on="1"/>
        <pt x="706" y="893" on="0"/>
        <pt x="505" y="722" on="0"/>
        <pt x="495" y="623" on="1"/>
        <pt x="506" y="622" on="0"/>
      </contour>
      <contour>
        <pt x="378" y="243" on="1"/>
        <pt x="209" y="243" on="0"/>
        <pt x="26" y="137" on="0"/>
        <pt x="26" y="71" on="1"/>
        <pt x="26" y="29" on="0"/>
        <pt x="106" y="-29" on="0"/>
        <pt x="175" y="-29" on="1"/>
        <pt x="293" y="-29" on="0"/>
        <pt x="455" y="60" on="1"/>
        <pt x="451" y="73" on="0"/>
        <pt x="451" y="91" on="1"/>
        <pt x="451" y="161" on="0"/>
        <pt x="515" y="233" on="1"/>
        <pt x="447" y="243" on="0"/>
      </contour>
      <contour>
        <pt x="563" y="238" on="1"/>
        <pt x="632" y="224" on="0"/>
        <pt x="684" y="193" on="1"/>
        <pt x="798" y="254" on="0"/>
        <pt x="931" y="254" on="0"/>
        <pt x="993" y="210" on="0"/>
        <pt x="993" y="174" on="1"/>
        <pt x="993" y="118" on="0"/>
        <pt x="863" y="-1" on="0"/>
        <pt x="761" y="-26" on="1"/>
        <pt x="729" y="-86" on="0"/>
        <pt x="569" y="-182" on="0"/>
        <pt x="449" y="-207" on="1"/>
        <pt x="448" y="-194" on="1"/>
        <pt x="559" y="-169" on="0"/>
        <pt x="708" y="-84" on="0"/>
        <pt x="742" y="-31" on="1"/>
        <pt x="690" y="-41" on="0"/>
        <pt x="643" y="-41" on="1"/>
        <pt x="505" y="-41" on="0"/>
        <pt x="464" y="36" on="1"/>
        <pt x="307" y="-40" on="0"/>
        <pt x="160" y="-40" on="1"/>
        <pt x="86" y="-40" on="0"/>
        <pt x="0" y="22" on="0"/>
        <pt x="0" y="68" on="1"/>
        <pt x="0" y="140" on="0"/>
        <pt x="204" y="255" on="0"/>
        <pt x="396" y="255" on="1"/>
        <pt x="471" y="255" on="0"/>
        <pt x="527" y="245" on="1"/>
        <pt x="629" y="349" on="0"/>
        <pt x="812" y="385" on="1"/>
        <pt x="792" y="404" on="0"/>
        <pt x="782" y="432" on="1"/>
        <pt x="762" y="430" on="0"/>
        <pt x="723" y="430" on="1"/>
        <pt x="598" y="430" on="0"/>
        <pt x="475" y="527" on="0"/>
        <pt x="475" y="603" on="1"/>
        <pt x="475" y="612" on="1"/>
        <pt x="374" y="621" on="0"/>
        <pt x="275" y="705" on="0"/>
        <pt x="275" y="766" on="1"/>
        <pt x="275" y="852" on="0"/>
        <pt x="444" y="1019" on="0"/>
        <pt x="572" y="1044" on="1"/>
        <pt x="575" y="1029" on="1"/>
        <pt x="463" y="1010" on="0"/>
        <pt x="309" y="852" on="0"/>
        <pt x="309" y="769" on="1"/>
        <pt x="309" y="713" on="0"/>
        <pt x="392" y="634" on="0"/>
        <pt x="476" y="625" on="1"/>
        <pt x="488" y="733" on="0"/>
        <pt x="702" y="913" on="0"/>
        <pt x="847" y="913" on="1"/>
        <pt x="965" y="913" on="0"/>
        <pt x="965" y="845" on="1"/>
        <pt x="965" y="811" on="0"/>
        <pt x="898" y="731" on="0"/>
        <pt x="785" y="659" on="0"/>
        <pt x="614" y="611" on="0"/>
        <pt x="521" y="611" on="1"/>
        <pt x="494" y="611" on="1"/>
        <pt x="494" y="606" on="1"/>
        <pt x="494" y="536" on="0"/>
        <pt x="613" y="446" on="0"/>
        <pt x="734" y="446" on="1"/>
        <pt x="763" y="446" on="0"/>
        <pt x="778" y="447" on="1"/>
        <pt x="775" y="462" on="0"/>
        <pt x="775" y="478" on="1"/>
        <pt x="775" y="523" on="0"/>
        <pt x="825" y="615" on="0"/>
        <pt x="917" y="693" on="0"/>
        <pt x="1065" y="743" on="0"/>
        <pt x="1154" y="743" on="1"/>
        <pt x="1271" y="743" on="0"/>
        <pt x="1271" y="689" on="1"/>
        <pt x="1271" y="648" on="0"/>
        <pt x="1143" y="540" on="0"/>
        <pt x="920" y="448" on="0"/>
        <pt x="803" y="435" on="1"/>
        <pt x="808" y="407" on="0"/>
        <pt x="828" y="388" on="1"/>
        <pt x="894" y="399" on="0"/>
        <pt x="1027" y="399" on="0"/>
        <pt x="1027" y="378" on="1"/>
        <pt x="1027" y="365" on="0"/>
        <pt x="975" y="341" on="0"/>
        <pt x="942" y="341" on="1"/>
        <pt x="866" y="341" on="0"/>
        <pt x="823" y="375" on="1"/>
        <pt x="656" y="343" on="0"/>
      </contour>
    </TTGlyph>
    <TTGlyph name="Edieresis" xMin="0" yMin="-207" xMax="1292" yMax="1044">
      <contour>
        <pt x="1265" y="856" on="0"/>
        <pt x="1233" y="827" on="0"/>
        <pt x="1233" y="805" on="0"/>
        <pt x="1260" y="805" on="0"/>
        <pt x="1292" y="831" on="0"/>
        <pt x="1292" y="845" on="1"/>
        <pt x="1292" y="856" on="0"/>
      </contour>
      <contour>
        <pt x="1177" y="856" on="0"/>
        <pt x="1145" y="827" on="0"/>
        <pt x="1145" y="805" on="0"/>
        <pt x="1172" y="805" on="0"/>
        <pt x="1204" y="831" on="0"/>
        <pt x="1204" y="845" on="1"/>
        <pt x="1204" y="856" on="0"/>
      </contour>
      <contour>
        <pt x="950" y="354" on="1"/>
        <pt x="973" y="354" on="0"/>
        <pt x="1002" y="366" on="0"/>
        <pt x="1002" y="373" on="1"/>
        <pt x="1002" y="387" on="0"/>
        <pt x="894" y="387" on="0"/>
        <pt x="840" y="378" on="1"/>
        <pt x="878" y="354" on="0"/>
      </contour>
      <contour>
        <pt x="501" y="96" on="1"/>
        <pt x="501" y="86" on="1"/>
        <pt x="513" y="93" on="0"/>
        <pt x="637" y="167" on="0"/>
        <pt x="669" y="185" on="1"/>
        <pt x="621" y="211" on="0"/>
        <pt x="553" y="226" on="1"/>
        <pt x="501" y="162" on="0"/>
      </contour>
      <contour>
        <pt x="654" y="-27" on="1"/>
        <pt x="703" y="-27" on="0"/>
        <pt x="752" y="-14" on="1"/>
        <pt x="767" y="16" on="0"/>
        <pt x="767" y="48" on="1"/>
        <pt x="767" y="119" on="0"/>
        <pt x="691" y="171" on="1"/>
        <pt x="676" y="162" on="0"/>
        <pt x="638" y="138" on="1"/>
        <pt x="564" y="90" on="0"/>
        <pt x="506" y="58" on="1"/>
        <pt x="533" y="-27" on="0"/>
      </contour>
      <contour>
        <pt x="954" y="176" on="1"/>
        <pt x="954" y="206" on="0"/>
        <pt x="910" y="242" on="0"/>
        <pt x="808" y="242" on="0"/>
        <pt x="705" y="180" on="1"/>
        <pt x="782" y="125" on="0"/>
        <pt x="782" y="49" on="1"/>
        <pt x="782" y="19" on="0"/>
        <pt x="770" y="-8" on="1"/>
        <pt x="851" y="18" on="0"/>
        <pt x="954" y="127" on="0"/>
      </contour>
      <contour>
        <pt x="1245" y="682" on="1"/>
        <pt x="1245" y="728" on="0"/>
        <pt x="1145" y="728" on="1"/>
        <pt x="1068" y="728" on="0"/>
        <pt x="906" y="635" on="0"/>
        <pt x="804" y="504" on="0"/>
        <pt x="803" y="449" on="1"/>
        <pt x="914" y="460" on="0"/>
        <pt x="1125" y="546" on="0"/>
        <pt x="1245" y="645" on="0"/>
      </contour>
      <contour>
        <pt x="529" y="622" on="1"/>
        <pt x="609" y="622" on="0"/>
        <pt x="767" y="668" on="0"/>
        <pt x="878" y="734" on="0"/>
        <pt x="948" y="809" on="0"/>
        <pt x="948" y="839" on="1"/>
        <pt x="948" y="893" on="0"/>
        <pt x="841" y="893" on="1"/>
        <pt x="706" y="893" on="0"/>
        <pt x="505" y="722" on="0"/>
        <pt x="495" y="623" on="1"/>
        <pt x="506" y="622" on="0"/>
      </contour>
      <contour>
        <pt x="378" y="243" on="1"/>
        <pt x="209" y="243" on="0"/>
        <pt x="26" y="137" on="0"/>
        <pt x="26" y="71" on="1"/>
        <pt x="26" y="29" on="0"/>
        <pt x="106" y="-29" on="0"/>
        <pt x="175" y="-29" on="1"/>
        <pt x="293" y="-29" on="0"/>
        <pt x="455" y="60" on="1"/>
        <pt x="451" y="73" on="0"/>
        <pt x="451" y="91" on="1"/>
        <pt x="451" y="161" on="0"/>
        <pt x="515" y="233" on="1"/>
        <pt x="447" y="243" on="0"/>
      </contour>
      <contour>
        <pt x="563" y="238" on="1"/>
        <pt x="632" y="224" on="0"/>
        <pt x="684" y="193" on="1"/>
        <pt x="798" y="254" on="0"/>
        <pt x="931" y="254" on="0"/>
        <pt x="993" y="210" on="0"/>
        <pt x="993" y="174" on="1"/>
        <pt x="993" y="118" on="0"/>
        <pt x="863" y="-1" on="0"/>
        <pt x="761" y="-26" on="1"/>
        <pt x="729" y="-86" on="0"/>
        <pt x="569" y="-182" on="0"/>
        <pt x="449" y="-207" on="1"/>
        <pt x="448" y="-194" on="1"/>
        <pt x="559" y="-169" on="0"/>
        <pt x="708" y="-84" on="0"/>
        <pt x="742" y="-31" on="1"/>
        <pt x="690" y="-41" on="0"/>
        <pt x="643" y="-41" on="1"/>
        <pt x="505" y="-41" on="0"/>
        <pt x="464" y="36" on="1"/>
        <pt x="307" y="-40" on="0"/>
        <pt x="160" y="-40" on="1"/>
        <pt x="86" y="-40" on="0"/>
        <pt x="0" y="22" on="0"/>
        <pt x="0" y="68" on="1"/>
        <pt x="0" y="140" on="0"/>
        <pt x="204" y="255" on="0"/>
        <pt x="396" y="255" on="1"/>
        <pt x="471" y="255" on="0"/>
        <pt x="527" y="245" on="1"/>
        <pt x="629" y="349" on="0"/>
        <pt x="812" y="385" on="1"/>
        <pt x="792" y="404" on="0"/>
        <pt x="782" y="432" on="1"/>
        <pt x="762" y="430" on="0"/>
        <pt x="723" y="430" on="1"/>
        <pt x="598" y="430" on="0"/>
        <pt x="475" y="527" on="0"/>
        <pt x="475" y="603" on="1"/>
        <pt x="475" y="612" on="1"/>
        <pt x="374" y="621" on="0"/>
        <pt x="275" y="705" on="0"/>
        <pt x="275" y="766" on="1"/>
        <pt x="275" y="852" on="0"/>
        <pt x="444" y="1019" on="0"/>
        <pt x="572" y="1044" on="1"/>
        <pt x="575" y="1029" on="1"/>
        <pt x="463" y="1010" on="0"/>
        <pt x="309" y="852" on="0"/>
        <pt x="309" y="769" on="1"/>
        <pt x="309" y="713" on="0"/>
        <pt x="392" y="634" on="0"/>
        <pt x="476" y="625" on="1"/>
        <pt x="488" y="733" on="0"/>
        <pt x="702" y="913" on="0"/>
        <pt x="847" y="913" on="1"/>
        <pt x="965" y="913" on="0"/>
        <pt x="965" y="845" on="1"/>
        <pt x="965" y="811" on="0"/>
        <pt x="898" y="731" on="0"/>
        <pt x="785" y="659" on="0"/>
        <pt x="614" y="611" on="0"/>
        <pt x="521" y="611" on="1"/>
        <pt x="494" y="611" on="1"/>
        <pt x="494" y="606" on="1"/>
        <pt x="494" y="536" on="0"/>
        <pt x="613" y="446" on="0"/>
        <pt x="734" y="446" on="1"/>
        <pt x="763" y="446" on="0"/>
        <pt x="778" y="447" on="1"/>
        <pt x="775" y="462" on="0"/>
        <pt x="775" y="478" on="1"/>
        <pt x="775" y="523" on="0"/>
        <pt x="825" y="615" on="0"/>
        <pt x="917" y="693" on="0"/>
        <pt x="1065" y="743" on="0"/>
        <pt x="1154" y="743" on="1"/>
        <pt x="1271" y="743" on="0"/>
        <pt x="1271" y="689" on="1"/>
        <pt x="1271" y="648" on="0"/>
        <pt x="1143" y="540" on="0"/>
        <pt x="920" y="448" on="0"/>
        <pt x="803" y="435" on="1"/>
        <pt x="808" y="407" on="0"/>
        <pt x="828" y="388" on="1"/>
        <pt x="894" y="399" on="0"/>
        <pt x="1027" y="399" on="0"/>
        <pt x="1027" y="378" on="1"/>
        <pt x="1027" y="365" on="0"/>
        <pt x="975" y="341" on="0"/>
        <pt x="942" y="341" on="1"/>
        <pt x="866" y="341" on="0"/>
        <pt x="823" y="375" on="1"/>
        <pt x="656" y="343" on="0"/>
      </contour>
    </TTGlyph>
    <TTGlyph name="Egrave" xMin="0" yMin="-207" xMax="1313" yMax="1044">
      <contour>
        <pt x="1309" y="778" on="1"/>
        <pt x="1171" y="835" on="1"/>
        <pt x="1155" y="840" on="0"/>
        <pt x="1155" y="863" on="0"/>
        <pt x="1169" y="863" on="0"/>
        <pt x="1288" y="803" on="0"/>
        <pt x="1313" y="788" on="1"/>
      </contour>
      <contour>
        <pt x="950" y="354" on="1"/>
        <pt x="973" y="354" on="0"/>
        <pt x="1002" y="366" on="0"/>
        <pt x="1002" y="373" on="1"/>
        <pt x="1002" y="387" on="0"/>
        <pt x="894" y="387" on="0"/>
        <pt x="840" y="378" on="1"/>
        <pt x="878" y="354" on="0"/>
      </contour>
      <contour>
        <pt x="501" y="96" on="1"/>
        <pt x="501" y="86" on="1"/>
        <pt x="513" y="93" on="0"/>
        <pt x="637" y="167" on="0"/>
        <pt x="669" y="185" on="1"/>
        <pt x="621" y="211" on="0"/>
        <pt x="553" y="226" on="1"/>
        <pt x="501" y="162" on="0"/>
      </contour>
      <contour>
        <pt x="654" y="-27" on="1"/>
        <pt x="703" y="-27" on="0"/>
        <pt x="752" y="-14" on="1"/>
        <pt x="767" y="16" on="0"/>
        <pt x="767" y="48" on="1"/>
        <pt x="767" y="119" on="0"/>
        <pt x="691" y="171" on="1"/>
        <pt x="676" y="162" on="0"/>
        <pt x="638" y="138" on="1"/>
        <pt x="564" y="90" on="0"/>
        <pt x="506" y="58" on="1"/>
        <pt x="533" y="-27" on="0"/>
      </contour>
      <contour>
        <pt x="954" y="176" on="1"/>
        <pt x="954" y="206" on="0"/>
        <pt x="910" y="242" on="0"/>
        <pt x="808" y="242" on="0"/>
        <pt x="705" y="180" on="1"/>
        <pt x="782" y="125" on="0"/>
        <pt x="782" y="49" on="1"/>
        <pt x="782" y="19" on="0"/>
        <pt x="770" y="-8" on="1"/>
        <pt x="851" y="18" on="0"/>
        <pt x="954" y="127" on="0"/>
      </contour>
      <contour>
        <pt x="1245" y="682" on="1"/>
        <pt x="1245" y="728" on="0"/>
        <pt x="1145" y="728" on="1"/>
        <pt x="1068" y="728" on="0"/>
        <pt x="906" y="635" on="0"/>
        <pt x="804" y="504" on="0"/>
        <pt x="803" y="449" on="1"/>
        <pt x="914" y="460" on="0"/>
        <pt x="1125" y="546" on="0"/>
        <pt x="1245" y="645" on="0"/>
      </contour>
      <contour>
        <pt x="529" y="622" on="1"/>
        <pt x="609" y="622" on="0"/>
        <pt x="767" y="668" on="0"/>
        <pt x="878" y="734" on="0"/>
        <pt x="948" y="809" on="0"/>
        <pt x="948" y="839" on="1"/>
        <pt x="948" y="893" on="0"/>
        <pt x="841" y="893" on="1"/>
        <pt x="706" y="893" on="0"/>
        <pt x="505" y="722" on="0"/>
        <pt x="495" y="623" on="1"/>
        <pt x="506" y="622" on="0"/>
      </contour>
      <contour>
        <pt x="378" y="243" on="1"/>
        <pt x="209" y="243" on="0"/>
        <pt x="26" y="137" on="0"/>
        <pt x="26" y="71" on="1"/>
        <pt x="26" y="29" on="0"/>
        <pt x="106" y="-29" on="0"/>
        <pt x="175" y="-29" on="1"/>
        <pt x="293" y="-29" on="0"/>
        <pt x="455" y="60" on="1"/>
        <pt x="451" y="73" on="0"/>
        <pt x="451" y="91" on="1"/>
        <pt x="451" y="161" on="0"/>
        <pt x="515" y="233" on="1"/>
        <pt x="447" y="243" on="0"/>
      </contour>
      <contour>
        <pt x="563" y="238" on="1"/>
        <pt x="632" y="224" on="0"/>
        <pt x="684" y="193" on="1"/>
        <pt x="798" y="254" on="0"/>
        <pt x="931" y="254" on="0"/>
        <pt x="993" y="210" on="0"/>
        <pt x="993" y="174" on="1"/>
        <pt x="993" y="118" on="0"/>
        <pt x="863" y="-1" on="0"/>
        <pt x="761" y="-26" on="1"/>
        <pt x="729" y="-86" on="0"/>
        <pt x="569" y="-182" on="0"/>
        <pt x="449" y="-207" on="1"/>
        <pt x="448" y="-194" on="1"/>
        <pt x="559" y="-169" on="0"/>
        <pt x="708" y="-84" on="0"/>
        <pt x="742" y="-31" on="1"/>
        <pt x="690" y="-41" on="0"/>
        <pt x="643" y="-41" on="1"/>
        <pt x="505" y="-41" on="0"/>
        <pt x="464" y="36" on="1"/>
        <pt x="307" y="-40" on="0"/>
        <pt x="160" y="-40" on="1"/>
        <pt x="86" y="-40" on="0"/>
        <pt x="0" y="22" on="0"/>
        <pt x="0" y="68" on="1"/>
        <pt x="0" y="140" on="0"/>
        <pt x="204" y="255" on="0"/>
        <pt x="396" y="255" on="1"/>
        <pt x="471" y="255" on="0"/>
        <pt x="527" y="245" on="1"/>
        <pt x="629" y="349" on="0"/>
        <pt x="812" y="385" on="1"/>
        <pt x="792" y="404" on="0"/>
        <pt x="782" y="432" on="1"/>
        <pt x="762" y="430" on="0"/>
        <pt x="723" y="430" on="1"/>
        <pt x="598" y="430" on="0"/>
        <pt x="475" y="527" on="0"/>
        <pt x="475" y="603" on="1"/>
        <pt x="475" y="612" on="1"/>
        <pt x="374" y="621" on="0"/>
        <pt x="275" y="705" on="0"/>
        <pt x="275" y="766" on="1"/>
        <pt x="275" y="852" on="0"/>
        <pt x="444" y="1019" on="0"/>
        <pt x="572" y="1044" on="1"/>
        <pt x="575" y="1029" on="1"/>
        <pt x="463" y="1010" on="0"/>
        <pt x="309" y="852" on="0"/>
        <pt x="309" y="769" on="1"/>
        <pt x="309" y="713" on="0"/>
        <pt x="392" y="634" on="0"/>
        <pt x="476" y="625" on="1"/>
        <pt x="488" y="733" on="0"/>
        <pt x="702" y="913" on="0"/>
        <pt x="847" y="913" on="1"/>
        <pt x="965" y="913" on="0"/>
        <pt x="965" y="845" on="1"/>
        <pt x="965" y="811" on="0"/>
        <pt x="898" y="731" on="0"/>
        <pt x="785" y="659" on="0"/>
        <pt x="614" y="611" on="0"/>
        <pt x="521" y="611" on="1"/>
        <pt x="494" y="611" on="1"/>
        <pt x="494" y="606" on="1"/>
        <pt x="494" y="536" on="0"/>
        <pt x="613" y="446" on="0"/>
        <pt x="734" y="446" on="1"/>
        <pt x="763" y="446" on="0"/>
        <pt x="778" y="447" on="1"/>
        <pt x="775" y="462" on="0"/>
        <pt x="775" y="478" on="1"/>
        <pt x="775" y="523" on="0"/>
        <pt x="825" y="615" on="0"/>
        <pt x="917" y="693" on="0"/>
        <pt x="1065" y="743" on="0"/>
        <pt x="1154" y="743" on="1"/>
        <pt x="1271" y="743" on="0"/>
        <pt x="1271" y="689" on="1"/>
        <pt x="1271" y="648" on="0"/>
        <pt x="1143" y="540" on="0"/>
        <pt x="920" y="448" on="0"/>
        <pt x="803" y="435" on="1"/>
        <pt x="808" y="407" on="0"/>
        <pt x="828" y="388" on="1"/>
        <pt x="894" y="399" on="0"/>
        <pt x="1027" y="399" on="0"/>
        <pt x="1027" y="378" on="1"/>
        <pt x="1027" y="365" on="0"/>
        <pt x="975" y="341" on="0"/>
        <pt x="942" y="341" on="1"/>
        <pt x="866" y="341" on="0"/>
        <pt x="823" y="375" on="1"/>
        <pt x="656" y="343" on="0"/>
      </contour>
    </TTGlyph>
    <TTGlyph name="Eth" xMin="-4" yMin="-87" xMax="1593" yMax="889">
      <contour>
        <pt x="23" y="49" on="0"/>
        <pt x="23" y="-7" on="0"/>
        <pt x="126" y="-60" on="0"/>
        <pt x="287" y="-60" on="0"/>
        <pt x="382" y="-14" on="1"/>
        <pt x="357" y="-8" on="0"/>
        <pt x="289" y="12" on="1"/>
        <pt x="158" y="49" on="0"/>
      </contour>
      <contour>
        <pt x="491" y="453" on="1"/>
        <pt x="491" y="395" on="0"/>
        <pt x="581" y="395" on="1"/>
        <pt x="627" y="395" on="0"/>
        <pt x="743" y="447" on="0"/>
        <pt x="847" y="531" on="0"/>
        <pt x="918" y="657" on="0"/>
        <pt x="918" y="723" on="1"/>
        <pt x="918" y="744" on="0"/>
        <pt x="913" y="764" on="1"/>
        <pt x="835" y="752" on="0"/>
        <pt x="676" y="678" on="0"/>
        <pt x="563" y="586" on="0"/>
        <pt x="491" y="488" on="0"/>
      </contour>
      <contour>
        <pt x="458" y="-9" on="1"/>
        <pt x="520" y="-21" on="0"/>
        <pt x="564" y="-21" on="1"/>
        <pt x="654" y="-21" on="0"/>
        <pt x="835" y="33" on="0"/>
        <pt x="985" y="124" on="0"/>
        <pt x="1116" y="244" on="0"/>
        <pt x="1161" y="308" on="1"/>
        <pt x="1258" y="448" on="0"/>
        <pt x="1258" y="564" on="1"/>
        <pt x="1258" y="626" on="0"/>
        <pt x="1228" y="673" on="1"/>
        <pt x="1174" y="632" on="0"/>
        <pt x="1057" y="521" on="0"/>
        <pt x="876" y="333" on="0"/>
        <pt x="842" y="299" on="1"/>
        <pt x="1010" y="299" on="1"/>
        <pt x="1013" y="299" on="0"/>
        <pt x="1013" y="295" on="1"/>
        <pt x="1013" y="283" on="0"/>
        <pt x="1004" y="283" on="1"/>
        <pt x="825" y="283" on="1"/>
        <pt x="618" y="76" on="0"/>
      </contour>
      <contour>
        <pt x="748" y="873" on="1"/>
        <pt x="645" y="873" on="0"/>
        <pt x="385" y="763" on="0"/>
        <pt x="319" y="697" on="1"/>
        <pt x="306" y="705" on="1"/>
        <pt x="397" y="783" on="0"/>
        <pt x="653" y="889" on="0"/>
        <pt x="757" y="889" on="1"/>
        <pt x="899" y="889" on="0"/>
        <pt x="929" y="786" on="1"/>
        <pt x="961" y="789" on="0"/>
        <pt x="993" y="789" on="1"/>
        <pt x="1149" y="789" on="0"/>
        <pt x="1228" y="702" on="1"/>
        <pt x="1353" y="779" on="0"/>
        <pt x="1458" y="779" on="1"/>
        <pt x="1521" y="779" on="0"/>
        <pt x="1593" y="723" on="0"/>
        <pt x="1593" y="640" on="0"/>
        <pt x="1528" y="560" on="0"/>
        <pt x="1465" y="531" on="1"/>
        <pt x="1463" y="542" on="1"/>
        <pt x="1513" y="562" on="0"/>
        <pt x="1574" y="640" on="0"/>
        <pt x="1574" y="717" on="0"/>
        <pt x="1509" y="766" on="0"/>
        <pt x="1444" y="766" on="1"/>
        <pt x="1354" y="766" on="0"/>
        <pt x="1243" y="684" on="1"/>
        <pt x="1287" y="622" on="0"/>
        <pt x="1287" y="462" on="0"/>
        <pt x="1224" y="304" on="0"/>
        <pt x="1096" y="154" on="0"/>
        <pt x="922" y="35" on="0"/>
        <pt x="679" y="-38" on="0"/>
        <pt x="544" y="-38" on="1"/>
        <pt x="489" y="-38" on="0"/>
        <pt x="427" y="-25" on="1"/>
        <pt x="298" y="-87" on="0"/>
        <pt x="175" y="-87" on="1"/>
        <pt x="101" y="-87" on="0"/>
        <pt x="-4" y="-22" on="0"/>
        <pt x="-4" y="13" on="1"/>
        <pt x="-4" y="36" on="0"/>
        <pt x="47" y="64" on="0"/>
        <pt x="145" y="64" on="0"/>
        <pt x="241" y="46" on="0"/>
        <pt x="392" y="5" on="0"/>
        <pt x="412" y="0" on="1"/>
        <pt x="549" y="74" on="0"/>
        <pt x="761" y="282" on="1"/>
        <pt x="607" y="282" on="1"/>
        <pt x="593" y="282" on="0"/>
        <pt x="593" y="299" on="0"/>
        <pt x="601" y="299" on="1"/>
        <pt x="777" y="299" on="1"/>
        <pt x="793" y="315" on="0"/>
        <pt x="928" y="451" on="0"/>
        <pt x="982" y="503" on="0"/>
        <pt x="1035" y="552" on="1"/>
        <pt x="1123" y="633" on="0"/>
        <pt x="1212" y="692" on="1"/>
        <pt x="1142" y="770" on="0"/>
        <pt x="982" y="770" on="1"/>
        <pt x="957" y="770" on="0"/>
        <pt x="933" y="767" on="1"/>
        <pt x="936" y="752" on="0"/>
        <pt x="936" y="734" on="1"/>
        <pt x="936" y="661" on="0"/>
        <pt x="860" y="523" on="0"/>
        <pt x="748" y="429" on="0"/>
        <pt x="623" y="373" on="0"/>
        <pt x="527" y="373" on="0"/>
        <pt x="479" y="420" on="0"/>
        <pt x="479" y="503" on="0"/>
        <pt x="536" y="604" on="0"/>
        <pt x="639" y="700" on="0"/>
        <pt x="808" y="773" on="0"/>
        <pt x="908" y="784" on="1"/>
        <pt x="876" y="873" on="0"/>
      </contour>
    </TTGlyph>
    <TTGlyph name="Euro" xMin="-126" yMin="-75" xMax="650" yMax="517">
      <contour>
        <pt x="287" y="-16" on="1"/>
        <pt x="355" y="-16" on="0"/>
        <pt x="459" y="46" on="0"/>
        <pt x="459" y="98" on="1"/>
        <pt x="459" y="140" on="0"/>
        <pt x="387" y="140" on="1"/>
        <pt x="354" y="140" on="0"/>
        <pt x="307" y="121" on="0"/>
        <pt x="281" y="109" on="0"/>
        <pt x="239" y="84" on="0"/>
        <pt x="218" y="71" on="0"/>
        <pt x="169" y="39" on="0"/>
        <pt x="159" y="33" on="1"/>
        <pt x="198" y="-16" on="0"/>
      </contour>
      <contour>
        <pt x="386" y="339" on="1"/>
        <pt x="478" y="339" on="0"/>
        <pt x="632" y="413" on="0"/>
        <pt x="632" y="465" on="1"/>
        <pt x="632" y="506" on="0"/>
        <pt x="504" y="506" on="0"/>
        <pt x="355" y="421" on="0"/>
        <pt x="287" y="354" on="1"/>
        <pt x="328" y="339" on="0"/>
      </contour>
      <contour>
        <pt x="394" y="277" on="1"/>
        <pt x="384" y="263" on="1"/>
        <pt x="210" y="263" on="1"/>
        <pt x="194" y="239" on="0"/>
        <pt x="187" y="227" on="1"/>
        <pt x="373" y="227" on="1"/>
        <pt x="363" y="213" on="1"/>
        <pt x="179" y="213" on="1"/>
        <pt x="140" y="144" on="0"/>
        <pt x="140" y="90" on="1"/>
        <pt x="140" y="67" on="0"/>
        <pt x="149" y="49" on="1"/>
        <pt x="203" y="82" on="0"/>
        <pt x="270" y="118" on="0"/>
        <pt x="362" y="151" on="0"/>
        <pt x="399" y="151" on="1"/>
        <pt x="479" y="151" on="0"/>
        <pt x="479" y="103" on="1"/>
        <pt x="479" y="43" on="0"/>
        <pt x="361" y="-26" on="0"/>
        <pt x="189" y="-26" on="0"/>
        <pt x="139" y="20" on="1"/>
        <pt x="-12" y="-75" on="0"/>
        <pt x="-126" y="-75" on="1"/>
        <pt x="-122" y="-66" on="1"/>
        <pt x="-86" y="-66" on="0"/>
        <pt x="6" y="-33" on="0"/>
        <pt x="70" y="2" on="0"/>
        <pt x="125" y="35" on="1"/>
        <pt x="104" y="62" on="0"/>
        <pt x="104" y="151" on="0"/>
        <pt x="135" y="213" on="1"/>
        <pt x="55" y="213" on="1"/>
        <pt x="67" y="227" on="1"/>
        <pt x="143" y="227" on="1"/>
        <pt x="157" y="251" on="0"/>
        <pt x="165" y="263" on="1"/>
        <pt x="76" y="263" on="1"/>
        <pt x="88" y="277" on="1"/>
        <pt x="175" y="277" on="1"/>
        <pt x="209" y="323" on="0"/>
        <pt x="247" y="359" on="1"/>
        <pt x="216" y="378" on="0"/>
        <pt x="198" y="405" on="1"/>
        <pt x="211" y="412" on="1"/>
        <pt x="226" y="387" on="0"/>
        <pt x="256" y="369" on="1"/>
        <pt x="327" y="436" on="0"/>
        <pt x="493" y="517" on="0"/>
        <pt x="650" y="517" on="0"/>
        <pt x="650" y="468" on="1"/>
        <pt x="650" y="407" on="0"/>
        <pt x="493" y="321" on="0"/>
        <pt x="395" y="321" on="1"/>
        <pt x="330" y="321" on="0"/>
        <pt x="277" y="343" on="1"/>
        <pt x="245" y="310" on="0"/>
        <pt x="220" y="277" on="1"/>
      </contour>
    </TTGlyph>
    <TTGlyph name="F" xMin="1" yMin="-45" xMax="1878" yMax="915">
      <contour>
        <pt x="1036" y="213" on="0"/>
        <pt x="1086" y="252" on="0"/>
        <pt x="1086" y="275" on="0"/>
        <pt x="1078" y="275" on="1"/>
        <pt x="1057" y="275" on="0"/>
        <pt x="986" y="200" on="1"/>
      </contour>
      <contour>
        <pt x="283" y="231" on="1"/>
        <pt x="327" y="235" on="0"/>
        <pt x="435" y="234" on="0"/>
        <pt x="545" y="218" on="1"/>
        <pt x="571" y="265" on="0"/>
        <pt x="571" y="301" on="1"/>
        <pt x="571" y="361" on="0"/>
        <pt x="497" y="361" on="1"/>
        <pt x="436" y="361" on="0"/>
        <pt x="322" y="288" on="0"/>
      </contour>
      <contour>
        <pt x="21" y="43" on="1"/>
        <pt x="21" y="8" on="0"/>
        <pt x="79" y="-35" on="0"/>
        <pt x="198" y="-35" on="0"/>
        <pt x="268" y="-10" on="1"/>
        <pt x="221" y="26" on="0"/>
        <pt x="221" y="152" on="0"/>
        <pt x="259" y="217" on="1"/>
        <pt x="149" y="201" on="0"/>
        <pt x="21" y="97" on="0"/>
      </contour>
      <contour>
        <pt x="537" y="206" on="1"/>
        <pt x="414" y="223" on="0"/>
        <pt x="318" y="223" on="0"/>
        <pt x="274" y="219" on="1"/>
        <pt x="234" y="153" on="0"/>
        <pt x="234" y="27" on="0"/>
        <pt x="282" y="-5" on="1"/>
        <pt x="363" y="27" on="0"/>
        <pt x="499" y="144" on="0"/>
      </contour>
      <contour>
        <pt x="569" y="201" on="1"/>
        <pt x="528" y="138" on="0"/>
        <pt x="380" y="20" on="0"/>
        <pt x="294" y="-12" on="1"/>
        <pt x="335" y="-34" on="0"/>
        <pt x="398" y="-34" on="1"/>
        <pt x="491" y="-34" on="0"/>
        <pt x="671" y="76" on="0"/>
        <pt x="771" y="177" on="1"/>
        <pt x="683" y="183" on="0"/>
      </contour>
      <contour>
        <pt x="628" y="464" on="1"/>
        <pt x="628" y="402" on="0"/>
        <pt x="724" y="402" on="1"/>
        <pt x="788" y="402" on="0"/>
        <pt x="943" y="510" on="0"/>
        <pt x="1051" y="668" on="0"/>
        <pt x="1051" y="735" on="1"/>
        <pt x="1051" y="747" on="0"/>
        <pt x="1047" y="767" on="1"/>
        <pt x="953" y="764" on="0"/>
        <pt x="752" y="655" on="0"/>
        <pt x="628" y="515" on="0"/>
      </contour>
      <contour>
        <pt x="1504" y="855" on="1"/>
        <pt x="1624" y="915" on="0"/>
        <pt x="1731" y="915" on="1"/>
        <pt x="1802" y="915" on="0"/>
        <pt x="1878" y="868" on="0"/>
        <pt x="1878" y="833" on="1"/>
        <pt x="1878" y="779" on="0"/>
        <pt x="1720" y="689" on="0"/>
        <pt x="1586" y="689" on="1"/>
        <pt x="1510" y="689" on="0"/>
        <pt x="1129" y="767" on="0"/>
        <pt x="1062" y="768" on="1"/>
        <pt x="1065" y="753" on="0"/>
        <pt x="1065" y="738" on="1"/>
        <pt x="1065" y="667" on="0"/>
        <pt x="956" y="503" on="0"/>
        <pt x="790" y="390" on="0"/>
        <pt x="715" y="390" on="1"/>
        <pt x="664" y="390" on="0"/>
        <pt x="612" y="435" on="0"/>
        <pt x="612" y="515" on="0"/>
        <pt x="673" y="614" on="0"/>
        <pt x="780" y="705" on="0"/>
        <pt x="948" y="772" on="0"/>
        <pt x="1043" y="778" on="1"/>
        <pt x="1009" y="869" on="0"/>
        <pt x="831" y="869" on="1"/>
        <pt x="781" y="869" on="0"/>
        <pt x="670" y="835" on="0"/>
        <pt x="626" y="810" on="1"/>
        <pt x="537" y="761" on="0"/>
        <pt x="488" y="720" on="1"/>
        <pt x="467" y="703" on="1"/>
        <pt x="461" y="715" on="1"/>
        <pt x="478" y="732" on="0"/>
        <pt x="578" y="802" on="0"/>
        <pt x="663" y="846" on="0"/>
        <pt x="785" y="882" on="0"/>
        <pt x="842" y="882" on="1"/>
        <pt x="1026" y="882" on="0"/>
        <pt x="1059" y="779" on="1"/>
        <pt x="1072" y="780" on="0"/>
        <pt x="1087" y="780" on="1"/>
        <pt x="1177" y="780" on="0"/>
        <pt x="1541" y="713" on="0"/>
        <pt x="1603" y="713" on="1"/>
        <pt x="1720" y="713" on="0"/>
        <pt x="1863" y="785" on="0"/>
        <pt x="1863" y="828" on="1"/>
        <pt x="1863" y="857" on="0"/>
        <pt x="1790" y="894" on="0"/>
        <pt x="1629" y="894" on="0"/>
        <pt x="1511" y="845" on="1"/>
      </contour>
      <contour>
        <pt x="782" y="188" on="1"/>
        <pt x="825" y="232" on="0"/>
        <pt x="970" y="394" on="0"/>
        <pt x="1072" y="501" on="0"/>
        <pt x="1138" y="560" on="1"/>
        <pt x="1271" y="680" on="0"/>
        <pt x="1403" y="704" on="1"/>
        <pt x="1404" y="698" on="1"/>
        <pt x="1345" y="683" on="0"/>
        <pt x="1198" y="569" on="0"/>
        <pt x="1078" y="440" on="0"/>
        <pt x="897" y="245" on="0"/>
        <pt x="834" y="186" on="1"/>
        <pt x="847" y="186" on="1"/>
        <pt x="900" y="186" on="0"/>
        <pt x="941" y="192" on="1"/>
        <pt x="982" y="237" on="0"/>
        <pt x="1045" y="285" on="0"/>
        <pt x="1105" y="285" on="0"/>
        <pt x="1105" y="270" on="1"/>
        <pt x="1105" y="252" on="0"/>
        <pt x="1033" y="201" on="0"/>
        <pt x="974" y="186" on="1"/>
        <pt x="879" y="87" on="0"/>
        <pt x="846" y="87" on="1"/>
        <pt x="842" y="87" on="0"/>
        <pt x="842" y="89" on="1"/>
        <pt x="842" y="93" on="0"/>
        <pt x="852" y="99" on="1"/>
        <pt x="879" y="120" on="0"/>
        <pt x="929" y="178" on="1"/>
        <pt x="902" y="174" on="0"/>
        <pt x="836" y="174" on="0"/>
        <pt x="822" y="175" on="1"/>
        <pt x="587" y="-44" on="0"/>
        <pt x="392" y="-44" on="1"/>
        <pt x="322" y="-44" on="0"/>
        <pt x="279" y="-17" on="1"/>
        <pt x="198" y="-45" on="0"/>
        <pt x="67" y="-45" on="0"/>
        <pt x="1" y="7" on="0"/>
        <pt x="1" y="46" on="1"/>
        <pt x="1" y="105" on="0"/>
        <pt x="141" y="214" on="0"/>
        <pt x="267" y="229" on="1"/>
        <pt x="308" y="292" on="0"/>
        <pt x="434" y="373" on="0"/>
        <pt x="506" y="373" on="1"/>
        <pt x="607" y="373" on="0"/>
        <pt x="607" y="301" on="1"/>
        <pt x="607" y="263" on="0"/>
        <pt x="577" y="214" on="1"/>
        <pt x="739" y="190" on="0"/>
      </contour>
    </TTGlyph>
    <TTGlyph name="G" xMin="1" yMin="-237" xMax="1190" yMax="1044">
      <contour>
        <pt x="304" y="219" on="1"/>
        <pt x="356" y="225" on="0"/>
        <pt x="497" y="225" on="0"/>
        <pt x="568" y="212" on="1"/>
        <pt x="591" y="253" on="0"/>
        <pt x="591" y="285" on="1"/>
        <pt x="591" y="348" on="0"/>
        <pt x="507" y="348" on="1"/>
        <pt x="455" y="348" on="0"/>
        <pt x="346" y="276" on="0"/>
      </contour>
      <contour>
        <pt x="24" y="42" on="1"/>
        <pt x="24" y="6" on="0"/>
        <pt x="95" y="-41" on="0"/>
        <pt x="197" y="-41" on="0"/>
        <pt x="242" y="-31" on="1"/>
        <pt x="215" y="-1" on="0"/>
        <pt x="215" y="47" on="1"/>
        <pt x="215" y="121" on="0"/>
        <pt x="271" y="203" on="1"/>
        <pt x="153" y="185" on="0"/>
        <pt x="24" y="91" on="0"/>
      </contour>
      <contour>
        <pt x="595" y="191" on="1"/>
        <pt x="555" y="119" on="0"/>
        <pt x="386" y="-8" on="0"/>
        <pt x="279" y="-35" on="1"/>
        <pt x="312" y="-57" on="0"/>
        <pt x="447" y="-57" on="0"/>
        <pt x="650" y="38" on="0"/>
        <pt x="716" y="98" on="1"/>
        <pt x="740" y="119" on="1"/>
        <pt x="690" y="166" on="0"/>
      </contour>
      <contour>
        <pt x="561" y="199" on="1"/>
        <pt x="489" y="213" on="0"/>
        <pt x="343" y="213" on="0"/>
        <pt x="295" y="207" on="1"/>
        <pt x="237" y="121" on="0"/>
        <pt x="237" y="50" on="1"/>
        <pt x="237" y="3" on="0"/>
        <pt x="266" y="-25" on="1"/>
        <pt x="358" y="2" on="0"/>
        <pt x="519" y="130" on="0"/>
      </contour>
      <contour>
        <pt x="441" y="622" on="1"/>
        <pt x="521" y="622" on="0"/>
        <pt x="679" y="668" on="0"/>
        <pt x="790" y="734" on="0"/>
        <pt x="860" y="809" on="0"/>
        <pt x="860" y="839" on="1"/>
        <pt x="860" y="893" on="0"/>
        <pt x="753" y="893" on="1"/>
        <pt x="626" y="893" on="0"/>
        <pt x="421" y="727" on="0"/>
        <pt x="395" y="624" on="1"/>
        <pt x="409" y="622" on="0"/>
      </contour>
      <contour>
        <pt x="1164" y="698" on="1"/>
        <pt x="1164" y="747" on="0"/>
        <pt x="1071" y="747" on="1"/>
        <pt x="996" y="747" on="0"/>
        <pt x="815" y="637" on="0"/>
        <pt x="680" y="481" on="0"/>
        <pt x="660" y="413" on="1"/>
        <pt x="750" y="420" on="0"/>
        <pt x="939" y="486" on="0"/>
        <pt x="1076" y="573" on="0"/>
        <pt x="1164" y="665" on="0"/>
      </contour>
      <contour>
        <pt x="1090" y="425" on="1"/>
        <pt x="1095" y="423" on="0"/>
        <pt x="1095" y="418" on="1"/>
        <pt x="1095" y="416" on="1"/>
        <pt x="1088" y="410" on="0"/>
        <pt x="1079" y="403" on="1"/>
        <pt x="1061" y="385" on="0"/>
        <pt x="1032" y="364" on="1"/>
        <pt x="994" y="334" on="0"/>
        <pt x="949" y="289" on="0"/>
        <pt x="818" y="132" on="0"/>
        <pt x="780" y="97" on="1"/>
        <pt x="804" y="60" on="0"/>
        <pt x="804" y="19" on="1"/>
        <pt x="804" y="-61" on="0"/>
        <pt x="630" y="-205" on="0"/>
        <pt x="471" y="-237" on="1"/>
        <pt x="470" y="-224" on="1"/>
        <pt x="623" y="-190" on="0"/>
        <pt x="789" y="-56" on="0"/>
        <pt x="789" y="18" on="1"/>
        <pt x="789" y="54" on="0"/>
        <pt x="768" y="86" on="1"/>
        <pt x="689" y="20" on="0"/>
        <pt x="450" y="-72" on="0"/>
        <pt x="291" y="-72" on="0"/>
        <pt x="252" y="-41" on="1"/>
        <pt x="200" y="-52" on="0"/>
        <pt x="79" y="-52" on="0"/>
        <pt x="1" y="1" on="0"/>
        <pt x="1" y="41" on="1"/>
        <pt x="1" y="96" on="0"/>
        <pt x="145" y="197" on="0"/>
        <pt x="280" y="216" on="1"/>
        <pt x="325" y="279" on="0"/>
        <pt x="451" y="359" on="0"/>
        <pt x="510" y="359" on="1"/>
        <pt x="622" y="359" on="0"/>
        <pt x="622" y="278" on="1"/>
        <pt x="622" y="246" on="0"/>
        <pt x="602" y="204" on="1"/>
        <pt x="699" y="179" on="0"/>
        <pt x="751" y="130" on="1"/>
        <pt x="904" y="268" on="0"/>
        <pt x="945" y="310" on="0"/>
        <pt x="953" y="317" on="1"/>
        <pt x="863" y="274" on="0"/>
        <pt x="707" y="274" on="0"/>
        <pt x="637" y="341" on="0"/>
        <pt x="635" y="396" on="1"/>
        <pt x="625" y="395" on="0"/>
        <pt x="606" y="395" on="1"/>
        <pt x="486" y="395" on="0"/>
        <pt x="368" y="492" on="0"/>
        <pt x="368" y="569" on="1"/>
        <pt x="368" y="594" on="0"/>
        <pt x="372" y="614" on="1"/>
        <pt x="279" y="624" on="0"/>
        <pt x="187" y="707" on="0"/>
        <pt x="187" y="766" on="1"/>
        <pt x="187" y="852" on="0"/>
        <pt x="356" y="1019" on="0"/>
        <pt x="484" y="1044" on="1"/>
        <pt x="487" y="1029" on="1"/>
        <pt x="375" y="1010" on="0"/>
        <pt x="221" y="852" on="0"/>
        <pt x="221" y="769" on="1"/>
        <pt x="221" y="715" on="0"/>
        <pt x="298" y="638" on="0"/>
        <pt x="376" y="626" on="1"/>
        <pt x="404" y="737" on="0"/>
        <pt x="621" y="913" on="0"/>
        <pt x="759" y="913" on="1"/>
        <pt x="877" y="913" on="0"/>
        <pt x="877" y="845" on="1"/>
        <pt x="877" y="811" on="0"/>
        <pt x="810" y="731" on="0"/>
        <pt x="697" y="659" on="0"/>
        <pt x="526" y="611" on="0"/>
        <pt x="433" y="611" on="1"/>
        <pt x="405" y="611" on="0"/>
        <pt x="392" y="612" on="1"/>
        <pt x="388" y="595" on="0"/>
        <pt x="388" y="573" on="1"/>
        <pt x="388" y="501" on="0"/>
        <pt x="501" y="411" on="0"/>
        <pt x="617" y="411" on="1"/>
        <pt x="635" y="411" on="1"/>
        <pt x="639" y="505" on="0"/>
        <pt x="718" y="597" on="1"/>
        <pt x="806" y="699" on="0"/>
        <pt x="932" y="740" on="1"/>
        <pt x="1003" y="762" on="0"/>
        <pt x="1080" y="762" on="1"/>
        <pt x="1190" y="762" on="0"/>
        <pt x="1190" y="705" on="1"/>
        <pt x="1190" y="656" on="0"/>
        <pt x="1038" y="521" on="0"/>
        <pt x="783" y="408" on="0"/>
        <pt x="657" y="397" on="1"/>
        <pt x="654" y="383" on="0"/>
        <pt x="654" y="372" on="1"/>
        <pt x="654" y="285" on="0"/>
        <pt x="781" y="285" on="1"/>
        <pt x="829" y="285" on="0"/>
        <pt x="939" y="323" on="0"/>
        <pt x="970" y="342" on="1"/>
        <pt x="1001" y="361" on="1"/>
        <pt x="1076" y="425" on="0"/>
      </contour>
    </TTGlyph>
    <TTGlyph name="H" xMin="0" yMin="-220" xMax="1429" yMax="1006">
      <contour>
        <pt x="11" y="29" on="1"/>
        <pt x="11" y="-8" on="0"/>
        <pt x="95" y="-8" on="0"/>
        <pt x="226" y="60" on="0"/>
        <pt x="359" y="183" on="0"/>
        <pt x="423" y="248" on="1"/>
        <pt x="209" y="175" on="0"/>
        <pt x="11" y="80" on="0"/>
      </contour>
      <contour>
        <pt x="1393" y="789" on="1"/>
        <pt x="1307" y="789" on="0"/>
        <pt x="1006" y="570" on="0"/>
        <pt x="870" y="419" on="1"/>
        <pt x="1091" y="506" on="0"/>
        <pt x="1414" y="715" on="0"/>
        <pt x="1414" y="773" on="1"/>
        <pt x="1414" y="789" on="0"/>
      </contour>
      <contour>
        <pt x="772" y="-39" on="1"/>
        <pt x="782" y="-39" on="1"/>
        <pt x="841" y="-39" on="0"/>
        <pt x="949" y="17" on="0"/>
        <pt x="1018" y="99" on="0"/>
        <pt x="1058" y="185" on="0"/>
        <pt x="1058" y="218" on="1"/>
        <pt x="1058" y="268" on="0"/>
        <pt x="1011" y="268" on="1"/>
        <pt x="941" y="268" on="0"/>
        <pt x="772" y="85" on="0"/>
        <pt x="772" y="-33" on="1"/>
      </contour>
      <contour>
        <pt x="278" y="577" on="1"/>
        <pt x="303" y="577" on="1"/>
        <pt x="392" y="577" on="0"/>
        <pt x="555" y="620" on="0"/>
        <pt x="663" y="685" on="0"/>
        <pt x="726" y="759" on="0"/>
        <pt x="726" y="819" on="0"/>
        <pt x="668" y="854" on="0"/>
        <pt x="610" y="854" on="1"/>
        <pt x="492" y="854" on="0"/>
        <pt x="293" y="674" on="0"/>
      </contour>
      <contour>
        <pt x="439" y="1006" on="1"/>
        <pt x="442" y="994" on="1"/>
        <pt x="287" y="973" on="0"/>
        <pt x="84" y="801" on="0"/>
        <pt x="84" y="713" on="1"/>
        <pt x="84" y="662" on="0"/>
        <pt x="164" y="590" on="0"/>
        <pt x="244" y="580" on="1"/>
        <pt x="248" y="629" on="0"/>
        <pt x="307" y="731" on="0"/>
        <pt x="402" y="817" on="0"/>
        <pt x="542" y="872" on="0"/>
        <pt x="681" y="872" on="0"/>
        <pt x="744" y="830" on="0"/>
        <pt x="744" y="761" on="0"/>
        <pt x="680" y="681" on="0"/>
        <pt x="569" y="611" on="0"/>
        <pt x="395" y="564" on="0"/>
        <pt x="297" y="564" on="1"/>
        <pt x="276" y="564" on="1"/>
        <pt x="276" y="552" on="1"/>
        <pt x="276" y="500" on="0"/>
        <pt x="350" y="437" on="0"/>
        <pt x="487" y="437" on="0"/>
        <pt x="653" y="504" on="0"/>
        <pt x="742" y="574" on="1"/>
        <pt x="888" y="710" on="0"/>
        <pt x="1000" y="762" on="1"/>
        <pt x="1042" y="781" on="0"/>
        <pt x="1056" y="782" on="1"/>
        <pt x="1058" y="775" on="1"/>
        <pt x="972" y="737" on="0"/>
        <pt x="903" y="681" on="1"/>
        <pt x="834" y="623" on="0"/>
        <pt x="726" y="511" on="1"/>
        <pt x="541" y="309" on="1"/>
        <pt x="525" y="293" on="1"/>
        <pt x="625" y="328" on="0"/>
        <pt x="784" y="386" on="1"/>
        <pt x="918" y="554" on="0"/>
        <pt x="1267" y="802" on="0"/>
        <pt x="1395" y="802" on="1"/>
        <pt x="1429" y="802" on="0"/>
        <pt x="1429" y="778" on="1"/>
        <pt x="1429" y="711" on="0"/>
        <pt x="1088" y="491" on="0"/>
        <pt x="854" y="401" on="1"/>
        <pt x="765" y="298" on="0"/>
        <pt x="658" y="114" on="0"/>
        <pt x="658" y="53" on="1"/>
        <pt x="658" y="-31" on="0"/>
        <pt x="761" y="-38" on="1"/>
        <pt x="761" y="-25" on="1"/>
        <pt x="761" y="42" on="0"/>
        <pt x="814" y="161" on="0"/>
        <pt x="893" y="238" on="0"/>
        <pt x="981" y="283" on="0"/>
        <pt x="1054" y="283" on="0"/>
        <pt x="1095" y="244" on="0"/>
        <pt x="1095" y="170" on="0"/>
        <pt x="1046" y="81" on="0"/>
        <pt x="964" y="3" on="0"/>
        <pt x="843" y="-50" on="0"/>
        <pt x="778" y="-50" on="1"/>
        <pt x="772" y="-50" on="1"/>
        <pt x="777" y="-121" on="0"/>
        <pt x="870" y="-210" on="0"/>
        <pt x="959" y="-210" on="1"/>
        <pt x="991" y="-210" on="0"/>
        <pt x="1027" y="-198" on="1"/>
        <pt x="1035" y="-203" on="1"/>
        <pt x="1004" y="-220" on="0"/>
        <pt x="945" y="-220" on="1"/>
        <pt x="860" y="-220" on="0"/>
        <pt x="768" y="-125" on="0"/>
        <pt x="762" y="-49" on="1"/>
        <pt x="627" y="-43" on="0"/>
        <pt x="627" y="66" on="1"/>
        <pt x="627" y="183" on="0"/>
        <pt x="771" y="370" on="1"/>
        <pt x="610" y="312" on="0"/>
        <pt x="509" y="277" on="1"/>
        <pt x="396" y="161" on="1"/>
        <pt x="364" y="120" on="0"/>
        <pt x="133" y="-20" on="0"/>
        <pt x="50" y="-20" on="1"/>
        <pt x="0" y="-20" on="0"/>
        <pt x="0" y="20" on="1"/>
        <pt x="0" y="54" on="0"/>
        <pt x="46" y="110" on="0"/>
        <pt x="170" y="169" on="0"/>
        <pt x="260" y="202" on="0"/>
        <pt x="413" y="254" on="0"/>
        <pt x="438" y="263" on="1"/>
        <pt x="505" y="330" on="0"/>
        <pt x="616" y="448" on="1"/>
        <pt x="643" y="478" on="1"/>
        <pt x="660" y="497" on="0"/>
        <pt x="689" y="524" on="1"/>
        <pt x="538" y="426" on="0"/>
        <pt x="421" y="426" on="1"/>
        <pt x="332" y="426" on="0"/>
        <pt x="243" y="503" on="0"/>
        <pt x="243" y="565" on="1"/>
        <pt x="243" y="567" on="1"/>
        <pt x="157" y="576" on="0"/>
        <pt x="69" y="653" on="0"/>
        <pt x="69" y="708" on="1"/>
        <pt x="69" y="799" on="0"/>
        <pt x="276" y="979" on="0"/>
      </contour>
    </TTGlyph>
    <TTGlyph name="I" xMin="0" yMin="-36" xMax="1541" yMax="753">
      <contour>
        <pt x="1004" y="379" on="0"/>
        <pt x="1035" y="394" on="0"/>
        <pt x="1035" y="412" on="0"/>
        <pt x="1017" y="416" on="1"/>
        <pt x="1012" y="411" on="0"/>
        <pt x="986" y="383" on="0"/>
        <pt x="978" y="376" on="1"/>
      </contour>
      <contour>
        <pt x="915" y="375" on="1"/>
        <pt x="959" y="418" on="1"/>
        <pt x="900" y="417" on="0"/>
        <pt x="835" y="403" on="1"/>
        <pt x="860" y="381" on="0"/>
      </contour>
      <contour>
        <pt x="1526" y="722" on="1"/>
        <pt x="1526" y="740" on="0"/>
        <pt x="1487" y="740" on="1"/>
        <pt x="1390" y="740" on="0"/>
        <pt x="1282" y="664" on="1"/>
        <pt x="1403" y="672" on="0"/>
        <pt x="1448" y="679" on="1"/>
        <pt x="1526" y="692" on="0"/>
      </contour>
      <contour>
        <pt x="1212" y="641" on="1"/>
        <pt x="1013" y="624" on="0"/>
        <pt x="938" y="595" on="1"/>
        <pt x="852" y="562" on="0"/>
        <pt x="826" y="516" on="1"/>
        <pt x="811" y="489" on="0"/>
        <pt x="811" y="431" on="0"/>
        <pt x="824" y="414" on="1"/>
        <pt x="898" y="432" on="0"/>
        <pt x="974" y="433" on="1"/>
        <pt x="1121" y="576" on="0"/>
      </contour>
      <contour>
        <pt x="900" y="361" on="1"/>
        <pt x="840" y="367" on="0"/>
        <pt x="811" y="397" on="1"/>
        <pt x="668" y="358" on="0"/>
        <pt x="497" y="179" on="0"/>
        <pt x="497" y="95" on="1"/>
        <pt x="497" y="64" on="0"/>
        <pt x="509" y="42" on="1"/>
        <pt x="573" y="76" on="0"/>
        <pt x="719" y="189" on="0"/>
        <pt x="821" y="283" on="0"/>
      </contour>
      <contour>
        <pt x="45" y="131" on="0"/>
        <pt x="31" y="115" on="0"/>
        <pt x="20" y="115" on="0"/>
        <pt x="16" y="116" on="1"/>
        <pt x="12" y="116" on="0"/>
        <pt x="12" y="104" on="1"/>
        <pt x="12" y="58" on="0"/>
        <pt x="57" y="28" on="1"/>
        <pt x="132" y="-22" on="0"/>
        <pt x="272" y="-22" on="1"/>
        <pt x="379" y="-22" on="0"/>
        <pt x="496" y="35" on="1"/>
        <pt x="484" y="62" on="0"/>
        <pt x="484" y="95" on="1"/>
        <pt x="484" y="151" on="0"/>
        <pt x="552" y="270" on="0"/>
        <pt x="700" y="381" on="0"/>
        <pt x="801" y="409" on="1"/>
        <pt x="788" y="428" on="0"/>
        <pt x="788" y="488" on="0"/>
        <pt x="817" y="544" on="0"/>
        <pt x="864" y="584" on="0"/>
        <pt x="938" y="615" on="0"/>
        <pt x="1010" y="634" on="0"/>
        <pt x="1060" y="642" on="1"/>
        <pt x="1122" y="651" on="0"/>
        <pt x="1239" y="660" on="1"/>
        <pt x="1379" y="753" on="0"/>
        <pt x="1502" y="753" on="1"/>
        <pt x="1524" y="753" on="0"/>
        <pt x="1541" y="742" on="0"/>
        <pt x="1541" y="706" on="0"/>
        <pt x="1499" y="677" on="0"/>
        <pt x="1456" y="668" on="1"/>
        <pt x="1381" y="654" on="0"/>
        <pt x="1260" y="645" on="1"/>
        <pt x="1259" y="645" on="0"/>
        <pt x="1258" y="645" on="1"/>
        <pt x="1257" y="645" on="1"/>
        <pt x="1195" y="599" on="0"/>
        <pt x="1110" y="513" on="1"/>
        <pt x="1083" y="485" on="0"/>
        <pt x="1031" y="431" on="1"/>
        <pt x="1059" y="425" on="0"/>
        <pt x="1059" y="394" on="0"/>
        <pt x="1008" y="367" on="0"/>
        <pt x="965" y="362" on="1"/>
        <pt x="845" y="239" on="0"/>
        <pt x="638" y="70" on="0"/>
        <pt x="524" y="20" on="1"/>
        <pt x="572" y="-20" on="0"/>
        <pt x="639" y="-20" on="1"/>
        <pt x="742" y="-20" on="0"/>
        <pt x="893" y="80" on="1"/>
        <pt x="895" y="65" on="1"/>
        <pt x="750" y="-36" on="0"/>
        <pt x="637" y="-36" on="1"/>
        <pt x="597" y="-36" on="0"/>
        <pt x="534" y="-11" on="0"/>
        <pt x="522" y="2" on="1"/>
        <pt x="510" y="14" on="1"/>
        <pt x="386" y="-36" on="0"/>
        <pt x="261" y="-36" on="1"/>
        <pt x="189" y="-36" on="0"/>
        <pt x="106" y="-14" on="1"/>
        <pt x="59" y="-1" on="0"/>
        <pt x="0" y="57" on="0"/>
        <pt x="0" y="99" on="1"/>
        <pt x="0" y="123" on="0"/>
        <pt x="17" y="150" on="0"/>
        <pt x="26" y="152" on="1"/>
        <pt x="34" y="153" on="1"/>
        <pt x="45" y="152" on="0"/>
      </contour>
    </TTGlyph>
    <TTGlyph name="Iacute" xMin="0" yMin="-36" xMax="1626" yMax="874">
      <contour>
        <pt x="1610" y="846" on="1"/>
        <pt x="1472" y="789" on="1"/>
        <pt x="1468" y="799" on="1"/>
        <pt x="1493" y="814" on="0"/>
        <pt x="1612" y="874" on="0"/>
        <pt x="1626" y="874" on="0"/>
        <pt x="1626" y="851" on="0"/>
      </contour>
      <contour>
        <pt x="1004" y="379" on="0"/>
        <pt x="1035" y="394" on="0"/>
        <pt x="1035" y="412" on="0"/>
        <pt x="1017" y="416" on="1"/>
        <pt x="1012" y="411" on="0"/>
        <pt x="986" y="383" on="0"/>
        <pt x="978" y="376" on="1"/>
      </contour>
      <contour>
        <pt x="915" y="375" on="1"/>
        <pt x="959" y="418" on="1"/>
        <pt x="900" y="417" on="0"/>
        <pt x="835" y="403" on="1"/>
        <pt x="860" y="381" on="0"/>
      </contour>
      <contour>
        <pt x="1526" y="722" on="1"/>
        <pt x="1526" y="740" on="0"/>
        <pt x="1487" y="740" on="1"/>
        <pt x="1390" y="740" on="0"/>
        <pt x="1282" y="664" on="1"/>
        <pt x="1403" y="672" on="0"/>
        <pt x="1448" y="679" on="1"/>
        <pt x="1526" y="692" on="0"/>
      </contour>
      <contour>
        <pt x="1212" y="641" on="1"/>
        <pt x="1013" y="624" on="0"/>
        <pt x="938" y="595" on="1"/>
        <pt x="852" y="562" on="0"/>
        <pt x="826" y="516" on="1"/>
        <pt x="811" y="489" on="0"/>
        <pt x="811" y="431" on="0"/>
        <pt x="824" y="414" on="1"/>
        <pt x="898" y="432" on="0"/>
        <pt x="974" y="433" on="1"/>
        <pt x="1121" y="576" on="0"/>
      </contour>
      <contour>
        <pt x="900" y="361" on="1"/>
        <pt x="840" y="367" on="0"/>
        <pt x="811" y="397" on="1"/>
        <pt x="668" y="358" on="0"/>
        <pt x="497" y="179" on="0"/>
        <pt x="497" y="95" on="1"/>
        <pt x="497" y="64" on="0"/>
        <pt x="509" y="42" on="1"/>
        <pt x="573" y="76" on="0"/>
        <pt x="719" y="189" on="0"/>
        <pt x="821" y="283" on="0"/>
      </contour>
      <contour>
        <pt x="45" y="131" on="0"/>
        <pt x="31" y="115" on="0"/>
        <pt x="20" y="115" on="0"/>
        <pt x="16" y="116" on="1"/>
        <pt x="12" y="116" on="0"/>
        <pt x="12" y="104" on="1"/>
        <pt x="12" y="58" on="0"/>
        <pt x="57" y="28" on="1"/>
        <pt x="132" y="-22" on="0"/>
        <pt x="272" y="-22" on="1"/>
        <pt x="379" y="-22" on="0"/>
        <pt x="496" y="35" on="1"/>
        <pt x="484" y="62" on="0"/>
        <pt x="484" y="95" on="1"/>
        <pt x="484" y="151" on="0"/>
        <pt x="552" y="270" on="0"/>
        <pt x="700" y="381" on="0"/>
        <pt x="801" y="409" on="1"/>
        <pt x="788" y="428" on="0"/>
        <pt x="788" y="488" on="0"/>
        <pt x="817" y="544" on="0"/>
        <pt x="864" y="584" on="0"/>
        <pt x="938" y="615" on="0"/>
        <pt x="1010" y="634" on="0"/>
        <pt x="1060" y="642" on="1"/>
        <pt x="1122" y="651" on="0"/>
        <pt x="1239" y="660" on="1"/>
        <pt x="1379" y="753" on="0"/>
        <pt x="1502" y="753" on="1"/>
        <pt x="1524" y="753" on="0"/>
        <pt x="1541" y="742" on="0"/>
        <pt x="1541" y="706" on="0"/>
        <pt x="1499" y="677" on="0"/>
        <pt x="1456" y="668" on="1"/>
        <pt x="1381" y="654" on="0"/>
        <pt x="1260" y="645" on="1"/>
        <pt x="1259" y="645" on="0"/>
        <pt x="1258" y="645" on="1"/>
        <pt x="1257" y="645" on="1"/>
        <pt x="1195" y="599" on="0"/>
        <pt x="1110" y="513" on="1"/>
        <pt x="1083" y="485" on="0"/>
        <pt x="1031" y="431" on="1"/>
        <pt x="1059" y="425" on="0"/>
        <pt x="1059" y="394" on="0"/>
        <pt x="1008" y="367" on="0"/>
        <pt x="965" y="362" on="1"/>
        <pt x="845" y="239" on="0"/>
        <pt x="638" y="70" on="0"/>
        <pt x="524" y="20" on="1"/>
        <pt x="572" y="-20" on="0"/>
        <pt x="639" y="-20" on="1"/>
        <pt x="742" y="-20" on="0"/>
        <pt x="893" y="80" on="1"/>
        <pt x="895" y="65" on="1"/>
        <pt x="750" y="-36" on="0"/>
        <pt x="637" y="-36" on="1"/>
        <pt x="597" y="-36" on="0"/>
        <pt x="534" y="-11" on="0"/>
        <pt x="522" y="2" on="1"/>
        <pt x="510" y="14" on="1"/>
        <pt x="386" y="-36" on="0"/>
        <pt x="261" y="-36" on="1"/>
        <pt x="189" y="-36" on="0"/>
        <pt x="106" y="-14" on="1"/>
        <pt x="59" y="-1" on="0"/>
        <pt x="0" y="57" on="0"/>
        <pt x="0" y="99" on="1"/>
        <pt x="0" y="123" on="0"/>
        <pt x="17" y="150" on="0"/>
        <pt x="26" y="152" on="1"/>
        <pt x="34" y="153" on="1"/>
        <pt x="45" y="152" on="0"/>
      </contour>
    </TTGlyph>
    <TTGlyph name="Icircumflex" xMin="0" yMin="-36" xMax="1543" yMax="869">
      <contour>
        <pt x="1543" y="780" on="1"/>
        <pt x="1532" y="774" on="1"/>
        <pt x="1483" y="843" on="1"/>
        <pt x="1349" y="789" on="1"/>
        <pt x="1337" y="798" on="1"/>
        <pt x="1486" y="869" on="1"/>
        <pt x="1499" y="869" on="0"/>
        <pt x="1502" y="864" on="1"/>
      </contour>
      <contour>
        <pt x="1004" y="379" on="0"/>
        <pt x="1035" y="394" on="0"/>
        <pt x="1035" y="412" on="0"/>
        <pt x="1017" y="416" on="1"/>
        <pt x="1012" y="411" on="0"/>
        <pt x="986" y="383" on="0"/>
        <pt x="978" y="376" on="1"/>
      </contour>
      <contour>
        <pt x="915" y="375" on="1"/>
        <pt x="959" y="418" on="1"/>
        <pt x="900" y="417" on="0"/>
        <pt x="835" y="403" on="1"/>
        <pt x="860" y="381" on="0"/>
      </contour>
      <contour>
        <pt x="1526" y="722" on="1"/>
        <pt x="1526" y="740" on="0"/>
        <pt x="1487" y="740" on="1"/>
        <pt x="1390" y="740" on="0"/>
        <pt x="1282" y="664" on="1"/>
        <pt x="1403" y="672" on="0"/>
        <pt x="1448" y="679" on="1"/>
        <pt x="1526" y="692" on="0"/>
      </contour>
      <contour>
        <pt x="1212" y="641" on="1"/>
        <pt x="1013" y="624" on="0"/>
        <pt x="938" y="595" on="1"/>
        <pt x="852" y="562" on="0"/>
        <pt x="826" y="516" on="1"/>
        <pt x="811" y="489" on="0"/>
        <pt x="811" y="431" on="0"/>
        <pt x="824" y="414" on="1"/>
        <pt x="898" y="432" on="0"/>
        <pt x="974" y="433" on="1"/>
        <pt x="1121" y="576" on="0"/>
      </contour>
      <contour>
        <pt x="900" y="361" on="1"/>
        <pt x="840" y="367" on="0"/>
        <pt x="811" y="397" on="1"/>
        <pt x="668" y="358" on="0"/>
        <pt x="497" y="179" on="0"/>
        <pt x="497" y="95" on="1"/>
        <pt x="497" y="64" on="0"/>
        <pt x="509" y="42" on="1"/>
        <pt x="573" y="76" on="0"/>
        <pt x="719" y="189" on="0"/>
        <pt x="821" y="283" on="0"/>
      </contour>
      <contour>
        <pt x="45" y="131" on="0"/>
        <pt x="31" y="115" on="0"/>
        <pt x="20" y="115" on="0"/>
        <pt x="16" y="116" on="1"/>
        <pt x="12" y="116" on="0"/>
        <pt x="12" y="104" on="1"/>
        <pt x="12" y="58" on="0"/>
        <pt x="57" y="28" on="1"/>
        <pt x="132" y="-22" on="0"/>
        <pt x="272" y="-22" on="1"/>
        <pt x="379" y="-22" on="0"/>
        <pt x="496" y="35" on="1"/>
        <pt x="484" y="62" on="0"/>
        <pt x="484" y="95" on="1"/>
        <pt x="484" y="151" on="0"/>
        <pt x="552" y="270" on="0"/>
        <pt x="700" y="381" on="0"/>
        <pt x="801" y="409" on="1"/>
        <pt x="788" y="428" on="0"/>
        <pt x="788" y="488" on="0"/>
        <pt x="817" y="544" on="0"/>
        <pt x="864" y="584" on="0"/>
        <pt x="938" y="615" on="0"/>
        <pt x="1010" y="634" on="0"/>
        <pt x="1060" y="642" on="1"/>
        <pt x="1122" y="651" on="0"/>
        <pt x="1239" y="660" on="1"/>
        <pt x="1379" y="753" on="0"/>
        <pt x="1502" y="753" on="1"/>
        <pt x="1524" y="753" on="0"/>
        <pt x="1541" y="742" on="0"/>
        <pt x="1541" y="706" on="0"/>
        <pt x="1499" y="677" on="0"/>
        <pt x="1456" y="668" on="1"/>
        <pt x="1381" y="654" on="0"/>
        <pt x="1260" y="645" on="1"/>
        <pt x="1259" y="645" on="0"/>
        <pt x="1258" y="645" on="1"/>
        <pt x="1257" y="645" on="1"/>
        <pt x="1195" y="599" on="0"/>
        <pt x="1110" y="513" on="1"/>
        <pt x="1083" y="485" on="0"/>
        <pt x="1031" y="431" on="1"/>
        <pt x="1059" y="425" on="0"/>
        <pt x="1059" y="394" on="0"/>
        <pt x="1008" y="367" on="0"/>
        <pt x="965" y="362" on="1"/>
        <pt x="845" y="239" on="0"/>
        <pt x="638" y="70" on="0"/>
        <pt x="524" y="20" on="1"/>
        <pt x="572" y="-20" on="0"/>
        <pt x="639" y="-20" on="1"/>
        <pt x="742" y="-20" on="0"/>
        <pt x="893" y="80" on="1"/>
        <pt x="895" y="65" on="1"/>
        <pt x="750" y="-36" on="0"/>
        <pt x="637" y="-36" on="1"/>
        <pt x="597" y="-36" on="0"/>
        <pt x="534" y="-11" on="0"/>
        <pt x="522" y="2" on="1"/>
        <pt x="510" y="14" on="1"/>
        <pt x="386" y="-36" on="0"/>
        <pt x="261" y="-36" on="1"/>
        <pt x="189" y="-36" on="0"/>
        <pt x="106" y="-14" on="1"/>
        <pt x="59" y="-1" on="0"/>
        <pt x="0" y="57" on="0"/>
        <pt x="0" y="99" on="1"/>
        <pt x="0" y="123" on="0"/>
        <pt x="17" y="150" on="0"/>
        <pt x="26" y="152" on="1"/>
        <pt x="34" y="153" on="1"/>
        <pt x="45" y="152" on="0"/>
      </contour>
    </TTGlyph>
    <TTGlyph name="Idieresis" xMin="0" yMin="-36" xMax="1543" yMax="859">
      <contour>
        <pt x="1543" y="834" on="0"/>
        <pt x="1511" y="808" on="0"/>
        <pt x="1484" y="808" on="0"/>
        <pt x="1484" y="830" on="0"/>
        <pt x="1516" y="859" on="0"/>
        <pt x="1543" y="859" on="0"/>
        <pt x="1543" y="848" on="1"/>
      </contour>
      <contour>
        <pt x="1455" y="834" on="0"/>
        <pt x="1423" y="808" on="0"/>
        <pt x="1396" y="808" on="0"/>
        <pt x="1396" y="830" on="0"/>
        <pt x="1428" y="859" on="0"/>
        <pt x="1455" y="859" on="0"/>
        <pt x="1455" y="848" on="1"/>
      </contour>
      <contour>
        <pt x="1004" y="379" on="0"/>
        <pt x="1035" y="394" on="0"/>
        <pt x="1035" y="412" on="0"/>
        <pt x="1017" y="416" on="1"/>
        <pt x="1012" y="411" on="0"/>
        <pt x="986" y="383" on="0"/>
        <pt x="978" y="376" on="1"/>
      </contour>
      <contour>
        <pt x="915" y="375" on="1"/>
        <pt x="959" y="418" on="1"/>
        <pt x="900" y="417" on="0"/>
        <pt x="835" y="403" on="1"/>
        <pt x="860" y="381" on="0"/>
      </contour>
      <contour>
        <pt x="1526" y="722" on="1"/>
        <pt x="1526" y="740" on="0"/>
        <pt x="1487" y="740" on="1"/>
        <pt x="1390" y="740" on="0"/>
        <pt x="1282" y="664" on="1"/>
        <pt x="1403" y="672" on="0"/>
        <pt x="1448" y="679" on="1"/>
        <pt x="1526" y="692" on="0"/>
      </contour>
      <contour>
        <pt x="1212" y="641" on="1"/>
        <pt x="1013" y="624" on="0"/>
        <pt x="938" y="595" on="1"/>
        <pt x="852" y="562" on="0"/>
        <pt x="826" y="516" on="1"/>
        <pt x="811" y="489" on="0"/>
        <pt x="811" y="431" on="0"/>
        <pt x="824" y="414" on="1"/>
        <pt x="898" y="432" on="0"/>
        <pt x="974" y="433" on="1"/>
        <pt x="1121" y="576" on="0"/>
      </contour>
      <contour>
        <pt x="900" y="361" on="1"/>
        <pt x="840" y="367" on="0"/>
        <pt x="811" y="397" on="1"/>
        <pt x="668" y="358" on="0"/>
        <pt x="497" y="179" on="0"/>
        <pt x="497" y="95" on="1"/>
        <pt x="497" y="64" on="0"/>
        <pt x="509" y="42" on="1"/>
        <pt x="573" y="76" on="0"/>
        <pt x="719" y="189" on="0"/>
        <pt x="821" y="283" on="0"/>
      </contour>
      <contour>
        <pt x="45" y="131" on="0"/>
        <pt x="31" y="115" on="0"/>
        <pt x="20" y="115" on="0"/>
        <pt x="16" y="116" on="1"/>
        <pt x="12" y="116" on="0"/>
        <pt x="12" y="104" on="1"/>
        <pt x="12" y="58" on="0"/>
        <pt x="57" y="28" on="1"/>
        <pt x="132" y="-22" on="0"/>
        <pt x="272" y="-22" on="1"/>
        <pt x="379" y="-22" on="0"/>
        <pt x="496" y="35" on="1"/>
        <pt x="484" y="62" on="0"/>
        <pt x="484" y="95" on="1"/>
        <pt x="484" y="151" on="0"/>
        <pt x="552" y="270" on="0"/>
        <pt x="700" y="381" on="0"/>
        <pt x="801" y="409" on="1"/>
        <pt x="788" y="428" on="0"/>
        <pt x="788" y="488" on="0"/>
        <pt x="817" y="544" on="0"/>
        <pt x="864" y="584" on="0"/>
        <pt x="938" y="615" on="0"/>
        <pt x="1010" y="634" on="0"/>
        <pt x="1060" y="642" on="1"/>
        <pt x="1122" y="651" on="0"/>
        <pt x="1239" y="660" on="1"/>
        <pt x="1379" y="753" on="0"/>
        <pt x="1502" y="753" on="1"/>
        <pt x="1524" y="753" on="0"/>
        <pt x="1541" y="742" on="0"/>
        <pt x="1541" y="706" on="0"/>
        <pt x="1499" y="677" on="0"/>
        <pt x="1456" y="668" on="1"/>
        <pt x="1381" y="654" on="0"/>
        <pt x="1260" y="645" on="1"/>
        <pt x="1259" y="645" on="0"/>
        <pt x="1258" y="645" on="1"/>
        <pt x="1257" y="645" on="1"/>
        <pt x="1195" y="599" on="0"/>
        <pt x="1110" y="513" on="1"/>
        <pt x="1083" y="485" on="0"/>
        <pt x="1031" y="431" on="1"/>
        <pt x="1059" y="425" on="0"/>
        <pt x="1059" y="394" on="0"/>
        <pt x="1008" y="367" on="0"/>
        <pt x="965" y="362" on="1"/>
        <pt x="845" y="239" on="0"/>
        <pt x="638" y="70" on="0"/>
        <pt x="524" y="20" on="1"/>
        <pt x="572" y="-20" on="0"/>
        <pt x="639" y="-20" on="1"/>
        <pt x="742" y="-20" on="0"/>
        <pt x="893" y="80" on="1"/>
        <pt x="895" y="65" on="1"/>
        <pt x="750" y="-36" on="0"/>
        <pt x="637" y="-36" on="1"/>
        <pt x="597" y="-36" on="0"/>
        <pt x="534" y="-11" on="0"/>
        <pt x="522" y="2" on="1"/>
        <pt x="510" y="14" on="1"/>
        <pt x="386" y="-36" on="0"/>
        <pt x="261" y="-36" on="1"/>
        <pt x="189" y="-36" on="0"/>
        <pt x="106" y="-14" on="1"/>
        <pt x="59" y="-1" on="0"/>
        <pt x="0" y="57" on="0"/>
        <pt x="0" y="99" on="1"/>
        <pt x="0" y="123" on="0"/>
        <pt x="17" y="150" on="0"/>
        <pt x="26" y="152" on="1"/>
        <pt x="34" y="153" on="1"/>
        <pt x="45" y="152" on="0"/>
      </contour>
    </TTGlyph>
    <TTGlyph name="Igrave" xMin="0" yMin="-36" xMax="1568" yMax="879">
      <contour>
        <pt x="1564" y="794" on="1"/>
        <pt x="1426" y="851" on="1"/>
        <pt x="1410" y="856" on="0"/>
        <pt x="1410" y="879" on="0"/>
        <pt x="1424" y="879" on="0"/>
        <pt x="1543" y="819" on="0"/>
        <pt x="1568" y="804" on="1"/>
      </contour>
      <contour>
        <pt x="1004" y="379" on="0"/>
        <pt x="1035" y="394" on="0"/>
        <pt x="1035" y="412" on="0"/>
        <pt x="1017" y="416" on="1"/>
        <pt x="1012" y="411" on="0"/>
        <pt x="986" y="383" on="0"/>
        <pt x="978" y="376" on="1"/>
      </contour>
      <contour>
        <pt x="915" y="375" on="1"/>
        <pt x="959" y="418" on="1"/>
        <pt x="900" y="417" on="0"/>
        <pt x="835" y="403" on="1"/>
        <pt x="860" y="381" on="0"/>
      </contour>
      <contour>
        <pt x="1526" y="722" on="1"/>
        <pt x="1526" y="740" on="0"/>
        <pt x="1487" y="740" on="1"/>
        <pt x="1390" y="740" on="0"/>
        <pt x="1282" y="664" on="1"/>
        <pt x="1403" y="672" on="0"/>
        <pt x="1448" y="679" on="1"/>
        <pt x="1526" y="692" on="0"/>
      </contour>
      <contour>
        <pt x="1212" y="641" on="1"/>
        <pt x="1013" y="624" on="0"/>
        <pt x="938" y="595" on="1"/>
        <pt x="852" y="562" on="0"/>
        <pt x="826" y="516" on="1"/>
        <pt x="811" y="489" on="0"/>
        <pt x="811" y="431" on="0"/>
        <pt x="824" y="414" on="1"/>
        <pt x="898" y="432" on="0"/>
        <pt x="974" y="433" on="1"/>
        <pt x="1121" y="576" on="0"/>
      </contour>
      <contour>
        <pt x="900" y="361" on="1"/>
        <pt x="840" y="367" on="0"/>
        <pt x="811" y="397" on="1"/>
        <pt x="668" y="358" on="0"/>
        <pt x="497" y="179" on="0"/>
        <pt x="497" y="95" on="1"/>
        <pt x="497" y="64" on="0"/>
        <pt x="509" y="42" on="1"/>
        <pt x="573" y="76" on="0"/>
        <pt x="719" y="189" on="0"/>
        <pt x="821" y="283" on="0"/>
      </contour>
      <contour>
        <pt x="45" y="131" on="0"/>
        <pt x="31" y="115" on="0"/>
        <pt x="20" y="115" on="0"/>
        <pt x="16" y="116" on="1"/>
        <pt x="12" y="116" on="0"/>
        <pt x="12" y="104" on="1"/>
        <pt x="12" y="58" on="0"/>
        <pt x="57" y="28" on="1"/>
        <pt x="132" y="-22" on="0"/>
        <pt x="272" y="-22" on="1"/>
        <pt x="379" y="-22" on="0"/>
        <pt x="496" y="35" on="1"/>
        <pt x="484" y="62" on="0"/>
        <pt x="484" y="95" on="1"/>
        <pt x="484" y="151" on="0"/>
        <pt x="552" y="270" on="0"/>
        <pt x="700" y="381" on="0"/>
        <pt x="801" y="409" on="1"/>
        <pt x="788" y="428" on="0"/>
        <pt x="788" y="488" on="0"/>
        <pt x="817" y="544" on="0"/>
        <pt x="864" y="584" on="0"/>
        <pt x="938" y="615" on="0"/>
        <pt x="1010" y="634" on="0"/>
        <pt x="1060" y="642" on="1"/>
        <pt x="1122" y="651" on="0"/>
        <pt x="1239" y="660" on="1"/>
        <pt x="1379" y="753" on="0"/>
        <pt x="1502" y="753" on="1"/>
        <pt x="1524" y="753" on="0"/>
        <pt x="1541" y="742" on="0"/>
        <pt x="1541" y="706" on="0"/>
        <pt x="1499" y="677" on="0"/>
        <pt x="1456" y="668" on="1"/>
        <pt x="1381" y="654" on="0"/>
        <pt x="1260" y="645" on="1"/>
        <pt x="1259" y="645" on="0"/>
        <pt x="1258" y="645" on="1"/>
        <pt x="1257" y="645" on="1"/>
        <pt x="1195" y="599" on="0"/>
        <pt x="1110" y="513" on="1"/>
        <pt x="1083" y="485" on="0"/>
        <pt x="1031" y="431" on="1"/>
        <pt x="1059" y="425" on="0"/>
        <pt x="1059" y="394" on="0"/>
        <pt x="1008" y="367" on="0"/>
        <pt x="965" y="362" on="1"/>
        <pt x="845" y="239" on="0"/>
        <pt x="638" y="70" on="0"/>
        <pt x="524" y="20" on="1"/>
        <pt x="572" y="-20" on="0"/>
        <pt x="639" y="-20" on="1"/>
        <pt x="742" y="-20" on="0"/>
        <pt x="893" y="80" on="1"/>
        <pt x="895" y="65" on="1"/>
        <pt x="750" y="-36" on="0"/>
        <pt x="637" y="-36" on="1"/>
        <pt x="597" y="-36" on="0"/>
        <pt x="534" y="-11" on="0"/>
        <pt x="522" y="2" on="1"/>
        <pt x="510" y="14" on="1"/>
        <pt x="386" y="-36" on="0"/>
        <pt x="261" y="-36" on="1"/>
        <pt x="189" y="-36" on="0"/>
        <pt x="106" y="-14" on="1"/>
        <pt x="59" y="-1" on="0"/>
        <pt x="0" y="57" on="0"/>
        <pt x="0" y="99" on="1"/>
        <pt x="0" y="123" on="0"/>
        <pt x="17" y="150" on="0"/>
        <pt x="26" y="152" on="1"/>
        <pt x="34" y="153" on="1"/>
        <pt x="45" y="152" on="0"/>
      </contour>
    </TTGlyph>
    <TTGlyph name="J" xMin="-415" yMin="-410" xMax="1180" yMax="778">
      <contour>
        <pt x="1109" y="763" on="1"/>
        <pt x="1017" y="763" on="0"/>
        <pt x="895" y="670" on="1"/>
        <pt x="952" y="674" on="1"/>
        <pt x="1015" y="678" on="0"/>
        <pt x="1061" y="691" on="1"/>
        <pt x="1145" y="715" on="0"/>
        <pt x="1145" y="744" on="1"/>
        <pt x="1145" y="763" on="0"/>
      </contour>
      <contour>
        <pt x="39" y="-221" on="1"/>
        <pt x="60" y="-227" on="0"/>
        <pt x="89" y="-227" on="1"/>
        <pt x="169" y="-227" on="0"/>
        <pt x="348" y="-150" on="0"/>
        <pt x="463" y="-46" on="0"/>
        <pt x="463" y="-5" on="1"/>
        <pt x="463" y="54" on="0"/>
        <pt x="336" y="54" on="1"/>
        <pt x="320" y="54" on="0"/>
        <pt x="312" y="53" on="1"/>
        <pt x="147" y="-129" on="0"/>
      </contour>
      <contour>
        <pt x="203" y="387" on="1"/>
        <pt x="203" y="348" on="0"/>
        <pt x="263" y="301" on="0"/>
        <pt x="379" y="301" on="0"/>
        <pt x="526" y="403" on="0"/>
        <pt x="627" y="554" on="0"/>
        <pt x="627" y="619" on="1"/>
        <pt x="626" y="635" on="1"/>
        <pt x="421" y="611" on="0"/>
        <pt x="203" y="462" on="0"/>
      </contour>
      <contour>
        <pt x="-51" y="-183" on="1"/>
        <pt x="-42" y="-177" on="1"/>
        <pt x="-30" y="-191" on="0"/>
        <pt x="-6" y="-204" on="1"/>
        <pt x="94" y="-112" on="0"/>
        <pt x="243" y="46" on="1"/>
        <pt x="138" y="29" on="0"/>
        <pt x="-100" y="-76" on="0"/>
        <pt x="-282" y="-198" on="0"/>
        <pt x="-403" y="-320" on="0"/>
        <pt x="-403" y="-396" on="0"/>
        <pt x="-333" y="-396" on="1"/>
        <pt x="-219" y="-396" on="0"/>
        <pt x="-19" y="-216" on="1"/>
        <pt x="-45" y="-201" on="0"/>
      </contour>
      <contour>
        <pt x="320" y="62" on="1"/>
        <pt x="328" y="63" on="0"/>
        <pt x="345" y="63" on="1"/>
        <pt x="494" y="63" on="0"/>
        <pt x="494" y="-3" on="1"/>
        <pt x="494" y="-47" on="0"/>
        <pt x="367" y="-158" on="0"/>
        <pt x="168" y="-239" on="0"/>
        <pt x="78" y="-239" on="1"/>
        <pt x="46" y="-239" on="0"/>
        <pt x="24" y="-233" on="1"/>
        <pt x="-185" y="-410" on="0"/>
        <pt x="-344" y="-410" on="1"/>
        <pt x="-415" y="-410" on="0"/>
        <pt x="-415" y="-362" on="1"/>
        <pt x="-415" y="-329" on="0"/>
        <pt x="-346" y="-231" on="0"/>
        <pt x="-218" y="-125" on="0"/>
        <pt x="-57" y="-28" on="0"/>
        <pt x="151" y="45" on="0"/>
        <pt x="254" y="57" on="1"/>
        <pt x="279" y="84" on="0"/>
        <pt x="424" y="241" on="0"/>
        <pt x="490" y="311" on="0"/>
        <pt x="616" y="442" on="0"/>
        <pt x="657" y="482" on="1"/>
        <pt x="772" y="592" on="0"/>
        <pt x="847" y="649" on="1"/>
        <pt x="814" y="646" on="0"/>
        <pt x="684" y="642" on="0"/>
        <pt x="640" y="637" on="1"/>
        <pt x="641" y="632" on="0"/>
        <pt x="641" y="622" on="1"/>
        <pt x="641" y="570" on="0"/>
        <pt x="579" y="450" on="0"/>
        <pt x="484" y="353" on="0"/>
        <pt x="361" y="288" on="0"/>
        <pt x="248" y="288" on="0"/>
        <pt x="177" y="351" on="0"/>
        <pt x="177" y="437" on="0"/>
        <pt x="227" y="515" on="0"/>
        <pt x="327" y="589" on="0"/>
        <pt x="505" y="646" on="0"/>
        <pt x="621" y="657" on="1"/>
        <pt x="590" y="758" on="0"/>
        <pt x="400" y="758" on="1"/>
        <pt x="350" y="758" on="0"/>
        <pt x="239" y="724" on="0"/>
        <pt x="195" y="700" on="1"/>
        <pt x="106" y="650" on="0"/>
        <pt x="56" y="609" on="1"/>
        <pt x="36" y="592" on="1"/>
        <pt x="30" y="604" on="1"/>
        <pt x="47" y="621" on="0"/>
        <pt x="147" y="691" on="0"/>
        <pt x="232" y="735" on="0"/>
        <pt x="354" y="771" on="0"/>
        <pt x="411" y="771" on="1"/>
        <pt x="606" y="771" on="0"/>
        <pt x="636" y="658" on="1"/>
        <pt x="686" y="663" on="0"/>
        <pt x="789" y="665" on="0"/>
        <pt x="874" y="669" on="1"/>
        <pt x="1024" y="778" on="0"/>
        <pt x="1127" y="778" on="1"/>
        <pt x="1180" y="778" on="0"/>
        <pt x="1180" y="757" on="1"/>
        <pt x="1180" y="730" on="0"/>
        <pt x="1035" y="663" on="0"/>
        <pt x="940" y="656" on="1"/>
        <pt x="894" y="652" on="0"/>
        <pt x="870" y="651" on="1"/>
        <pt x="811" y="603" on="0"/>
        <pt x="663" y="453" on="0"/>
        <pt x="553" y="328" on="0"/>
        <pt x="368" y="116" on="0"/>
      </contour>
    </TTGlyph>
    <TTGlyph name="K" xMin="-8" yMin="-226" xMax="2025" yMax="985">
      <contour>
        <pt x="1058" y="419" on="1"/>
        <pt x="1044" y="419" on="0"/>
        <pt x="1044" y="407" on="0"/>
        <pt x="1052" y="400" on="1"/>
        <pt x="1072" y="384" on="0"/>
        <pt x="1117" y="384" on="1"/>
        <pt x="1129" y="384" on="0"/>
        <pt x="1136" y="385" on="1"/>
        <pt x="1112" y="419" on="0"/>
      </contour>
      <contour>
        <pt x="259" y="218" on="1"/>
        <pt x="341" y="233" on="0"/>
        <pt x="490" y="233" on="0"/>
        <pt x="552" y="220" on="1"/>
        <pt x="573" y="260" on="0"/>
        <pt x="573" y="290" on="1"/>
        <pt x="573" y="353" on="0"/>
        <pt x="490" y="353" on="1"/>
        <pt x="419" y="353" on="0"/>
        <pt x="296" y="276" on="0"/>
      </contour>
      <contour>
        <pt x="307" y="-9" on="1"/>
        <pt x="344" y="-23" on="0"/>
        <pt x="457" y="-23" on="0"/>
        <pt x="549" y="24" on="1"/>
        <pt x="645" y="73" on="0"/>
        <pt x="699" y="127" on="1"/>
        <pt x="654" y="174" on="0"/>
        <pt x="575" y="199" on="1"/>
        <pt x="540" y="136" on="0"/>
        <pt x="398" y="22" on="0"/>
      </contour>
      <contour>
        <pt x="207" y="103" on="1"/>
        <pt x="207" y="152" on="0"/>
        <pt x="234" y="202" on="1"/>
        <pt x="134" y="177" on="0"/>
        <pt x="14" y="84" on="0"/>
        <pt x="14" y="41" on="1"/>
        <pt x="14" y="11" on="0"/>
        <pt x="79" y="-26" on="0"/>
        <pt x="203" y="-26" on="0"/>
        <pt x="265" y="-6" on="1"/>
        <pt x="207" y="30" on="0"/>
      </contour>
      <contour>
        <pt x="545" y="208" on="1"/>
        <pt x="480" y="223" on="0"/>
        <pt x="331" y="223" on="0"/>
        <pt x="251" y="206" on="1"/>
        <pt x="222" y="156" on="0"/>
        <pt x="222" y="106" on="1"/>
        <pt x="222" y="34" on="0"/>
        <pt x="285" y="0" on="1"/>
        <pt x="369" y="31" on="0"/>
        <pt x="509" y="147" on="0"/>
      </contour>
      <contour>
        <pt x="1129" y="-45" on="1"/>
        <pt x="1144" y="-45" on="1"/>
        <pt x="1203" y="-45" on="0"/>
        <pt x="1311" y="11" on="0"/>
        <pt x="1380" y="93" on="0"/>
        <pt x="1420" y="179" on="0"/>
        <pt x="1420" y="212" on="1"/>
        <pt x="1420" y="249" on="0"/>
        <pt x="1374" y="249" on="1"/>
        <pt x="1342" y="249" on="0"/>
        <pt x="1260" y="209" on="0"/>
        <pt x="1182" y="138" on="0"/>
        <pt x="1129" y="24" on="0"/>
        <pt x="1129" y="-40" on="1"/>
      </contour>
      <contour>
        <pt x="621" y="514" on="1"/>
        <pt x="635" y="514" on="1"/>
        <pt x="725" y="514" on="0"/>
        <pt x="892" y="565" on="0"/>
        <pt x="1002" y="641" on="0"/>
        <pt x="1067" y="726" on="0"/>
        <pt x="1067" y="794" on="0"/>
        <pt x="1010" y="833" on="0"/>
        <pt x="954" y="833" on="1"/>
        <pt x="869" y="833" on="0"/>
        <pt x="711" y="733" on="0"/>
        <pt x="620" y="593" on="0"/>
        <pt x="620" y="531" on="1"/>
      </contour>
      <contour>
        <pt x="783" y="985" on="1"/>
        <pt x="786" y="973" on="1"/>
        <pt x="630" y="951" on="0"/>
        <pt x="421" y="758" on="0"/>
        <pt x="421" y="660" on="1"/>
        <pt x="421" y="602" on="0"/>
        <pt x="505" y="525" on="0"/>
        <pt x="589" y="516" on="1"/>
        <pt x="587" y="534" on="0"/>
        <pt x="587" y="544" on="1"/>
        <pt x="587" y="594" on="0"/>
        <pt x="643" y="701" on="0"/>
        <pt x="739" y="792" on="0"/>
        <pt x="883" y="851" on="0"/>
        <pt x="1024" y="851" on="0"/>
        <pt x="1085" y="806" on="0"/>
        <pt x="1085" y="728" on="0"/>
        <pt x="1019" y="637" on="0"/>
        <pt x="905" y="555" on="0"/>
        <pt x="728" y="501" on="0"/>
        <pt x="629" y="501" on="1"/>
        <pt x="623" y="501" on="1"/>
        <pt x="645" y="416" on="0"/>
        <pt x="770" y="416" on="1"/>
        <pt x="834" y="416" on="0"/>
        <pt x="1012" y="492" on="0"/>
        <pt x="1106" y="570" on="1"/>
        <pt x="1112" y="562" on="1"/>
        <pt x="1082" y="536" on="0"/>
        <pt x="990" y="473" on="0"/>
        <pt x="830" y="405" on="0"/>
        <pt x="765" y="405" on="1"/>
        <pt x="621" y="405" on="0"/>
        <pt x="593" y="502" on="1"/>
        <pt x="500" y="509" on="0"/>
        <pt x="405" y="593" on="0"/>
        <pt x="405" y="656" on="1"/>
        <pt x="405" y="757" on="0"/>
        <pt x="618" y="957" on="0"/>
      </contour>
      <contour>
        <pt x="1463" y="772" on="1"/>
        <pt x="1460" y="762" on="1"/>
        <pt x="1333" y="716" on="0"/>
        <pt x="1165" y="548" on="1"/>
        <pt x="1145" y="528" on="0"/>
        <pt x="1053" y="431" on="1"/>
        <pt x="1056" y="431" on="1"/>
        <pt x="1075" y="431" on="0"/>
        <pt x="1133" y="412" on="0"/>
        <pt x="1151" y="387" on="1"/>
        <pt x="1241" y="402" on="0"/>
        <pt x="1352" y="494" on="1"/>
        <pt x="1402" y="534" on="0"/>
        <pt x="1507" y="629" on="0"/>
        <pt x="1618" y="721" on="0"/>
        <pt x="1675" y="758" on="1"/>
        <pt x="1802" y="842" on="0"/>
        <pt x="1931" y="842" on="1"/>
        <pt x="1978" y="842" on="0"/>
        <pt x="2025" y="799" on="0"/>
        <pt x="2025" y="764" on="1"/>
        <pt x="2025" y="691" on="0"/>
        <pt x="1868" y="546" on="0"/>
        <pt x="1761" y="546" on="1"/>
        <pt x="1733" y="546" on="0"/>
        <pt x="1704" y="570" on="0"/>
        <pt x="1704" y="590" on="1"/>
        <pt x="1704" y="627" on="0"/>
        <pt x="1786" y="706" on="0"/>
        <pt x="1846" y="717" on="1"/>
        <pt x="1846" y="712" on="1"/>
        <pt x="1789" y="700" on="0"/>
        <pt x="1716" y="627" on="0"/>
        <pt x="1716" y="594" on="1"/>
        <pt x="1716" y="556" on="0"/>
        <pt x="1764" y="556" on="1"/>
        <pt x="1857" y="556" on="0"/>
        <pt x="2008" y="697" on="0"/>
        <pt x="2008" y="833" on="0"/>
        <pt x="1918" y="833" on="1"/>
        <pt x="1855" y="833" on="0"/>
        <pt x="1722" y="771" on="0"/>
        <pt x="1611" y="677" on="0"/>
        <pt x="1483" y="563" on="0"/>
        <pt x="1369" y="463" on="0"/>
        <pt x="1226" y="386" on="0"/>
        <pt x="1157" y="376" on="1"/>
        <pt x="1168" y="357" on="0"/>
        <pt x="1168" y="292" on="0"/>
        <pt x="1138" y="227" on="0"/>
        <pt x="1094" y="181" on="0"/>
        <pt x="1072" y="158" on="1"/>
        <pt x="1020" y="105" on="0"/>
        <pt x="1020" y="50" on="1"/>
        <pt x="1020" y="-33" on="0"/>
        <pt x="1115" y="-43" on="1"/>
        <pt x="1115" y="-34" on="1"/>
        <pt x="1115" y="33" on="0"/>
        <pt x="1170" y="149" on="0"/>
        <pt x="1253" y="222" on="0"/>
        <pt x="1344" y="263" on="0"/>
        <pt x="1380" y="263" on="1"/>
        <pt x="1457" y="263" on="0"/>
        <pt x="1457" y="200" on="1"/>
        <pt x="1457" y="164" on="0"/>
        <pt x="1408" y="75" on="0"/>
        <pt x="1326" y="-3" on="0"/>
        <pt x="1205" y="-56" on="0"/>
        <pt x="1140" y="-56" on="1"/>
        <pt x="1129" y="-56" on="1"/>
        <pt x="1134" y="-127" on="0"/>
        <pt x="1229" y="-216" on="0"/>
        <pt x="1321" y="-216" on="1"/>
        <pt x="1353" y="-216" on="0"/>
        <pt x="1389" y="-204" on="1"/>
        <pt x="1397" y="-209" on="1"/>
        <pt x="1366" y="-226" on="0"/>
        <pt x="1307" y="-226" on="1"/>
        <pt x="1217" y="-226" on="0"/>
        <pt x="1122" y="-131" on="0"/>
        <pt x="1116" y="-55" on="1"/>
        <pt x="1054" y="-48" on="0"/>
        <pt x="998" y="27" on="0"/>
        <pt x="998" y="115" on="0"/>
        <pt x="1028" y="178" on="0"/>
        <pt x="1072" y="226" on="0"/>
        <pt x="1094" y="250" on="1"/>
        <pt x="1145" y="306" on="0"/>
        <pt x="1145" y="355" on="1"/>
        <pt x="1145" y="362" on="0"/>
        <pt x="1141" y="374" on="1"/>
        <pt x="1130" y="373" on="0"/>
        <pt x="1109" y="373" on="1"/>
        <pt x="1053" y="373" on="0"/>
        <pt x="1018" y="393" on="1"/>
        <pt x="830" y="193" on="1"/>
        <pt x="809" y="170" on="0"/>
        <pt x="741" y="117" on="1"/>
        <pt x="784" y="68" on="0"/>
        <pt x="784" y="11" on="1"/>
        <pt x="784" y="-66" on="0"/>
        <pt x="621" y="-193" on="0"/>
        <pt x="462" y="-217" on="1"/>
        <pt x="462" y="-206" on="1"/>
        <pt x="601" y="-184" on="0"/>
        <pt x="749" y="-61" on="0"/>
        <pt x="749" y="14" on="1"/>
        <pt x="749" y="60" on="0"/>
        <pt x="720" y="101" on="1"/>
        <pt x="529" y="-36" on="0"/>
        <pt x="389" y="-36" on="1"/>
        <pt x="325" y="-36" on="0"/>
        <pt x="283" y="-16" on="1"/>
        <pt x="210" y="-37" on="0"/>
        <pt x="68" y="-37" on="0"/>
        <pt x="-8" y="8" on="0"/>
        <pt x="-8" y="43" on="1"/>
        <pt x="-8" y="91" on="0"/>
        <pt x="124" y="190" on="0"/>
        <pt x="241" y="215" on="1"/>
        <pt x="280" y="280" on="0"/>
        <pt x="419" y="367" on="0"/>
        <pt x="502" y="367" on="1"/>
        <pt x="553" y="367" on="0"/>
        <pt x="603" y="324" on="0"/>
        <pt x="603" y="252" on="0"/>
        <pt x="582" y="212" on="1"/>
        <pt x="663" y="189" on="0"/>
        <pt x="716" y="143" on="1"/>
        <pt x="1051" y="477" on="1"/>
        <pt x="1138" y="573" on="0"/>
        <pt x="1356" y="740" on="0"/>
      </contour>
    </TTGlyph>
    <TTGlyph name="L" xMin="6" yMin="-237" xMax="1440" yMax="997">
      <contour>
        <pt x="185" y="-30" on="1"/>
        <pt x="317" y="-30" on="0"/>
        <pt x="452" y="40" on="1"/>
        <pt x="203" y="108" on="0"/>
        <pt x="87" y="108" on="0"/>
        <pt x="36" y="76" on="0"/>
        <pt x="36" y="21" on="0"/>
        <pt x="117" y="-30" on="0"/>
      </contour>
      <contour>
        <pt x="708" y="5" on="1"/>
        <pt x="853" y="-26" on="0"/>
        <pt x="1014" y="-26" on="0"/>
        <pt x="1128" y="27" on="0"/>
        <pt x="1128" y="60" on="1"/>
        <pt x="1128" y="84" on="0"/>
        <pt x="1058" y="117" on="0"/>
        <pt x="991" y="117" on="1"/>
        <pt x="885" y="117" on="0"/>
        <pt x="741" y="55" on="0"/>
      </contour>
      <contour>
        <pt x="1170" y="654" on="1"/>
        <pt x="1102" y="591" on="0"/>
        <pt x="903" y="376" on="0"/>
        <pt x="857" y="329" on="1"/>
        <pt x="867" y="328" on="0"/>
        <pt x="888" y="328" on="1"/>
        <pt x="970" y="328" on="0"/>
        <pt x="1161" y="412" on="0"/>
        <pt x="1308" y="528" on="0"/>
        <pt x="1407" y="653" on="0"/>
        <pt x="1407" y="694" on="1"/>
        <pt x="1407" y="743" on="0"/>
        <pt x="1265" y="743" on="0"/>
      </contour>
      <contour>
        <pt x="1092" y="794" on="1"/>
        <pt x="1092" y="861" on="0"/>
        <pt x="983" y="861" on="1"/>
        <pt x="923" y="861" on="0"/>
        <pt x="796" y="804" on="0"/>
        <pt x="706" y="712" on="0"/>
        <pt x="650" y="600" on="0"/>
        <pt x="645" y="545" on="1"/>
        <pt x="671" y="543" on="0"/>
        <pt x="687" y="543" on="1"/>
        <pt x="770" y="543" on="0"/>
        <pt x="926" y="595" on="0"/>
        <pt x="1030" y="672" on="0"/>
        <pt x="1092" y="759" on="0"/>
      </contour>
      <contour>
        <pt x="513" y="51" on="1"/>
        <pt x="586" y="33" on="0"/>
        <pt x="687" y="9" on="1"/>
        <pt x="720" y="63" on="0"/>
        <pt x="879" y="130" on="0"/>
        <pt x="1001" y="130" on="1"/>
        <pt x="1073" y="130" on="0"/>
        <pt x="1158" y="86" on="0"/>
        <pt x="1158" y="55" on="1"/>
        <pt x="1158" y="17" on="0"/>
        <pt x="1029" y="-41" on="0"/>
        <pt x="822" y="-41" on="0"/>
        <pt x="695" y="-17" on="1"/>
        <pt x="685" y="-41" on="0"/>
        <pt x="685" y="-69" on="1"/>
        <pt x="685" y="-134" on="0"/>
        <pt x="812" y="-227" on="0"/>
        <pt x="925" y="-227" on="1"/>
        <pt x="929" y="-235" on="1"/>
        <pt x="911" y="-237" on="0"/>
        <pt x="902" y="-237" on="1"/>
        <pt x="795" y="-237" on="0"/>
        <pt x="666" y="-134" on="0"/>
        <pt x="666" y="-64" on="1"/>
        <pt x="666" y="-37" on="0"/>
        <pt x="676" y="-14" on="1"/>
        <pt x="577" y="7" on="0"/>
        <pt x="478" y="33" on="1"/>
        <pt x="326" y="-43" on="0"/>
        <pt x="175" y="-43" on="1"/>
        <pt x="100" y="-43" on="0"/>
        <pt x="6" y="16" on="0"/>
        <pt x="6" y="82" on="0"/>
        <pt x="78" y="123" on="0"/>
        <pt x="221" y="123" on="0"/>
        <pt x="485" y="58" on="1"/>
        <pt x="623" y="138" on="0"/>
        <pt x="798" y="320" on="1"/>
        <pt x="711" y="339" on="0"/>
        <pt x="623" y="454" on="0"/>
        <pt x="623" y="533" on="1"/>
        <pt x="623" y="535" on="1"/>
        <pt x="541" y="544" on="0"/>
        <pt x="462" y="620" on="0"/>
        <pt x="462" y="676" on="1"/>
        <pt x="462" y="771" on="0"/>
        <pt x="658" y="970" on="0"/>
        <pt x="793" y="997" on="1"/>
        <pt x="796" y="988" on="1"/>
        <pt x="661" y="960" on="0"/>
        <pt x="477" y="775" on="0"/>
        <pt x="477" y="685" on="1"/>
        <pt x="477" y="632" on="0"/>
        <pt x="549" y="559" on="0"/>
        <pt x="623" y="547" on="1"/>
        <pt x="626" y="607" on="0"/>
        <pt x="682" y="724" on="0"/>
        <pt x="775" y="821" on="0"/>
        <pt x="917" y="881" on="0"/>
        <pt x="988" y="881" on="1"/>
        <pt x="1118" y="881" on="0"/>
        <pt x="1118" y="800" on="1"/>
        <pt x="1118" y="761" on="0"/>
        <pt x="1052" y="668" on="0"/>
        <pt x="941" y="587" on="0"/>
        <pt x="772" y="532" on="0"/>
        <pt x="679" y="532" on="1"/>
        <pt x="655" y="532" on="0"/>
        <pt x="644" y="533" on="1"/>
        <pt x="644" y="523" on="1"/>
        <pt x="644" y="452" on="0"/>
        <pt x="727" y="351" on="0"/>
        <pt x="812" y="335" on="1"/>
        <pt x="844" y="368" on="0"/>
        <pt x="969" y="504" on="0"/>
        <pt x="1034" y="572" on="0"/>
        <pt x="1140" y="672" on="0"/>
        <pt x="1176" y="696" on="1"/>
        <pt x="1271" y="758" on="0"/>
        <pt x="1345" y="758" on="1"/>
        <pt x="1440" y="758" on="0"/>
        <pt x="1440" y="695" on="1"/>
        <pt x="1440" y="649" on="0"/>
        <pt x="1337" y="517" on="0"/>
        <pt x="1181" y="397" on="0"/>
        <pt x="972" y="312" on="0"/>
        <pt x="877" y="312" on="1"/>
        <pt x="853" y="312" on="0"/>
        <pt x="842" y="313" on="1"/>
        <pt x="663" y="134" on="0"/>
      </contour>
    </TTGlyph>
    <TTGlyph name="Lslash" xMin="6" yMin="-237" xMax="1440" yMax="997">
      <contour>
        <pt x="185" y="-30" on="1"/>
        <pt x="317" y="-30" on="0"/>
        <pt x="452" y="40" on="1"/>
        <pt x="203" y="108" on="0"/>
        <pt x="87" y="108" on="0"/>
        <pt x="36" y="76" on="0"/>
        <pt x="36" y="21" on="0"/>
        <pt x="117" y="-30" on="0"/>
      </contour>
      <contour>
        <pt x="708" y="5" on="1"/>
        <pt x="853" y="-26" on="0"/>
        <pt x="1014" y="-26" on="0"/>
        <pt x="1128" y="27" on="0"/>
        <pt x="1128" y="60" on="1"/>
        <pt x="1128" y="84" on="0"/>
        <pt x="1058" y="117" on="0"/>
        <pt x="991" y="117" on="1"/>
        <pt x="885" y="117" on="0"/>
        <pt x="741" y="55" on="0"/>
      </contour>
      <contour>
        <pt x="1170" y="654" on="1"/>
        <pt x="1102" y="591" on="0"/>
        <pt x="903" y="376" on="0"/>
        <pt x="857" y="329" on="1"/>
        <pt x="867" y="328" on="0"/>
        <pt x="888" y="328" on="1"/>
        <pt x="970" y="328" on="0"/>
        <pt x="1161" y="412" on="0"/>
        <pt x="1308" y="528" on="0"/>
        <pt x="1407" y="653" on="0"/>
        <pt x="1407" y="694" on="1"/>
        <pt x="1407" y="743" on="0"/>
        <pt x="1265" y="743" on="0"/>
      </contour>
      <contour>
        <pt x="1092" y="794" on="1"/>
        <pt x="1092" y="861" on="0"/>
        <pt x="983" y="861" on="1"/>
        <pt x="923" y="861" on="0"/>
        <pt x="796" y="804" on="0"/>
        <pt x="706" y="712" on="0"/>
        <pt x="650" y="600" on="0"/>
        <pt x="645" y="545" on="1"/>
        <pt x="671" y="543" on="0"/>
        <pt x="687" y="543" on="1"/>
        <pt x="770" y="543" on="0"/>
        <pt x="926" y="595" on="0"/>
        <pt x="1030" y="672" on="0"/>
        <pt x="1092" y="759" on="0"/>
      </contour>
      <contour>
        <pt x="513" y="51" on="1"/>
        <pt x="586" y="33" on="0"/>
        <pt x="687" y="9" on="1"/>
        <pt x="720" y="63" on="0"/>
        <pt x="879" y="130" on="0"/>
        <pt x="1001" y="130" on="1"/>
        <pt x="1073" y="130" on="0"/>
        <pt x="1158" y="86" on="0"/>
        <pt x="1158" y="55" on="1"/>
        <pt x="1158" y="17" on="0"/>
        <pt x="1029" y="-41" on="0"/>
        <pt x="822" y="-41" on="0"/>
        <pt x="695" y="-17" on="1"/>
        <pt x="685" y="-41" on="0"/>
        <pt x="685" y="-69" on="1"/>
        <pt x="685" y="-134" on="0"/>
        <pt x="812" y="-227" on="0"/>
        <pt x="925" y="-227" on="1"/>
        <pt x="929" y="-235" on="1"/>
        <pt x="911" y="-237" on="0"/>
        <pt x="902" y="-237" on="1"/>
        <pt x="795" y="-237" on="0"/>
        <pt x="666" y="-134" on="0"/>
        <pt x="666" y="-64" on="1"/>
        <pt x="666" y="-37" on="0"/>
        <pt x="676" y="-14" on="1"/>
        <pt x="577" y="7" on="0"/>
        <pt x="478" y="33" on="1"/>
        <pt x="326" y="-43" on="0"/>
        <pt x="175" y="-43" on="1"/>
        <pt x="100" y="-43" on="0"/>
        <pt x="6" y="16" on="0"/>
        <pt x="6" y="82" on="0"/>
        <pt x="78" y="123" on="0"/>
        <pt x="221" y="123" on="0"/>
        <pt x="485" y="58" on="1"/>
        <pt x="591" y="120" on="0"/>
        <pt x="708" y="230" on="1"/>
        <pt x="537" y="230" on="1"/>
        <pt x="523" y="230" on="0"/>
        <pt x="523" y="247" on="0"/>
        <pt x="531" y="247" on="1"/>
        <pt x="725" y="247" on="1"/>
        <pt x="762" y="283" on="0"/>
        <pt x="798" y="320" on="1"/>
        <pt x="711" y="339" on="0"/>
        <pt x="623" y="454" on="0"/>
        <pt x="623" y="533" on="1"/>
        <pt x="623" y="535" on="1"/>
        <pt x="541" y="544" on="0"/>
        <pt x="462" y="620" on="0"/>
        <pt x="462" y="676" on="1"/>
        <pt x="462" y="771" on="0"/>
        <pt x="658" y="970" on="0"/>
        <pt x="793" y="997" on="1"/>
        <pt x="796" y="988" on="1"/>
        <pt x="661" y="960" on="0"/>
        <pt x="477" y="775" on="0"/>
        <pt x="477" y="685" on="1"/>
        <pt x="477" y="632" on="0"/>
        <pt x="549" y="559" on="0"/>
        <pt x="623" y="547" on="1"/>
        <pt x="626" y="607" on="0"/>
        <pt x="682" y="724" on="0"/>
        <pt x="775" y="821" on="0"/>
        <pt x="917" y="881" on="0"/>
        <pt x="988" y="881" on="1"/>
        <pt x="1118" y="881" on="0"/>
        <pt x="1118" y="800" on="1"/>
        <pt x="1118" y="761" on="0"/>
        <pt x="1052" y="668" on="0"/>
        <pt x="941" y="587" on="0"/>
        <pt x="772" y="532" on="0"/>
        <pt x="679" y="532" on="1"/>
        <pt x="655" y="532" on="0"/>
        <pt x="644" y="533" on="1"/>
        <pt x="644" y="523" on="1"/>
        <pt x="644" y="452" on="0"/>
        <pt x="727" y="351" on="0"/>
        <pt x="812" y="335" on="1"/>
        <pt x="844" y="368" on="0"/>
        <pt x="969" y="504" on="0"/>
        <pt x="1034" y="572" on="0"/>
        <pt x="1140" y="672" on="0"/>
        <pt x="1176" y="696" on="1"/>
        <pt x="1271" y="758" on="0"/>
        <pt x="1345" y="758" on="1"/>
        <pt x="1440" y="758" on="0"/>
        <pt x="1440" y="695" on="1"/>
        <pt x="1440" y="649" on="0"/>
        <pt x="1337" y="517" on="0"/>
        <pt x="1181" y="397" on="0"/>
        <pt x="972" y="312" on="0"/>
        <pt x="877" y="312" on="1"/>
        <pt x="853" y="312" on="0"/>
        <pt x="842" y="313" on="1"/>
        <pt x="797" y="268" on="0"/>
        <pt x="774" y="247" on="1"/>
        <pt x="940" y="247" on="1"/>
        <pt x="943" y="247" on="0"/>
        <pt x="943" y="232" on="0"/>
        <pt x="934" y="230" on="1"/>
        <pt x="756" y="230" on="1"/>
        <pt x="625" y="113" on="0"/>
      </contour>
    </TTGlyph>
</ttFont>
